<?xml version="1.0" standalone="no"?>
<!DOCTYPE svg PUBLIC "-//W3C//DTD SVG 1.1//EN" "http://www.w3.org/Graphics/SVG/1.1/DTD/svg11.dtd" >
<svg xmlns="http://www.w3.org/2000/svg" xmlns:xlink="http://www.w3.org/1999/xlink" version="1.1">
<metadata>
Created by FontForge 20201107 at Tue Nov  7 12:30:46 2023
 By 
Copyright 2022 The Noto Project Authors (https://github.com/notofonts/arabic)
</metadata>
<defs>
<font id="NotoSansArabic-Regular" horiz-adv-x="0" >
  <font-face 
    font-family="Noto Sans Arabic"
    font-weight="400"
    font-stretch="normal"
    units-per-em="1000"
    panose-1="0 0 0 0 0 0 0 0 0 0"
    ascent="800"
    descent="-200"
    x-height="536"
    cap-height="714"
    bbox="-493 -548 9747 1431"
    underline-thickness="50"
    underline-position="-125"
    unicode-range="U+000D-10EFF"
  />
<missing-glyph horiz-adv-x="600" 
d="M94 0v714h411v-714h-411zM145 51h309v612h-309v-612z" />
    <glyph glyph-name="uniFDF2" unicode="&#xfe8d;&#xfedf;&#xfee0;&#x651;&#x670;&#xfeea;" horiz-adv-x="1284" arabic-form="isolated" 
d="M1138 0l-20 714h81l20 -714h-81zM486 -5q-43 0 -78.5 9.5t-60.5 32t-38 61.5q-53 -13 -103 -10.5t-89.5 19t-63 46t-23.5 70.5q0 54 34 99t92 76t128 42l-3 76h81l16 -330q3 -47 17 -70.5t39.5 -31t61.5 -7.5q57 0 79.5 11t26 39t1.5 78l-13 363h83l12 -361
q2 -51 16.5 -79.5t39.5 -39.5t55 -11q56 0 79 11t26.5 39t1.5 78l-19 509h81l20 -500q2 -53 -3.5 -94t-26 -69t-61 -42t-108.5 -14q-34 0 -58.5 9t-40.5 24.5t-25 33.5q-19 -33 -61 -50t-115 -17zM297 174l-9 183q-57 -6 -97 -26t-61 -45t-21 -50q0 -24 18.5 -38.5
t47.5 -21.5t61.5 -7t60.5 5zM556 606q-40 0 -53 26.5t-13 56.5q0 11 1.5 23.5t4.5 28.5l50 14q-3 -17 -4.5 -31.5t-1.5 -25.5q0 -19 6 -28t19 -9q15 0 25 15.5t11 62.5v30l48 18v-61q0 -14 5.5 -24.5t23.5 -10.5t24 11t6 28t-4 34.5t-11 34.5l45 14q10 -19 16.5 -43.5
t6.5 -44.5q0 -33 -18.5 -59.5t-57.5 -26.5q-31 0 -50.5 16.5t-19.5 39.5l23 -9q0 -34 -23.5 -57t-58.5 -23zM591 816l-6 173h55l6 -173h-55z" />
    <glyph glyph-name="uni0621" unicode="&#x621;" horiz-adv-x="411" arabic-form="isolated" 
d="M166 47q-21 6 -40.5 18.5t-35 31.5t-24.5 43.5t-9 52.5q0 51 23.5 87.5t62 55.5t84.5 19q17 0 37 -3.5t38 -8.5l-13 -75q-15 4 -32 6.5t-30 2.5q-30 0 -50.5 -11.5t-30.5 -30.5t-10 -42q0 -32 19 -57.5t46 -40.5t52 -15zM40 -58l-23 76q40 9 95.5 25t116.5 36.5t117 43.5
l30 -73q-29 -12 -72.5 -27.5t-92 -31t-93.5 -29t-78 -20.5z" />
    <glyph glyph-name="uni0622" unicode="&#x622;" horiz-adv-x="235" arabic-form="isolated" 
d="M89 0l-17 644h81l17 -644h-81zM179 731q-30 0 -54 10.5t-44 20.5t-37 10q-18 0 -32.5 -9t-30.5 -25l-38 32q23 29 48 45.5t53 16.5q25 0 46 -10t42.5 -20t46.5 -10q16 0 30 5.5t34 17.5l29 -41q-32 -28 -54.5 -35.5t-38.5 -7.5z" />
    <glyph glyph-name="uni0623" unicode="&#x623;" horiz-adv-x="235" arabic-form="isolated" 
d="M89 0l-17 644h81l17 -644h-81zM23 704l-12 54q26 6 42 10l36 9l-5 -21q-26 8 -49.5 34t-23.5 59q0 30 14.5 50.5t38 30.5t50.5 10q11 0 23.5 -2t23.5 -6l-8 -50q-10 2 -19 4t-20 2q-23 0 -36 -9.5t-13 -26.5q0 -21 13.5 -36t31 -23.5t28.5 -8.5l-41 -4q27 7 50.5 14.5
t42.5 14.5l16 -51q-24 -9 -56.5 -19t-65.5 -19t-61 -16z" />
    <glyph glyph-name="uni0624" unicode="&#x624;" horiz-adv-x="447" arabic-form="isolated" 
d="M58 -230l-18 82q60 8 110.5 22.5t87 41.5t56.5 71t20 110q0 31 -6 59.5t-18 50.5t-28.5 35t-37.5 13q-23 0 -41.5 -17.5t-29 -44.5t-10.5 -54q0 -21 8.5 -36.5t28.5 -23.5t52 -8q29 0 58.5 6t50.5 16l4 -70q-24 -17 -56.5 -24t-65.5 -7q-38 0 -67.5 8t-50 23.5t-31 39.5
t-10.5 56q0 38 12 76.5t34 70.5t53 51.5t69 19.5q40 0 70 -20.5t50 -55.5t30 -79t10 -91q0 -93 -37.5 -160.5t-112 -107.5t-184.5 -53zM142 397l-12 54q26 6 42 10l36 9l-5 -21q-26 8 -49.5 34t-23.5 59q0 30 14.5 50.5t38 30.5t50.5 10q11 0 23.5 -2t23.5 -6l-8 -50
q-10 2 -19 4t-20 2q-23 0 -36 -9.5t-13 -26.5q0 -21 13.5 -36t31 -23.5t28.5 -8.5l-41 -4q27 7 50.5 14.5t42.5 14.5l16 -51q-24 -9 -56.5 -19t-65.5 -19t-61 -16z" />
    <glyph glyph-name="uni0625" unicode="&#x625;" horiz-adv-x="238" arabic-form="isolated" 
d="M92 0l-20 714h81l20 -714h-81zM65 -303l-12 54q26 6 42 10l36 9l-5 -21q-26 8 -49.5 34t-23.5 59q0 30 14.5 50.5t38 30.5t50.5 10q11 0 23.5 -2t23.5 -6l-8 -50q-10 2 -19 4t-20 2q-23 0 -36 -9.5t-13 -26.5q0 -21 13.5 -36t31 -23.5t28.5 -8.5l-41 -4q27 7 50.5 14.5
t42.5 14.5l16 -51q-24 -9 -56.5 -19t-65.5 -19t-61 -16z" />
    <glyph glyph-name="uni0626" unicode="&#x626;" horiz-adv-x="760" arabic-form="isolated" 
d="M30 -1q0 24 4.5 51.5t14 59t23.5 66.5l72 -28q-10 -28 -17.5 -53t-11 -47t-3.5 -42q0 -39 16.5 -68t46.5 -48.5t70 -29.5t86 -10q72 0 126 15.5t90 39.5t53.5 50t17.5 46q0 14 -17 25t-44 21t-57 21.5t-57 27.5t-44 38.5t-17 53.5q0 41 20.5 81.5t56 74.5t79.5 54.5
t91 20.5q42 0 72 -11.5t43 -21.5l-33 -71q-17 8 -38 15t-44 7q-29 0 -58.5 -12t-54 -32t-39.5 -44t-15 -48q0 -17 17.5 -31t45.5 -26t59.5 -24.5t59.5 -27t45.5 -33.5t17.5 -45q0 -37 -25 -80t-74 -80.5t-119.5 -61.5t-162.5 -24q-63 0 -116.5 14t-94 42.5t-63 72
t-22.5 102.5zM126 210l-12 54q26 6 42 10l36 9l-5 -21q-26 8 -49.5 34t-23.5 59q0 30 14.5 50.5t38 30.5t50.5 10q11 0 23.5 -2t23.5 -6l-8 -50q-10 2 -19 4t-20 2q-23 0 -36 -9.5t-13 -26.5q0 -21 13.5 -36t31 -23.5t28.5 -8.5l-41 -4q27 7 50.5 14.5t42.5 14.5l16 -51
q-24 -9 -56.5 -19t-65.5 -19t-61 -16z" />
    <glyph glyph-name="uni0627" unicode="&#x627;" horiz-adv-x="238" arabic-form="isolated" 
d="M92 0l-20 714h81l20 -714h-81z" />
    <glyph glyph-name="uni0628" unicode="&#x628;" horiz-adv-x="993" arabic-form="isolated" 
d="M390 -21l26 82q117 0 201.5 6t139 19.5t81 37t26.5 57.5q0 38 -14 88t-36 107l77 27q13 -32 24.5 -68.5t19.5 -72t8 -65.5q0 -59 -27 -100.5t-90 -67.5t-169.5 -38t-266.5 -12zM390 -21q-89 0 -156.5 11.5t-112.5 35.5t-68 62.5t-23 93.5q0 25 4 51.5t10.5 53.5t13.5 52
l75 -19q-4 -15 -9 -35.5t-8.5 -41.5t-3.5 -38q0 -52 26.5 -83.5t92.5 -46t185 -14.5l20 -50zM486 -211q-21 0 -35.5 14.5t-14.5 34.5t14.5 35t35.5 15q20 0 34.5 -15t14.5 -35t-14.5 -34.5t-34.5 -14.5z" />
    <glyph glyph-name="uni0629" unicode="&#x629;" horiz-adv-x="405" arabic-form="isolated" 
d="M202 0q-49 0 -88 17t-61.5 52t-22.5 89q0 43 33 107.5t115 136.5l19 -54l-68 61l52 62q52 -41 96 -88t71 -100t27 -112q0 -23 -8 -52t-27 -56.5t-53 -45t-85 -17.5zM202 82q34 0 56.5 11.5t34 32.5t11.5 49q0 25 -8.5 52.5t-34 60t-77.5 73.5l44 2q-37 -32 -64 -67.5
t-41 -69t-14 -60.5q0 -42 26.5 -63t66.5 -21zM278 560q-21 0 -35.5 14.5t-14.5 34.5t14.5 35t35.5 15q20 0 34.5 -15t14.5 -35t-14.5 -34.5t-34.5 -14.5zM141 560q-21 0 -35.5 14.5t-14.5 34.5t14.5 35t35.5 15q20 0 34.5 -15t14.5 -35t-14.5 -34.5t-34.5 -14.5z" />
    <glyph glyph-name="uni062A" unicode="&#x62a;" horiz-adv-x="993" arabic-form="isolated" 
d="M390 -21l26 82q117 0 201.5 6t139 19.5t81 37t26.5 57.5q0 38 -14 88t-36 107l77 27q13 -32 24.5 -68.5t19.5 -72t8 -65.5q0 -59 -27 -100.5t-90 -67.5t-169.5 -38t-266.5 -12zM390 -21q-89 0 -156.5 11.5t-112.5 35.5t-68 62.5t-23 93.5q0 25 4 51.5t10.5 53.5t13.5 52
l75 -19q-4 -15 -9 -35.5t-8.5 -41.5t-3.5 -38q0 -52 26.5 -83.5t92.5 -46t185 -14.5l20 -50zM557 401q-21 0 -35.5 14.5t-14.5 34.5t14.5 35t35.5 15q20 0 34.5 -15t14.5 -35t-14.5 -34.5t-34.5 -14.5zM420 401q-21 0 -35.5 14.5t-14.5 34.5t14.5 35t35.5 15q20 0 34.5 -15
t14.5 -35t-14.5 -34.5t-34.5 -14.5z" />
    <glyph glyph-name="uni062B" unicode="&#x62b;" horiz-adv-x="993" arabic-form="isolated" 
d="M390 -21l26 82q117 0 201.5 6t139 19.5t81 37t26.5 57.5q0 38 -14 88t-36 107l77 27q13 -32 24.5 -68.5t19.5 -72t8 -65.5q0 -59 -27 -100.5t-90 -67.5t-169.5 -38t-266.5 -12zM390 -21q-89 0 -156.5 11.5t-112.5 35.5t-68 62.5t-23 93.5q0 25 4 51.5t10.5 53.5t13.5 52
l75 -19q-4 -15 -9 -35.5t-8.5 -41.5t-3.5 -38q0 -52 26.5 -83.5t92.5 -46t185 -14.5l20 -50zM489 511q-21 0 -35.5 14.5t-14.5 34.5t14.5 35t35.5 15q20 0 34.5 -15t14.5 -35t-14.5 -34.5t-34.5 -14.5zM421 401q-21 0 -35.5 14.5t-14.5 34.5t14.5 35t35.5 15q20 0 34.5 -15
t14.5 -35t-14.5 -34.5t-34.5 -14.5zM557 401q-21 0 -35.5 14.5t-14.5 34.5t14.5 35t35.5 15q20 0 34.5 -15t14.5 -35t-14.5 -34.5t-34.5 -14.5z" />
    <glyph glyph-name="uni062C" unicode="&#x62c;" horiz-adv-x="639" arabic-form="isolated" 
d="M360 -394q-70 0 -133.5 16t-112 49.5t-76.5 84.5t-28 120q0 58 17 110.5t49.5 99t79.5 85.5t107 69.5t131 51.5l-11 -13q-26 8 -53 17.5t-56 18t-62 13.5t-71 5q-30 0 -52.5 -5t-42.5 -10l-14 74q26 11 58.5 17.5t65.5 6.5q46 0 82 -8.5t68.5 -21t68.5 -25t80.5 -21
t105.5 -8.5h9l2 -82q-48 0 -102 -11t-107.5 -32t-102.5 -52t-86.5 -71.5t-59.5 -90t-22 -107.5q0 -52 22 -89.5t60.5 -61.5t89 -35t106.5 -11q49 0 100.5 10.5t100.5 29.5l28 -68q-58 -28 -119 -41.5t-120 -13.5zM351 -115q-21 0 -35.5 14.5t-14.5 34.5t14.5 35t35.5 15
q20 0 34.5 -15t14.5 -35t-14.5 -34.5t-34.5 -14.5z" />
    <glyph glyph-name="uni062D" unicode="&#x62d;" horiz-adv-x="639" arabic-form="isolated" 
d="M360 -394q-70 0 -133.5 16t-112 49.5t-76.5 84.5t-28 120q0 58 17 110.5t49.5 99t79.5 85.5t107 69.5t131 51.5l-11 -13q-26 8 -53 17.5t-56 18t-62 13.5t-71 5q-30 0 -52.5 -5t-42.5 -10l-14 74q26 11 58.5 17.5t65.5 6.5q46 0 82 -8.5t68.5 -21t68.5 -25t80.5 -21
t105.5 -8.5h9l2 -82q-48 0 -102 -11t-107.5 -32t-102.5 -52t-86.5 -71.5t-59.5 -90t-22 -107.5q0 -52 22 -89.5t60.5 -61.5t89 -35t106.5 -11q49 0 100.5 10.5t100.5 29.5l28 -68q-58 -28 -119 -41.5t-120 -13.5z" />
    <glyph glyph-name="uni062E" unicode="&#x62e;" horiz-adv-x="639" arabic-form="isolated" 
d="M360 -394q-70 0 -133.5 16t-112 49.5t-76.5 84.5t-28 120q0 58 17 110.5t49.5 99t79.5 85.5t107 69.5t131 51.5l-11 -13q-26 8 -53 17.5t-56 18t-62 13.5t-71 5q-30 0 -52.5 -5t-42.5 -10l-14 74q26 11 58.5 17.5t65.5 6.5q46 0 82 -8.5t68.5 -21t68.5 -25t80.5 -21
t105.5 -8.5h9l2 -82q-48 0 -102 -11t-107.5 -32t-102.5 -52t-86.5 -71.5t-59.5 -90t-22 -107.5q0 -52 22 -89.5t60.5 -61.5t89 -35t106.5 -11q49 0 100.5 10.5t100.5 29.5l28 -68q-58 -28 -119 -41.5t-120 -13.5zM312 519q-21 0 -35.5 14.5t-14.5 34.5t14.5 35t35.5 15
q20 0 34.5 -15t14.5 -35t-14.5 -34.5t-34.5 -14.5z" />
    <glyph glyph-name="uni062F" unicode="&#x62f;" horiz-adv-x="477" arabic-form="isolated" 
d="M35 45l40 69q20 -13 56 -25t84 -12q50 0 79.5 10t43 29.5t13.5 45.5q0 20 -8.5 49.5t-36.5 80t-86 132.5l69 45q53 -73 84.5 -132t45 -103.5t13.5 -76.5q0 -40 -20 -77.5t-67 -61.5t-130 -24q-36 0 -69.5 6t-61.5 17.5t-49 27.5z" />
    <glyph glyph-name="uni0630" unicode="&#x630;" horiz-adv-x="477" arabic-form="isolated" 
d="M35 45l40 69q20 -13 56 -25t84 -12q50 0 79.5 10t43 29.5t13.5 45.5q0 20 -8.5 49.5t-36.5 80t-86 132.5l69 45q53 -73 84.5 -132t45 -103.5t13.5 -76.5q0 -40 -20 -77.5t-67 -61.5t-130 -24q-36 0 -69.5 6t-61.5 17.5t-49 27.5zM216 560q-21 0 -35.5 14.5t-14.5 34.5
t14.5 35t35.5 15q20 0 34.5 -15t14.5 -35t-14.5 -34.5t-34.5 -14.5z" />
    <glyph glyph-name="uni0631" unicode="&#x631;" horiz-adv-x="367" arabic-form="isolated" 
d="M4 -230l-29 76q101 32 155.5 76.5t75 92.5t20.5 92q0 28 -6 54t-21 59t-42 82l73 37q38 -65 54.5 -123t16.5 -102q0 -63 -20.5 -114t-54 -90.5t-73 -67.5t-79 -46t-70.5 -26z" />
    <glyph glyph-name="uni0632" unicode="&#x632;" horiz-adv-x="367" arabic-form="isolated" 
d="M4 -230l-29 76q101 32 155.5 76.5t75 92.5t20.5 92q0 28 -6 54t-21 59t-42 82l73 37q38 -65 54.5 -123t16.5 -102q0 -63 -20.5 -114t-54 -90.5t-73 -67.5t-79 -46t-70.5 -26zM177 454q-21 0 -35.5 14.5t-14.5 34.5t14.5 35t35.5 15q20 0 34.5 -15t14.5 -35t-14.5 -34.5
t-34.5 -14.5z" />
    <glyph glyph-name="uni0633" unicode="&#x633;" horiz-adv-x="1209" arabic-form="isolated" 
d="M313 -232q-57 0 -108 15.5t-90.5 45.5t-62 72.5t-22.5 97.5q0 24 4.5 51.5t14 59t23.5 66.5l72 -28q-10 -28 -17.5 -53t-11 -47t-3.5 -42q0 -51 27.5 -86t74 -52.5t102.5 -17.5q68 0 114 15.5t73 41t38.5 56.5t11.5 63q0 44 -6.5 83t-17 76.5t-22.5 76.5l81 22
q11 -38 17 -61.5t9.5 -37.5t6.5 -25q11 -37 25.5 -54.5t34 -23t44.5 -5.5q20 0 35.5 5t29 24t24 61t19.5 115l76 -14q-3 -18 -7 -44t-7.5 -51.5t-3.5 -42.5q0 -14 6.5 -26.5t26 -19.5t58.5 -7q31 0 53.5 4.5t35 23t12.5 58.5q0 25 -8 59.5t-21 73.5t-28 77l81 30
q13 -32 24.5 -73t19.5 -81t8 -70q0 -51 -13.5 -86t-37.5 -57t-56.5 -31.5t-70.5 -9.5q-35 0 -60.5 6t-43 18.5t-27 32t-13.5 45.5h34q-16 -36 -36 -58.5t-47.5 -33t-67.5 -10.5q-31 0 -53 8.5t-36.5 22t-22.5 31t-12 35.5l41 -51q-5 -48 -21.5 -96t-52 -88.5t-96.5 -64.5
t-154 -24z" />
    <glyph glyph-name="uni0634" unicode="&#x634;" horiz-adv-x="1209" arabic-form="isolated" 
d="M313 -232q-57 0 -108 15.5t-90.5 45.5t-62 72.5t-22.5 97.5q0 24 4.5 51.5t14 59t23.5 66.5l72 -28q-10 -28 -17.5 -53t-11 -47t-3.5 -42q0 -51 27.5 -86t74 -52.5t102.5 -17.5q68 0 114 15.5t73 41t38.5 56.5t11.5 63q0 44 -6.5 83t-17 76.5t-22.5 76.5l81 22
q11 -38 17 -61.5t9.5 -37.5t6.5 -25q11 -37 25.5 -54.5t34 -23t44.5 -5.5q20 0 35.5 5t29 24t24 61t19.5 115l76 -14q-3 -18 -7 -44t-7.5 -51.5t-3.5 -42.5q0 -14 6.5 -26.5t26 -19.5t58.5 -7q31 0 53.5 4.5t35 23t12.5 58.5q0 25 -8 59.5t-21 73.5t-28 77l81 30
q13 -32 24.5 -73t19.5 -81t8 -70q0 -51 -13.5 -86t-37.5 -57t-56.5 -31.5t-70.5 -9.5q-35 0 -60.5 6t-43 18.5t-27 32t-13.5 45.5h34q-16 -36 -36 -58.5t-47.5 -33t-67.5 -10.5q-31 0 -53 8.5t-36.5 22t-22.5 31t-12 35.5l41 -51q-5 -48 -21.5 -96t-52 -88.5t-96.5 -64.5
t-154 -24zM824 545q-21 0 -35.5 14.5t-14.5 34.5t14.5 35t35.5 15q20 0 34.5 -15t14.5 -35t-14.5 -34.5t-34.5 -14.5zM756 435q-21 0 -35.5 14.5t-14.5 34.5t14.5 35t35.5 15q20 0 34.5 -15t14.5 -35t-14.5 -34.5t-34.5 -14.5zM892 435q-21 0 -35.5 14.5t-14.5 34.5t14.5 35
t35.5 15q20 0 34.5 -15t14.5 -35t-14.5 -34.5t-34.5 -14.5z" />
    <glyph glyph-name="uni0635" unicode="&#x635;" horiz-adv-x="1306" arabic-form="isolated" 
d="M313 -232q-57 0 -108 15.5t-90.5 45.5t-62 72.5t-22.5 97.5q0 24 4.5 51.5t14 59t23.5 66.5l72 -28q-10 -28 -17.5 -53t-11 -47t-3.5 -42q0 -51 27.5 -86t74 -52.5t102.5 -17.5q68 0 114 17t73 45.5t38.5 64t11.5 72.5q0 49 -14.5 101.5t-31.5 111.5l81 22
q11 -38 16.5 -61.5t9 -38t7.5 -24.5q11 -26 31.5 -43.5t54 -28t82.5 -15t116 -4.5q53 0 96.5 5t77.5 15.5t57.5 26t35.5 36t12 45.5q0 22 -11 43.5t-34 36.5t-61 15q-48 0 -95.5 -25t-90 -62.5t-75.5 -76.5t-53 -68l-87 3q25 41 59 85t74 84t85 72t92.5 51t96.5 19
q55 0 94.5 -22.5t61 -60.5t21.5 -86q0 -44 -19 -83.5t-62 -69.5t-115 -47.5t-178 -17.5q-76 0 -129.5 9.5t-88 25t-52 34t-21.5 36.5l41 -51q-5 -48 -21.5 -96t-52 -88.5t-96.5 -64.5t-154 -24z" />
    <glyph glyph-name="uni0636" unicode="&#x636;" horiz-adv-x="1306" arabic-form="isolated" 
d="M313 -232q-57 0 -108 15.5t-90.5 45.5t-62 72.5t-22.5 97.5q0 24 4.5 51.5t14 59t23.5 66.5l72 -28q-10 -28 -17.5 -53t-11 -47t-3.5 -42q0 -51 27.5 -86t74 -52.5t102.5 -17.5q68 0 114 17t73 45.5t38.5 64t11.5 72.5q0 49 -14.5 101.5t-31.5 111.5l81 22
q11 -38 16.5 -61.5t9 -38t7.5 -24.5q11 -26 31.5 -43.5t54 -28t82.5 -15t116 -4.5q53 0 96.5 5t77.5 15.5t57.5 26t35.5 36t12 45.5q0 22 -11 43.5t-34 36.5t-61 15q-48 0 -95.5 -25t-90 -62.5t-75.5 -76.5t-53 -68l-87 3q25 41 59 85t74 84t85 72t92.5 51t96.5 19
q55 0 94.5 -22.5t61 -60.5t21.5 -86q0 -44 -19 -83.5t-62 -69.5t-115 -47.5t-178 -17.5q-76 0 -129.5 9.5t-88 25t-52 34t-21.5 36.5l41 -51q-5 -48 -21.5 -96t-52 -88.5t-96.5 -64.5t-154 -24zM1055 477q-21 0 -35.5 14.5t-14.5 34.5t14.5 35t35.5 15q20 0 34.5 -15
t14.5 -35t-14.5 -34.5t-34.5 -14.5z" />
    <glyph glyph-name="uni0637" unicode="&#x637;" horiz-adv-x="788" arabic-form="isolated" 
d="M369 -13q-63 0 -116.5 2t-97.5 4.5t-78 6t-57 6.5l9 78q29 -4 66.5 -7t83 -4.5t97.5 -2.5t111 -1q66 0 118 8t87.5 24.5t54.5 40.5t19 55q0 22 -11 43.5t-34 36.5t-61 15q-48 0 -95.5 -25t-90 -62.5t-75.5 -76.5t-53 -68l-87 3q32 52 76.5 106.5t98 101t112.5 75
t120 28.5q55 0 94.5 -22.5t61 -60.5t21.5 -86q0 -59 -34.5 -108.5t-116.5 -79.5t-223 -30zM213 99l-20 615h81l20 -545z" />
    <glyph glyph-name="uni0638" unicode="&#x638;" horiz-adv-x="788" arabic-form="isolated" 
d="M369 -13q-63 0 -116.5 2t-97.5 4.5t-78 6t-57 6.5l9 78q29 -4 66.5 -7t83 -4.5t97.5 -2.5t111 -1q66 0 118 8t87.5 24.5t54.5 40.5t19 55q0 22 -11 43.5t-34 36.5t-61 15q-48 0 -95.5 -25t-90 -62.5t-75.5 -76.5t-53 -68l-87 3q32 52 76.5 106.5t98 101t112.5 75
t120 28.5q55 0 94.5 -22.5t61 -60.5t21.5 -86q0 -59 -34.5 -108.5t-116.5 -79.5t-223 -30zM213 99l-20 615h81l20 -545zM567 477q-21 0 -35.5 14.5t-14.5 34.5t14.5 35t35.5 15q20 0 34.5 -15t14.5 -35t-14.5 -34.5t-34.5 -14.5z" />
    <glyph glyph-name="uni0639" unicode="&#x639;" horiz-adv-x="507" arabic-form="isolated" 
d="M343 -394q-54 0 -112 12.5t-108 43t-81.5 82t-31.5 129.5q0 72 29 135t82.5 114t126.5 86t161 50l21 -78q-73 -13 -135 -39t-107.5 -63.5t-70.5 -86t-25 -106.5q0 -47 16 -81t42.5 -56.5t59.5 -35.5t67.5 -18.5t65.5 -5.5q53 0 108 9.5t100 28.5l26 -70
q-24 -12 -63.5 -23.5t-84.5 -19t-86 -7.5zM178 136q-40 10 -72 36t-50.5 62t-18.5 76q0 63 29.5 105t76 63t98.5 21q23 0 49 -4t50 -12l-17 -77q-20 5 -42 8t-40 3q-36 0 -64 -13t-44 -35.5t-16 -52.5q0 -27 15.5 -48.5t39.5 -37t49 -23t44 -6.5z" />
    <glyph glyph-name="uni063A" unicode="&#x63a;" horiz-adv-x="507" arabic-form="isolated" 
d="M343 -394q-54 0 -112 12.5t-108 43t-81.5 82t-31.5 129.5q0 72 29 135t82.5 114t126.5 86t161 50l21 -78q-73 -13 -135 -39t-107.5 -63.5t-70.5 -86t-25 -106.5q0 -47 16 -81t42.5 -56.5t59.5 -35.5t67.5 -18.5t65.5 -5.5q53 0 108 9.5t100 28.5l26 -70
q-24 -12 -63.5 -23.5t-84.5 -19t-86 -7.5zM178 136q-40 10 -72 36t-50.5 62t-18.5 76q0 63 29.5 105t76 63t98.5 21q23 0 49 -4t50 -12l-17 -77q-20 5 -42 8t-40 3q-36 0 -64 -13t-44 -35.5t-16 -52.5q0 -27 15.5 -48.5t39.5 -37t49 -23t44 -6.5zM242 602q-21 0 -35.5 14.5
t-14.5 34.5t14.5 35t35.5 15q20 0 34.5 -15t14.5 -35t-14.5 -34.5t-34.5 -14.5z" />
    <glyph glyph-name="uni0641" unicode="&#x641;" horiz-adv-x="983" arabic-form="isolated" 
d="M390 -21l26 82h124.5t119.5 2t96.5 7t56.5 15q29 19 38 59.5t9 116.5q0 31 -6 59.5t-18 50.5t-28.5 35t-37.5 13q-23 0 -41.5 -17.5t-29 -44.5t-10.5 -54q0 -21 8.5 -36t28.5 -23.5t52 -8.5q29 0 58.5 6t50.5 16l4 -70q-16 -11 -36 -18t-42 -10t-44 -3q-51 0 -86.5 14
t-54 42t-18.5 71q0 38 12 76.5t34 70.5t53 51.5t69 19.5q54 0 89.5 -35t53 -91.5t17.5 -119.5q0 -50 -6 -92.5t-20 -75.5t-38 -57q-19 -19 -66.5 -29.5t-114.5 -15t-145 -5.5t-158 -1zM390 -21q-89 0 -156.5 11.5t-112.5 35.5t-68 62.5t-23 93.5q0 25 4 51.5t10.5 53.5
t13.5 52l75 -19q-4 -15 -9 -35.5t-8.5 -41.5t-3.5 -38q0 -52 26.5 -83.5t92.5 -46t185 -14.5l20 -50zM759 604q-21 0 -35.5 14.5t-14.5 34.5t14.5 35t35.5 15q20 0 34.5 -15t14.5 -35t-14.5 -34.5t-34.5 -14.5z" />
    <glyph glyph-name="uni0642" unicode="&#x642;" horiz-adv-x="774" arabic-form="isolated" 
d="M326 -188q-60 0 -113 13.5t-94.5 42t-65 73.5t-23.5 108q0 15 3.5 42.5t15.5 66.5t38 86l73 -34q-15 -31 -25 -56.5t-14.5 -47t-4.5 -42.5q0 -47 18 -79t50 -51.5t74 -28.5t90 -9q58 0 105.5 11t83.5 30.5t60 45.5t34 57q10 30 15 65.5t5 70.5q0 42 -11 78t-31 58t-48 22
q-23 0 -41.5 -17.5t-29 -44.5t-10.5 -54q0 -21 8.5 -36t28.5 -23.5t52 -8.5q29 0 58.5 6t50.5 16l4 -70q-24 -17 -56.5 -24t-65.5 -7q-51 0 -86.5 14t-54 42t-18.5 71q0 38 12 76.5t34 70.5t53 51.5t69 19.5q54 0 89.5 -35t53 -91.5t17.5 -119.5q0 -49 -8.5 -97.5
t-29.5 -89.5q-24 -47 -61 -79.5t-84.5 -53t-102.5 -29.5t-117 -9zM620 519q-21 0 -35.5 14.5t-14.5 34.5t14.5 35t35.5 15q20 0 34.5 -15t14.5 -35t-14.5 -34.5t-34.5 -14.5zM483 519q-21 0 -35.5 14.5t-14.5 34.5t14.5 35t35.5 15q20 0 34.5 -15t14.5 -35t-14.5 -34.5
t-34.5 -14.5z" />
    <glyph glyph-name="uni0643" unicode="&#x643;" horiz-adv-x="882" arabic-form="isolated" 
d="M390 -21l26 82q99 0 163 7.5t99.5 24t49 43t11.5 64.5l-19 514h81l20 -505q2 -53 -13 -95.5t-60 -72.5t-131 -46t-227 -16zM390 -21q-89 0 -156.5 11.5t-112.5 35.5t-68 62.5t-23 93.5q0 25 4 51.5t10.5 53.5t13.5 52l75 -19q-4 -15 -9 -35.5t-8.5 -41.5t-3.5 -38
q0 -52 26.5 -83.5t92.5 -46t185 -14.5l20 -50zM364 204l-19 63q42 11 68 19t37.5 15.5t11.5 15.5q0 11 -11.5 20.5t-26 20t-26 24.5t-11.5 34q0 18 10.5 37.5t37.5 41t76 45.5l31 -57q-46 -22 -67.5 -37.5t-21.5 -27.5q0 -9 11.5 -19t26 -22t26 -27.5t11.5 -36.5
q0 -14 -6 -27.5t-23.5 -27t-49.5 -27t-85 -27.5z" />
    <glyph glyph-name="uni0644" unicode="&#x644;" horiz-adv-x="695" arabic-form="isolated" 
d="M30 -1q0 24 4.5 51.5t14 59t23.5 66.5l72 -28q-10 -28 -17.5 -53t-11 -47t-3.5 -42q0 -48 25.5 -83t70.5 -54t105 -19q73 0 120.5 21t74 64t35.5 109.5t6 156.5l-19 513h83l17 -534q2 -67 -5.5 -128.5t-28.5 -113t-58 -90t-93 -59.5t-135 -21q-53 0 -103 14t-90 42
t-63.5 71.5t-23.5 103.5z" />
    <glyph glyph-name="uni0645" unicode="&#x645;" horiz-adv-x="484" arabic-form="isolated" 
d="M74 -393q-17 66 -29.5 129t-18.5 116t-6 87q0 61 22 101.5t59 63t82.5 30.5t94 5.5t91.5 -12.5q3 34 -3.5 65.5t-21 56t-36.5 38.5t-50 14q-25 0 -47 -11t-41.5 -33.5t-37.5 -55.5l-62 34q26 54 57.5 86t66.5 46.5t69 14.5q51 0 86 -21.5t55.5 -56t30 -74t9.5 -75.5
q0 -25 -6 -50t-14.5 -45t-16.5 -31q-54 16 -101 23t-84.5 4.5t-64.5 -16.5t-41 -40t-14 -66q0 -37 6 -88t17 -107.5t26 -111.5z" />
    <glyph glyph-name="uni0646" unicode="&#x646;" horiz-adv-x="685" arabic-form="isolated" 
d="M30 -1q0 24 4.5 51.5t14 59t23.5 66.5l72 -28q-10 -28 -17.5 -53t-11 -47t-3.5 -42q0 -52 27 -86t74 -51t106 -17q67 0 112.5 18t72.5 47.5t38.5 65.5t11.5 71q0 38 -14.5 92t-53.5 134l75 38q20 -38 36.5 -79.5t27 -85t10.5 -88.5q0 -39 -9.5 -80t-31.5 -79.5t-58.5 -69
t-90 -48.5t-127.5 -18q-58 0 -110.5 13.5t-92 41.5t-62.5 71t-23 103zM332 398q-21 0 -35.5 14.5t-14.5 34.5t14.5 35t35.5 15q20 0 34.5 -15t14.5 -35t-14.5 -34.5t-34.5 -14.5z" />
    <glyph glyph-name="uni0648" unicode="&#x648;" horiz-adv-x="447" arabic-form="isolated" 
d="M58 -230l-18 82q60 8 110.5 22.5t87 41.5t56.5 71t20 110q0 31 -6 59.5t-18 50.5t-28.5 35t-37.5 13q-23 0 -41.5 -17.5t-29 -44.5t-10.5 -54q0 -21 8.5 -36.5t28.5 -23.5t52 -8q29 0 58.5 6t50.5 16l4 -70q-24 -17 -56.5 -24t-65.5 -7q-38 0 -67.5 8t-50 23.5t-31 39.5
t-10.5 56q0 38 12 76.5t34 70.5t53 51.5t69 19.5q40 0 70 -20.5t50 -55.5t30 -79t10 -91q0 -93 -37.5 -160.5t-112 -107.5t-184.5 -53z" />
    <glyph glyph-name="uni0649" unicode="&#x649;" horiz-adv-x="760" arabic-form="isolated" 
d="M30 -1q0 24 4.5 51.5t14 59t23.5 66.5l72 -28q-10 -28 -17.5 -53t-11 -47t-3.5 -42q0 -39 16.5 -68t46.5 -48.5t70 -29.5t86 -10q72 0 126 15.5t90 39.5t53.5 50t17.5 46q0 14 -17 25t-44 21t-57 21.5t-57 27.5t-44 38.5t-17 53.5q0 41 20.5 81.5t56 74.5t79.5 54.5
t91 20.5q42 0 72 -11.5t43 -21.5l-33 -71q-17 8 -38 15t-44 7q-29 0 -58.5 -12t-54 -32t-39.5 -44t-15 -48q0 -17 17.5 -31t45.5 -26t59.5 -24.5t59.5 -27t45.5 -33.5t17.5 -45q0 -37 -25 -80t-74 -80.5t-119.5 -61.5t-162.5 -24q-63 0 -116.5 14t-94 42.5t-63 72
t-22.5 102.5z" />
    <glyph glyph-name="uni064A" unicode="&#x64a;" horiz-adv-x="760" arabic-form="isolated" 
d="M30 -1q0 24 4.5 51.5t14 59t23.5 66.5l72 -28q-10 -28 -17.5 -53t-11 -47t-3.5 -42q0 -39 16.5 -68t46.5 -48.5t70 -29.5t86 -10q72 0 126 15.5t90 39.5t53.5 50t17.5 46q0 14 -17 25t-44 21t-57 21.5t-57 27.5t-44 38.5t-17 53.5q0 41 20.5 81.5t56 74.5t79.5 54.5
t91 20.5q42 0 72 -11.5t43 -21.5l-33 -71q-17 8 -38 15t-44 7q-29 0 -58.5 -12t-54 -32t-39.5 -44t-15 -48q0 -17 17.5 -31t45.5 -26t59.5 -24.5t59.5 -27t45.5 -33.5t17.5 -45q0 -37 -25 -80t-74 -80.5t-119.5 -61.5t-162.5 -24q-63 0 -116.5 14t-94 42.5t-63 72
t-22.5 102.5zM428 -421q-21 0 -35.5 14.5t-14.5 34.5t14.5 35t35.5 15q20 0 34.5 -15t14.5 -35t-14.5 -34.5t-34.5 -14.5zM291 -421q-21 0 -35.5 14.5t-14.5 34.5t14.5 35t35.5 15q20 0 34.5 -15t14.5 -35t-14.5 -34.5t-34.5 -14.5z" />
    <glyph glyph-name="uni0671" unicode="&#x671;" horiz-adv-x="235" arabic-form="isolated" 
d="M89 0l-17 644h81l17 -644h-81zM130 731q-22 0 -52.5 2t-57.5 5.5t-41 5.5l7 51q15 -2 40 -5t53 -5t51 -2q57 0 74.5 13t17.5 32q0 20 -12 29t-27 9q-17 0 -33 -10.5t-30.5 -30t-29.5 -46.5l-54 1q14 31 34.5 63.5t49.5 54.5t67 22q32 0 60.5 -20t28.5 -67
q0 -24 -12 -47.5t-43.5 -39t-90.5 -15.5z" />
    <glyph glyph-name="uni0677" unicode="&#x677;" horiz-adv-x="858" arabic-form="isolated" 
d="M613 198q-21 6 -40.5 18.5t-35 31.5t-24.5 43.5t-9 52.5q0 51 23.5 87.5t62 55.5t84.5 19q17 0 37 -3.5t38 -8.5l-13 -75q-15 4 -32 6.5t-30 2.5q-30 0 -50.5 -11.5t-30.5 -30.5t-10 -42q0 -32 19 -57.5t46 -40.5t52 -15zM487 93l-23 76q40 9 95.5 25t116.5 36.5
t117 43.5l30 -73q-29 -12 -72.5 -27.5t-92 -31t-93.5 -29t-78 -20.5zM58 -230l-18 82q60 8 110.5 22.5t87 41.5t56.5 71t20 110q0 31 -6 59.5t-18 50.5t-28.5 35t-37.5 13q-23 0 -41.5 -17.5t-29 -44.5t-10.5 -54q0 -21 8.5 -36.5t28.5 -23.5t52 -8q29 0 58.5 6t50.5 16
l4 -70q-24 -17 -56.5 -24t-65.5 -7q-38 0 -67.5 8t-50 23.5t-31 39.5t-10.5 56q0 38 12 76.5t34 70.5t53 51.5t69 19.5q40 0 70 -20.5t50 -55.5t30 -79t10 -91q0 -93 -37.5 -160.5t-112 -107.5t-184.5 -53zM205 412l-39 39q46 25 59.5 59t-1.5 79l63 -18q-12 -14 -27 -21.5
t-33 -7.5q-27 0 -45 13t-18 37q0 12 6.5 26.5t20.5 24.5t38 10q29 0 49 -20.5t20 -63.5q0 -25 -9.5 -55.5t-30 -58t-53.5 -43.5z" />
    <glyph glyph-name="uni0679" unicode="&#x679;" horiz-adv-x="993" arabic-form="isolated" 
d="M390 -21l26 82q117 0 201.5 6t139 19.5t81 37t26.5 57.5q0 38 -14 88t-36 107l77 27q13 -32 24.5 -68.5t19.5 -72t8 -65.5q0 -59 -27 -100.5t-90 -67.5t-169.5 -38t-266.5 -12zM390 -21q-89 0 -156.5 11.5t-112.5 35.5t-68 62.5t-23 93.5q0 25 4 51.5t10.5 53.5t13.5 52
l75 -19q-4 -15 -9 -35.5t-8.5 -41.5t-3.5 -38q0 -52 26.5 -83.5t92.5 -46t185 -14.5l20 -50zM488 427q-18 0 -42.5 1.5t-46.5 3.5l-33 3l2 58q20 -2 52.5 -5t60.5 -3q33 0 53.5 4.5t30 13.5t9.5 20q0 14 -9 20t-23 6q-20 0 -39 -13.5t-33.5 -30t-21.5 -26.5l-56 4
q17 33 42 61.5t55 46t61 17.5q38 0 60 -23t22 -57q0 -20 -11.5 -43.5t-42.5 -40.5t-90 -17zM419 493l-6 193h55l8 -167z" />
    <glyph glyph-name="uni067A" unicode="&#x67a;" horiz-adv-x="993" arabic-form="isolated" 
d="M390 -21l26 82q117 0 201.5 6t139 19.5t81 37t26.5 57.5q0 38 -14 88t-36 107l77 27q13 -32 24.5 -68.5t19.5 -72t8 -65.5q0 -59 -27 -100.5t-90 -67.5t-169.5 -38t-266.5 -12zM390 -21q-89 0 -156.5 11.5t-112.5 35.5t-68 62.5t-23 93.5q0 25 4 51.5t10.5 53.5t13.5 52
l75 -19q-4 -15 -9 -35.5t-8.5 -41.5t-3.5 -38q0 -52 26.5 -83.5t92.5 -46t185 -14.5l20 -50zM487 401q-21 0 -35.5 14.5t-14.5 34.5t14.5 35t35.5 15q20 0 34.5 -15t14.5 -35t-14.5 -34.5t-34.5 -14.5zM486 530q-21 0 -35.5 14.5t-14.5 34.5t14.5 35t35.5 15q20 0 34.5 -15
t14.5 -35t-14.5 -34.5t-34.5 -14.5z" />
    <glyph glyph-name="uni067B" unicode="&#x67b;" horiz-adv-x="993" arabic-form="isolated" 
d="M390 -21l26 82q117 0 201.5 6t139 19.5t81 37t26.5 57.5q0 38 -14 88t-36 107l77 27q13 -32 24.5 -68.5t19.5 -72t8 -65.5q0 -59 -27 -100.5t-90 -67.5t-169.5 -38t-266.5 -12zM390 -21q-89 0 -156.5 11.5t-112.5 35.5t-68 62.5t-23 93.5q0 25 4 51.5t10.5 53.5t13.5 52
l75 -19q-4 -15 -9 -35.5t-8.5 -41.5t-3.5 -38q0 -52 26.5 -83.5t92.5 -46t185 -14.5l20 -50zM486 -212q-21 0 -35.5 14.5t-14.5 34.5t14.5 35t35.5 15q20 0 34.5 -15t14.5 -35t-14.5 -34.5t-34.5 -14.5zM487 -341q-21 0 -35.5 14.5t-14.5 34.5t14.5 35t35.5 15
q20 0 34.5 -15t14.5 -35t-14.5 -34.5t-34.5 -14.5z" />
    <glyph glyph-name="uni067E" unicode="&#x67e;" horiz-adv-x="993" arabic-form="isolated" 
d="M390 -21l26 82q117 0 201.5 6t139 19.5t81 37t26.5 57.5q0 38 -14 88t-36 107l77 27q13 -32 24.5 -68.5t19.5 -72t8 -65.5q0 -59 -27 -100.5t-90 -67.5t-169.5 -38t-266.5 -12zM390 -21q-89 0 -156.5 11.5t-112.5 35.5t-68 62.5t-23 93.5q0 25 4 51.5t10.5 53.5t13.5 52
l75 -19q-4 -15 -9 -35.5t-8.5 -41.5t-3.5 -38q0 -52 26.5 -83.5t92.5 -46t185 -14.5l20 -50zM485 -325q-20 0 -34.5 15t-14.5 35t14.5 34.5t34.5 14.5q21 0 35.5 -14.5t14.5 -34.5t-14.5 -35t-35.5 -15zM553 -215q-20 0 -34.5 15t-14.5 35t14.5 34.5t34.5 14.5
q21 0 35.5 -14.5t14.5 -34.5t-14.5 -35t-35.5 -15zM417 -215q-20 0 -34.5 15t-14.5 35t14.5 34.5t34.5 14.5q21 0 35.5 -14.5t14.5 -34.5t-14.5 -35t-35.5 -15z" />
    <glyph glyph-name="uni067F" unicode="&#x67f;" horiz-adv-x="993" arabic-form="isolated" 
d="M390 -21l26 82q117 0 201.5 6t139 19.5t81 37t26.5 57.5q0 38 -14 88t-36 107l77 27q13 -32 24.5 -68.5t19.5 -72t8 -65.5q0 -59 -27 -100.5t-90 -67.5t-169.5 -38t-266.5 -12zM390 -21q-89 0 -156.5 11.5t-112.5 35.5t-68 62.5t-23 93.5q0 25 4 51.5t10.5 53.5t13.5 52
l75 -19q-4 -15 -9 -35.5t-8.5 -41.5t-3.5 -38q0 -52 26.5 -83.5t92.5 -46t185 -14.5l20 -50zM421 526q-21 0 -35.5 14.5t-14.5 34.5t14.5 35t35.5 15q20 0 34.5 -15t14.5 -35t-14.5 -34.5t-34.5 -14.5zM421 401q-21 0 -35.5 14.5t-14.5 34.5t14.5 35t35.5 15q20 0 34.5 -15
t14.5 -35t-14.5 -34.5t-34.5 -14.5zM557 526q-21 0 -35.5 14.5t-14.5 34.5t14.5 35t35.5 15q20 0 34.5 -15t14.5 -35t-14.5 -34.5t-34.5 -14.5zM557 401q-21 0 -35.5 14.5t-14.5 34.5t14.5 35t35.5 15q20 0 34.5 -15t14.5 -35t-14.5 -34.5t-34.5 -14.5z" />
    <glyph glyph-name="uni0680" unicode="&#x680;" horiz-adv-x="993" arabic-form="isolated" 
d="M390 -21l26 82q117 0 201.5 6t139 19.5t81 37t26.5 57.5q0 38 -14 88t-36 107l77 27q13 -32 24.5 -68.5t19.5 -72t8 -65.5q0 -59 -27 -100.5t-90 -67.5t-169.5 -38t-266.5 -12zM390 -21q-89 0 -156.5 11.5t-112.5 35.5t-68 62.5t-23 93.5q0 25 4 51.5t10.5 53.5t13.5 52
l75 -19q-4 -15 -9 -35.5t-8.5 -41.5t-3.5 -38q0 -52 26.5 -83.5t92.5 -46t185 -14.5l20 -50zM558 -337q-21 0 -35.5 14.5t-14.5 34.5t14.5 35t35.5 15q20 0 34.5 -15t14.5 -35t-14.5 -34.5t-34.5 -14.5zM422 -337q-21 0 -35.5 14.5t-14.5 34.5t14.5 35t35.5 15
q20 0 34.5 -15t14.5 -35t-14.5 -34.5t-34.5 -14.5zM558 -212q-21 0 -35.5 14.5t-14.5 34.5t14.5 35t35.5 15q20 0 34.5 -15t14.5 -35t-14.5 -34.5t-34.5 -14.5zM422 -212q-21 0 -35.5 14.5t-14.5 34.5t14.5 35t35.5 15q20 0 34.5 -15t14.5 -35t-14.5 -34.5t-34.5 -14.5z" />
    <glyph glyph-name="uni0683" unicode="&#x683;" horiz-adv-x="659" arabic-form="isolated" 
d="M380 -394q-70 0 -136.5 16t-119 49.5t-83.5 84.5t-31 120q0 58 19 110.5t54.5 99t85.5 85.5t112 69.5t133 51.5l-11 -13q-26 8 -53.5 17.5t-58 18t-67.5 13.5t-83 5q-30 0 -52.5 -5t-42.5 -10l-14 74q26 11 58.5 17.5t65.5 6.5q52 0 91.5 -8.5t74.5 -20.5t71.5 -24.5
t81.5 -21t106 -9.5h9l2 -82q-48 0 -103.5 -11t-111.5 -32t-107 -52t-91 -71.5t-63.5 -90t-23.5 -107.5q0 -52 25 -89.5t67.5 -61.5t96 -35t109.5 -11q49 0 100.5 10.5t100.5 29.5l28 -68q-58 -28 -119 -41.5t-120 -13.5zM419 -116q-21 0 -35.5 14.5t-14.5 34.5t14.5 35
t35.5 15q20 0 34.5 -15t14.5 -35t-14.5 -34.5t-34.5 -14.5zM282 -116q-21 0 -35.5 14.5t-14.5 34.5t14.5 35t35.5 15q20 0 34.5 -15t14.5 -35t-14.5 -34.5t-34.5 -14.5z" />
    <glyph glyph-name="uni0684" unicode="&#x684;" horiz-adv-x="639" arabic-form="isolated" 
d="M360 -394q-70 0 -133.5 16t-112 49.5t-76.5 84.5t-28 120q0 58 17 110.5t49.5 99t79.5 85.5t107 69.5t131 51.5l-11 -13q-26 8 -53 17.5t-56 18t-62 13.5t-71 5q-30 0 -52.5 -5t-42.5 -10l-14 74q26 11 58.5 17.5t65.5 6.5q46 0 82 -8.5t68.5 -21t68.5 -25t80.5 -21
t105.5 -8.5h9l2 -82q-48 0 -102 -11t-107.5 -32t-102.5 -52t-86.5 -71.5t-59.5 -90t-22 -107.5q0 -52 22 -89.5t60.5 -61.5t89 -35t106.5 -11q49 0 100.5 10.5t100.5 29.5l28 -68q-58 -28 -119 -41.5t-120 -13.5zM351 -180q-21 0 -35.5 14.5t-14.5 34.5t14.5 35t35.5 15
q20 0 34.5 -15t14.5 -35t-14.5 -34.5t-34.5 -14.5zM350 -52q-21 0 -35.5 14.5t-14.5 34.5t14.5 35t35.5 15q20 0 34.5 -15t14.5 -35t-14.5 -34.5t-34.5 -14.5z" />
    <glyph glyph-name="uni0686" unicode="&#x686;" horiz-adv-x="659" arabic-form="isolated" 
d="M380 -394q-70 0 -136.5 16t-119 49.5t-83.5 84.5t-31 120q0 58 19 110.5t54.5 99t85.5 85.5t112 69.5t133 51.5l-11 -13q-26 8 -53.5 17.5t-58 18t-67.5 13.5t-83 5q-30 0 -52.5 -5t-42.5 -10l-14 74q26 11 58.5 17.5t65.5 6.5q52 0 91.5 -8.5t74.5 -20.5t71.5 -24.5
t81.5 -21t106 -9.5h9l2 -82q-48 0 -103.5 -11t-111.5 -32t-107 -52t-91 -71.5t-63.5 -90t-23.5 -107.5q0 -52 25 -89.5t67.5 -61.5t96 -35t109.5 -11q49 0 100.5 10.5t100.5 29.5l28 -68q-58 -28 -119 -41.5t-120 -13.5zM351 -170q-21 0 -35.5 14.5t-14.5 34.5t14.5 35
t35.5 15q20 0 34.5 -15t14.5 -35t-14.5 -34.5t-34.5 -14.5zM283 -60q-21 0 -35.5 14.5t-14.5 34.5t14.5 35t35.5 15q20 0 34.5 -15t14.5 -35t-14.5 -34.5t-34.5 -14.5zM419 -60q-21 0 -35.5 14.5t-14.5 34.5t14.5 35t35.5 15q20 0 34.5 -15t14.5 -35t-14.5 -34.5
t-34.5 -14.5z" />
    <glyph glyph-name="uni0687" unicode="&#x687;" horiz-adv-x="659" arabic-form="isolated" 
d="M380 -394q-70 0 -136.5 16t-119 49.5t-83.5 84.5t-31 120q0 58 19 110.5t54.5 99t85.5 85.5t112 69.5t133 51.5l-11 -13q-26 8 -53.5 17.5t-58 18t-67.5 13.5t-83 5q-30 0 -52.5 -5t-42.5 -10l-14 74q26 11 58.5 17.5t65.5 6.5q52 0 91.5 -8.5t74.5 -20.5t71.5 -24.5
t81.5 -21t106 -9.5h9l2 -82q-48 0 -103.5 -11t-111.5 -32t-107 -52t-91 -71.5t-63.5 -90t-23.5 -107.5q0 -52 25 -89.5t67.5 -61.5t96 -35t109.5 -11q49 0 100.5 10.5t100.5 29.5l28 -68q-58 -28 -119 -41.5t-120 -13.5zM282 -53q-21 0 -35.5 14.5t-14.5 34.5t14.5 35
t35.5 15q20 0 34.5 -15t14.5 -35t-14.5 -34.5t-34.5 -14.5zM282 -178q-21 0 -35.5 14.5t-14.5 34.5t14.5 35t35.5 15q20 0 34.5 -15t14.5 -35t-14.5 -34.5t-34.5 -14.5zM418 -53q-21 0 -35.5 14.5t-14.5 34.5t14.5 35t35.5 15q20 0 34.5 -15t14.5 -35t-14.5 -34.5
t-34.5 -14.5zM418 -178q-21 0 -35.5 14.5t-14.5 34.5t14.5 35t35.5 15q20 0 34.5 -15t14.5 -35t-14.5 -34.5t-34.5 -14.5z" />
    <glyph glyph-name="uni0688" unicode="&#x688;" horiz-adv-x="477" arabic-form="isolated" 
d="M35 45l40 69q20 -13 56 -25t84 -12q50 0 79.5 10t43 29.5t13.5 45.5q0 20 -8.5 49.5t-36.5 80t-86 132.5l69 45q53 -73 84.5 -132t45 -103.5t13.5 -76.5q0 -40 -20 -77.5t-67 -61.5t-130 -24q-36 0 -69.5 6t-61.5 17.5t-49 27.5zM217 586q-18 0 -42.5 1.5t-46.5 3.5
l-33 3l2 58q20 -2 52.5 -5t60.5 -3q33 0 53.5 4.5t30 13.5t9.5 20q0 14 -9 20t-23 6q-20 0 -39 -13.5t-33.5 -30t-21.5 -26.5l-56 4q17 33 42 61.5t55 46t61 17.5q38 0 60 -23t22 -57q0 -20 -11.5 -43.5t-42.5 -40.5t-90 -17zM148 652l-6 193h55l8 -167z" />
    <glyph glyph-name="uni068C" unicode="&#x68c;" horiz-adv-x="477" arabic-form="isolated" 
d="M35 45l40 69q20 -13 56 -25t84 -12q50 0 79.5 10t43 29.5t13.5 45.5q0 20 -8.5 49.5t-36.5 80t-86 132.5l69 45q53 -73 84.5 -132t45 -103.5t13.5 -76.5q0 -40 -20 -77.5t-67 -61.5t-130 -24q-36 0 -69.5 6t-61.5 17.5t-49 27.5zM286 560q-21 0 -35.5 14.5t-14.5 34.5
t14.5 35t35.5 15q20 0 34.5 -15t14.5 -35t-14.5 -34.5t-34.5 -14.5zM149 560q-21 0 -35.5 14.5t-14.5 34.5t14.5 35t35.5 15q20 0 34.5 -15t14.5 -35t-14.5 -34.5t-34.5 -14.5z" />
    <glyph glyph-name="uni068D" unicode="&#x68d;" horiz-adv-x="477" arabic-form="isolated" 
d="M35 45l40 69q20 -13 56 -25t84 -12q50 0 79.5 10t43 29.5t13.5 45.5q0 20 -8.5 49.5t-36.5 80t-86 132.5l69 45q53 -73 84.5 -132t45 -103.5t13.5 -76.5q0 -40 -20 -77.5t-67 -61.5t-130 -24q-36 0 -69.5 6t-61.5 17.5t-49 27.5zM298 -194q-21 0 -35.5 14.5t-14.5 34.5
t14.5 35t35.5 15q20 0 34.5 -15t14.5 -35t-14.5 -34.5t-34.5 -14.5zM161 -194q-21 0 -35.5 14.5t-14.5 34.5t14.5 35t35.5 15q20 0 34.5 -15t14.5 -35t-14.5 -34.5t-34.5 -14.5z" />
    <glyph glyph-name="uni068E" unicode="&#x68e;" horiz-adv-x="477" arabic-form="isolated" 
d="M35 45l40 69q20 -13 56 -25t84 -12q50 0 79.5 10t43 29.5t13.5 45.5q0 20 -8.5 49.5t-36.5 80t-86 132.5l69 45q53 -73 84.5 -132t45 -103.5t13.5 -76.5q0 -40 -20 -77.5t-67 -61.5t-130 -24q-36 0 -69.5 6t-61.5 17.5t-49 27.5zM218 670q-21 0 -35.5 14.5t-14.5 34.5
t14.5 35t35.5 15q20 0 34.5 -15t14.5 -35t-14.5 -34.5t-34.5 -14.5zM150 560q-21 0 -35.5 14.5t-14.5 34.5t14.5 35t35.5 15q20 0 34.5 -15t14.5 -35t-14.5 -34.5t-34.5 -14.5zM286 560q-21 0 -35.5 14.5t-14.5 34.5t14.5 35t35.5 15q20 0 34.5 -15t14.5 -35t-14.5 -34.5
t-34.5 -14.5z" />
    <glyph glyph-name="uni0691" unicode="&#x691;" horiz-adv-x="367" arabic-form="isolated" 
d="M4 -230l-29 76q101 32 155.5 76.5t75 92.5t20.5 92q0 28 -6 54t-21 59t-42 82l73 37q38 -65 54.5 -123t16.5 -102q0 -63 -20.5 -114t-54 -90.5t-73 -67.5t-79 -46t-70.5 -26zM178 480q-18 0 -42.5 1.5t-46.5 3.5l-33 3l2 58q20 -2 52.5 -5t60.5 -3q33 0 53.5 4.5t30 13.5
t9.5 20q0 14 -9 20t-23 6q-20 0 -39 -13.5t-33.5 -30t-21.5 -26.5l-56 4q17 33 42 61.5t55 46t61 17.5q38 0 60 -23t22 -57q0 -20 -11.5 -43.5t-42.5 -40.5t-90 -17zM109 546l-6 193h55l8 -167z" />
    <glyph glyph-name="uni0698" unicode="&#x698;" horiz-adv-x="367" arabic-form="isolated" 
d="M4 -230l-29 76q101 32 155.5 76.5t75 92.5t20.5 92q0 28 -6 54t-21 59t-42 82l73 37q38 -65 54.5 -123t16.5 -102q0 -63 -20.5 -114t-54 -90.5t-73 -67.5t-79 -46t-70.5 -26zM179 564q-21 0 -35.5 14.5t-14.5 34.5t14.5 35t35.5 15q20 0 34.5 -15t14.5 -35t-14.5 -34.5
t-34.5 -14.5zM111 454q-21 0 -35.5 14.5t-14.5 34.5t14.5 35t35.5 15q20 0 34.5 -15t14.5 -35t-14.5 -34.5t-34.5 -14.5zM247 454q-21 0 -35.5 14.5t-14.5 34.5t14.5 35t35.5 15q20 0 34.5 -15t14.5 -35t-14.5 -34.5t-34.5 -14.5z" />
    <glyph glyph-name="uni06A4" unicode="&#x6a4;" horiz-adv-x="983" arabic-form="isolated" 
d="M390 -21l26 82h124.5t119.5 2t96.5 7t56.5 15q29 19 38 59.5t9 116.5q0 31 -6 59.5t-18 50.5t-28.5 35t-37.5 13q-23 0 -41.5 -17.5t-29 -44.5t-10.5 -54q0 -21 8.5 -36t28.5 -23.5t52 -8.5q29 0 58.5 6t50.5 16l4 -70q-16 -11 -36 -18t-42 -10t-44 -3q-51 0 -86.5 14
t-54 42t-18.5 71q0 38 12 76.5t34 70.5t53 51.5t69 19.5q54 0 89.5 -35t53 -91.5t17.5 -119.5q0 -50 -6 -92.5t-20 -75.5t-38 -57q-19 -19 -66.5 -29.5t-114.5 -15t-145 -5.5t-158 -1zM390 -21q-89 0 -156.5 11.5t-112.5 35.5t-68 62.5t-23 93.5q0 25 4 51.5t10.5 53.5
t13.5 52l75 -19q-4 -15 -9 -35.5t-8.5 -41.5t-3.5 -38q0 -52 26.5 -83.5t92.5 -46t185 -14.5l20 -50zM761 714q-21 0 -35.5 14.5t-14.5 34.5t14.5 35t35.5 15q20 0 34.5 -15t14.5 -35t-14.5 -34.5t-34.5 -14.5zM693 604q-21 0 -35.5 14.5t-14.5 34.5t14.5 35t35.5 15
q20 0 34.5 -15t14.5 -35t-14.5 -34.5t-34.5 -14.5zM829 604q-21 0 -35.5 14.5t-14.5 34.5t14.5 35t35.5 15q20 0 34.5 -15t14.5 -35t-14.5 -34.5t-34.5 -14.5z" />
    <glyph glyph-name="uni06A6" unicode="&#x6a6;" horiz-adv-x="983" arabic-form="isolated" 
d="M390 -21l26 82h124.5t119.5 2t96.5 7t56.5 15q29 19 38 59.5t9 116.5q0 31 -6 59.5t-18 50.5t-28.5 35t-37.5 13q-23 0 -41.5 -17.5t-29 -44.5t-10.5 -54q0 -21 8.5 -36t28.5 -23.5t52 -8.5q29 0 58.5 6t50.5 16l4 -70q-16 -11 -36 -18t-42 -10t-44 -3q-51 0 -86.5 14
t-54 42t-18.5 71q0 38 12 76.5t34 70.5t53 51.5t69 19.5q54 0 89.5 -35t53 -91.5t17.5 -119.5q0 -50 -6 -92.5t-20 -75.5t-38 -57q-19 -19 -66.5 -29.5t-114.5 -15t-145 -5.5t-158 -1zM390 -21q-89 0 -156.5 11.5t-112.5 35.5t-68 62.5t-23 93.5q0 25 4 51.5t10.5 53.5
t13.5 52l75 -19q-4 -15 -9 -35.5t-8.5 -41.5t-3.5 -38q0 -52 26.5 -83.5t92.5 -46t185 -14.5l20 -50zM693 729q-21 0 -35.5 14.5t-14.5 34.5t14.5 35t35.5 15q20 0 34.5 -15t14.5 -35t-14.5 -34.5t-34.5 -14.5zM693 604q-21 0 -35.5 14.5t-14.5 34.5t14.5 35t35.5 15
q20 0 34.5 -15t14.5 -35t-14.5 -34.5t-34.5 -14.5zM829 729q-21 0 -35.5 14.5t-14.5 34.5t14.5 35t35.5 15q20 0 34.5 -15t14.5 -35t-14.5 -34.5t-34.5 -14.5zM829 604q-21 0 -35.5 14.5t-14.5 34.5t14.5 35t35.5 15q20 0 34.5 -15t14.5 -35t-14.5 -34.5t-34.5 -14.5z" />
    <glyph glyph-name="uni06A9" unicode="&#x6a9;" horiz-adv-x="877" arabic-form="isolated" 
d="M390 -21l26 82q98 0 161.5 6t99 17t50 27.5t14.5 37.5q0 23 -17.5 57t-71.5 88q-28 28 -56 51.5t-51.5 42t-37.5 31.5t-14 20q0 15 2.5 29t7 26t11.5 19q20 21 51.5 42t74 44t96 49.5t117.5 58.5l34 -74q-80 -38 -133.5 -64.5t-90.5 -47t-65 -38.5t-57 -40l15 38
q63 -50 111.5 -94t81.5 -84.5t50 -79.5t17 -79q0 -23 -7 -47t-30.5 -45t-69.5 -37.5t-124 -26t-195 -9.5zM390 -21q-89 0 -156.5 11.5t-112.5 35.5t-68 62.5t-23 93.5q0 25 4 51.5t10.5 53.5t13.5 52l75 -19q-4 -15 -9 -35.5t-8.5 -41.5t-3.5 -38q0 -52 26.5 -83.5t92.5 -46
t185 -14.5l20 -50z" />
    <glyph glyph-name="uni06AD" unicode="&#x6ad;" horiz-adv-x="882" arabic-form="isolated" 
d="M390 -21l26 82q99 0 163 7.5t99.5 24t49 43t11.5 64.5l-19 514h81l20 -505q2 -53 -13 -95.5t-60 -72.5t-131 -46t-227 -16zM390 -21q-89 0 -156.5 11.5t-112.5 35.5t-68 62.5t-23 93.5q0 25 4 51.5t10.5 53.5t13.5 52l75 -19q-4 -15 -9 -35.5t-8.5 -41.5t-3.5 -38
q0 -52 26.5 -83.5t92.5 -46t185 -14.5l20 -50zM364 204l-19 63q42 11 68 19t37.5 15.5t11.5 15.5q0 11 -11.5 20.5t-26 20t-26 24.5t-11.5 34q0 18 10.5 37.5t37.5 41t76 45.5l31 -57q-46 -22 -67.5 -37.5t-21.5 -27.5q0 -9 11.5 -19t26 -22t26 -27.5t11.5 -36.5
q0 -14 -6 -27.5t-23.5 -27t-49.5 -27t-85 -27.5zM469 741q-21 0 -35.5 14.5t-14.5 34.5t14.5 35t35.5 15q20 0 34.5 -15t14.5 -35t-14.5 -34.5t-34.5 -14.5zM401 631q-21 0 -35.5 14.5t-14.5 34.5t14.5 35t35.5 15q20 0 34.5 -15t14.5 -35t-14.5 -34.5t-34.5 -14.5zM537 631
q-21 0 -35.5 14.5t-14.5 34.5t14.5 35t35.5 15q20 0 34.5 -15t14.5 -35t-14.5 -34.5t-34.5 -14.5z" />
    <glyph glyph-name="uni06AF" unicode="&#x6af;" horiz-adv-x="877" arabic-form="isolated" 
d="M390 -21l26 82q98 0 161.5 6t99 17t50 27.5t14.5 37.5q0 23 -17.5 57t-71.5 88q-28 28 -56 51.5t-51.5 42t-37.5 31.5t-14 20q0 15 2.5 29t7 26t11.5 19q20 21 51.5 42t74 44t96 49.5t117.5 58.5l34 -74q-80 -38 -133.5 -64.5t-90.5 -47t-65 -38.5t-57 -40l15 38
q63 -50 111.5 -94t81.5 -84.5t50 -79.5t17 -79q0 -23 -7 -47t-30.5 -45t-69.5 -37.5t-124 -26t-195 -9.5zM390 -21q-89 0 -156.5 11.5t-112.5 35.5t-68 62.5t-23 93.5q0 25 4 51.5t10.5 53.5t13.5 52l75 -19q-4 -15 -9 -35.5t-8.5 -41.5t-3.5 -38q0 -52 26.5 -83.5t92.5 -46
t185 -14.5l20 -50zM503 575l-36 56q39 24 89.5 54t111.5 64.5t133 71.5l28 -61q-73 -38 -132.5 -71.5t-107 -61.5t-86.5 -52z" />
    <glyph glyph-name="uni06B1" unicode="&#x6b1;" horiz-adv-x="877" arabic-form="isolated" 
d="M390 -21l26 82q98 0 161.5 6t99 17t50 27.5t14.5 37.5q0 23 -17.5 57t-71.5 88q-28 28 -56 51.5t-51.5 42t-37.5 31.5t-14 20q0 15 2.5 29t7 26t11.5 19q20 21 51.5 42t74 44t96 49.5t117.5 58.5l34 -74q-80 -38 -133.5 -64.5t-90.5 -47t-65 -38.5t-57 -40l15 38
q63 -50 111.5 -94t81.5 -84.5t50 -79.5t17 -79q0 -23 -7 -47t-30.5 -45t-69.5 -37.5t-124 -26t-195 -9.5zM390 -21q-89 0 -156.5 11.5t-112.5 35.5t-68 62.5t-23 93.5q0 25 4 51.5t10.5 53.5t13.5 52l75 -19q-4 -15 -9 -35.5t-8.5 -41.5t-3.5 -38q0 -52 26.5 -83.5t92.5 -46
t185 -14.5l20 -50zM503 575l-36 56q39 24 89.5 54t111.5 64.5t133 71.5l28 -61q-73 -38 -132.5 -71.5t-107 -61.5t-86.5 -52zM674 834q-21 0 -35.5 14.5t-14.5 34.5t14.5 35t35.5 15q20 0 34.5 -15t14.5 -35t-14.5 -34.5t-34.5 -14.5zM559 781q-21 0 -35.5 14.5t-14.5 34.5
t14.5 35t35.5 15q20 0 34.5 -15t14.5 -35t-14.5 -34.5t-34.5 -14.5z" />
    <glyph glyph-name="uni06B3" unicode="&#x6b3;" horiz-adv-x="877" arabic-form="isolated" 
d="M390 -21l26 82q98 0 161.5 6t99 17t50 27.5t14.5 37.5q0 23 -17.5 57t-71.5 88q-28 28 -56 51.5t-51.5 42t-37.5 31.5t-14 20q0 15 2.5 29t7 26t11.5 19q20 21 51.5 42t74 44t96 49.5t117.5 58.5l34 -74q-80 -38 -133.5 -64.5t-90.5 -47t-65 -38.5t-57 -40l15 38
q63 -50 111.5 -94t81.5 -84.5t50 -79.5t17 -79q0 -23 -7 -47t-30.5 -45t-69.5 -37.5t-124 -26t-195 -9.5zM390 -21q-89 0 -156.5 11.5t-112.5 35.5t-68 62.5t-23 93.5q0 25 4 51.5t10.5 53.5t13.5 52l75 -19q-4 -15 -9 -35.5t-8.5 -41.5t-3.5 -38q0 -52 26.5 -83.5t92.5 -46
t185 -14.5l20 -50zM503 575l-36 56q39 24 89.5 54t111.5 64.5t133 71.5l28 -61q-73 -38 -132.5 -71.5t-107 -61.5t-86.5 -52zM410 -208q-21 0 -35.5 14.5t-14.5 34.5t14.5 35t35.5 15q20 0 34.5 -15t14.5 -35t-14.5 -34.5t-34.5 -14.5zM411 -337q-21 0 -35.5 14.5
t-14.5 34.5t14.5 35t35.5 15q20 0 34.5 -15t14.5 -35t-14.5 -34.5t-34.5 -14.5z" />
    <glyph glyph-name="uni06BA" unicode="&#x6ba;" horiz-adv-x="685" arabic-form="isolated" 
d="M30 -1q0 24 4.5 51.5t14 59t23.5 66.5l72 -28q-10 -28 -17.5 -53t-11 -47t-3.5 -42q0 -52 27 -86t74 -51t106 -17q67 0 112.5 18t72.5 47.5t38.5 65.5t11.5 71q0 38 -14.5 92t-53.5 134l75 38q20 -38 36.5 -79.5t27 -85t10.5 -88.5q0 -39 -9.5 -80t-31.5 -79.5t-58.5 -69
t-90 -48.5t-127.5 -18q-58 0 -110.5 13.5t-92 41.5t-62.5 71t-23 103z" />
    <glyph glyph-name="uni06BB" unicode="&#x6bb;" horiz-adv-x="685" arabic-form="isolated" 
d="M30 -1q0 24 4.5 51.5t14 59t23.5 66.5l72 -28q-10 -28 -17.5 -53t-11 -47t-3.5 -42q0 -52 27 -86t74 -51t106 -17q67 0 112.5 18t72.5 47.5t38.5 65.5t11.5 71q0 38 -14.5 92t-53.5 134l75 38q20 -38 36.5 -79.5t27 -85t10.5 -88.5q0 -39 -9.5 -80t-31.5 -79.5t-58.5 -69
t-90 -48.5t-127.5 -18q-58 0 -110.5 13.5t-92 41.5t-62.5 71t-23 103zM333 424q-18 0 -42.5 1.5t-46.5 3.5l-33 3l2 58q20 -2 52.5 -5t60.5 -3q33 0 53.5 4.5t30 13.5t9.5 20q0 14 -9 20t-23 6q-20 0 -39 -13.5t-33.5 -30t-21.5 -26.5l-56 4q17 33 42 61.5t55 46t61 17.5
q38 0 60 -23t22 -57q0 -20 -11.5 -43.5t-42.5 -40.5t-90 -17zM264 490l-6 193h55l8 -167z" />
    <glyph glyph-name="uni06BE" unicode="&#x6be;" horiz-adv-x="672" arabic-form="isolated" 
d="M483 -8q-41 0 -84 11t-82.5 32t-71 51t-50 68.5t-18.5 83.5t18.5 83t52.5 61.5t78 23.5q47 0 79.5 -24.5t50 -63t17.5 -79.5q0 -47 -21.5 -86t-57 -69t-79 -50.5t-87 -31t-81.5 -10.5q-49 0 -81.5 12t-50.5 19l23 67q17 -5 44.5 -12t64.5 -7q30 0 55.5 4t47.5 11t40 16
q58 29 83.5 72.5t25.5 75.5q0 21 -8.5 40.5t-24 32t-37.5 12.5t-39.5 -12.5t-27.5 -32.5t-10 -42q0 -42 21.5 -74.5t56 -55.5t74 -35t75.5 -12q34 0 50 11.5t16 38.5q0 5 -2.5 18.5t-16 37.5t-45.5 59.5t-90 85t-150 115.5l47 62q96 -70 158.5 -123.5t99 -93t54 -69
t22.5 -52t5 -42.5q0 -33 -14.5 -62t-46 -47t-83.5 -18z" />
    <glyph glyph-name="uni06C0" unicode="&#x6c0;" horiz-adv-x="405" arabic-form="isolated" 
d="M202 0q-49 0 -88 17t-61.5 52t-22.5 89q0 43 33 107.5t115 136.5l19 -54l-68 61l52 62q52 -41 96 -88t71 -100t27 -112q0 -23 -8 -52t-27 -56.5t-53 -45t-85 -17.5zM202 82q34 0 56.5 11.5t34 32.5t11.5 49q0 25 -8.5 52.5t-34 60t-77.5 73.5l44 2q-37 -32 -64 -67.5
t-41 -69t-14 -60.5q0 -42 26.5 -63t66.5 -21zM117 517l-12 54q26 6 42 10l36 9l-5 -21q-26 8 -49.5 34t-23.5 59q0 30 14.5 50.5t38 30.5t50.5 10q11 0 23.5 -2t23.5 -6l-8 -50q-10 2 -19 4t-20 2q-23 0 -36 -9.5t-13 -26.5q0 -21 13.5 -36t31 -23.5t28.5 -8.5l-41 -4
q27 7 50.5 14.5t42.5 14.5l16 -51q-24 -9 -56.5 -19t-65.5 -19t-61 -16z" />
    <glyph glyph-name="uni06C1" unicode="&#x6c1;" horiz-adv-x="405" arabic-form="isolated" 
d="M202 0q-49 0 -88 17t-61.5 52t-22.5 89q0 43 33 107.5t115 136.5l19 -54l-68 61l52 62q52 -41 96 -88t71 -100t27 -112q0 -23 -8 -52t-27 -56.5t-53 -45t-85 -17.5zM202 82q34 0 56.5 11.5t34 32.5t11.5 49q0 25 -8.5 52.5t-34 60t-77.5 73.5l44 2q-37 -32 -64 -67.5
t-41 -69t-14 -60.5q0 -42 26.5 -63t66.5 -21z" />
    <glyph glyph-name="uni06C5" unicode="&#x6c5;" horiz-adv-x="447" arabic-form="isolated" 
d="M70 -231h-12t-12 1l-6 78q60 2 110.5 13.5t87 38.5t56.5 74.5t20 122.5q0 31 -6 59.5t-18 50.5t-28.5 35t-37.5 13q-23 0 -41.5 -17.5t-29 -44.5t-10.5 -54q0 -21 8.5 -36.5t28.5 -23.5t52 -8q29 0 58.5 6t50.5 16l4 -70q-24 -17 -56.5 -24t-65.5 -7q-51 0 -86.5 14
t-54 42t-18.5 71q0 38 12 76.5t34 70.5t53 51.5t69 19.5q54 0 89.5 -35t53 -91.5t17.5 -119.5q0 -60 -14 -110.5t-40.5 -89.5t-65.5 -66.5t-89.5 -41.5t-112.5 -14zM53 -100v59h283v-59h-283z" />
    <glyph glyph-name="uni06C6" unicode="&#x6c6;" horiz-adv-x="447" arabic-form="isolated" 
d="M58 -230l-18 82q60 8 110.5 22.5t87 41.5t56.5 71t20 110q0 31 -6 59.5t-18 50.5t-28.5 35t-37.5 13q-23 0 -41.5 -17.5t-29 -44.5t-10.5 -54q0 -21 8.5 -36.5t28.5 -23.5t52 -8q29 0 58.5 6t50.5 16l4 -70q-24 -17 -56.5 -24t-65.5 -7q-38 0 -67.5 8t-50 23.5t-31 39.5
t-10.5 56q0 38 12 76.5t34 70.5t53 51.5t69 19.5q40 0 70 -20.5t50 -55.5t30 -79t10 -91q0 -93 -37.5 -160.5t-112 -107.5t-184.5 -53zM204 471q-7 15 -17.5 38t-23 48.5t-25 49t-21.5 39.5l46 25q6 -10 17 -30t23 -43t22.5 -45t17.5 -37l20 -39zM263 477l-44 16
q6 17 17.5 44t24.5 55.5t23.5 50.5t14.5 30l45 -19q-5 -10 -16 -32.5t-23.5 -50t-24 -53t-17.5 -41.5z" />
    <glyph glyph-name="uni06C7" unicode="&#x6c7;" horiz-adv-x="447" arabic-form="isolated" 
d="M58 -230l-18 82q60 8 110.5 22.5t87 41.5t56.5 71t20 110q0 31 -6 59.5t-18 50.5t-28.5 35t-37.5 13q-23 0 -41.5 -17.5t-29 -44.5t-10.5 -54q0 -21 8.5 -36.5t28.5 -23.5t52 -8q29 0 58.5 6t50.5 16l4 -70q-24 -17 -56.5 -24t-65.5 -7q-38 0 -67.5 8t-50 23.5t-31 39.5
t-10.5 56q0 38 12 76.5t34 70.5t53 51.5t69 19.5q40 0 70 -20.5t50 -55.5t30 -79t10 -91q0 -93 -37.5 -160.5t-112 -107.5t-184.5 -53zM205 412l-39 39q46 25 59.5 59t-1.5 79l63 -18q-12 -14 -27 -21.5t-33 -7.5q-27 0 -45 13t-18 37q0 12 6.5 26.5t20.5 24.5t38 10
q29 0 49 -20.5t20 -63.5q0 -25 -9.5 -55.5t-30 -58t-53.5 -43.5z" />
    <glyph glyph-name="uni06C8" unicode="&#x6c8;" horiz-adv-x="447" arabic-form="isolated" 
d="M58 -230l-18 82q60 8 110.5 22.5t87 41.5t56.5 71t20 110q0 31 -6 59.5t-18 50.5t-28.5 35t-37.5 13q-23 0 -41.5 -17.5t-29 -44.5t-10.5 -54q0 -21 8.5 -36.5t28.5 -23.5t52 -8q29 0 58.5 6t50.5 16l4 -70q-24 -17 -56.5 -24t-65.5 -7q-38 0 -67.5 8t-50 23.5t-31 39.5
t-10.5 56q0 38 12 76.5t34 70.5t53 51.5t69 19.5q40 0 70 -20.5t50 -55.5t30 -79t10 -91q0 -93 -37.5 -160.5t-112 -107.5t-184.5 -53zM205 480l-6 173h55l6 -173h-55z" />
    <glyph glyph-name="uni06C9" unicode="&#x6c9;" horiz-adv-x="447" arabic-form="isolated" 
d="M58 -230l-18 82q60 8 110.5 22.5t87 41.5t56.5 71t20 110q0 31 -6 59.5t-18 50.5t-28.5 35t-37.5 13q-23 0 -41.5 -17.5t-29 -44.5t-10.5 -54q0 -21 8.5 -36.5t28.5 -23.5t52 -8q29 0 58.5 6t50.5 16l4 -70q-24 -17 -56.5 -24t-65.5 -7q-38 0 -67.5 8t-50 23.5t-31 39.5
t-10.5 56q0 38 12 76.5t34 70.5t53 51.5t69 19.5q40 0 70 -20.5t50 -55.5t30 -79t10 -91q0 -93 -37.5 -160.5t-112 -107.5t-184.5 -53zM257 665q7 -15 17.5 -38t23 -48.5t25 -49t21.5 -39.5l-46 -25q-6 10 -17 30t-23 43t-22.5 45t-17.5 37l-20 39zM198 659l44 -16
q-6 -17 -17.5 -44t-24.5 -55.5t-23 -50.5t-15 -30l-45 19q5 10 16 32.5t24 50t24 53t17 41.5z" />
    <glyph glyph-name="uni06CB" unicode="&#x6cb;" horiz-adv-x="447" arabic-form="isolated" 
d="M58 -230l-18 82q60 8 110.5 22.5t87 41.5t56.5 71t20 110q0 31 -6 59.5t-18 50.5t-28.5 35t-37.5 13q-23 0 -41.5 -17.5t-29 -44.5t-10.5 -54q0 -21 8.5 -36.5t28.5 -23.5t52 -8q29 0 58.5 6t50.5 16l4 -70q-24 -17 -56.5 -24t-65.5 -7q-38 0 -67.5 8t-50 23.5t-31 39.5
t-10.5 56q0 38 12 76.5t34 70.5t53 51.5t69 19.5q40 0 70 -20.5t50 -55.5t30 -79t10 -91q0 -93 -37.5 -160.5t-112 -107.5t-184.5 -53zM235 550q-21 0 -35.5 14.5t-14.5 34.5t14.5 35t35.5 15q20 0 34.5 -15t14.5 -35t-14.5 -34.5t-34.5 -14.5zM167 440q-21 0 -35.5 14.5
t-14.5 34.5t14.5 35t35.5 15q20 0 34.5 -15t14.5 -35t-14.5 -34.5t-34.5 -14.5zM303 440q-21 0 -35.5 14.5t-14.5 34.5t14.5 35t35.5 15q20 0 34.5 -15t14.5 -35t-14.5 -34.5t-34.5 -14.5z" />
    <glyph glyph-name="uni06CC" unicode="&#x6cc;" horiz-adv-x="760" arabic-form="isolated" 
d="M30 -1q0 24 4.5 51.5t14 59t23.5 66.5l72 -28q-10 -28 -17.5 -53t-11 -47t-3.5 -42q0 -39 16.5 -68t46.5 -48.5t70 -29.5t86 -10q72 0 126 15.5t90 39.5t53.5 50t17.5 46q0 14 -17 25t-44 21t-57 21.5t-57 27.5t-44 38.5t-17 53.5q0 41 20.5 81.5t56 74.5t79.5 54.5
t91 20.5q42 0 72 -11.5t43 -21.5l-33 -71q-17 8 -38 15t-44 7q-29 0 -58.5 -12t-54 -32t-39.5 -44t-15 -48q0 -17 17.5 -31t45.5 -26t59.5 -24.5t59.5 -27t45.5 -33.5t17.5 -45q0 -37 -25 -80t-74 -80.5t-119.5 -61.5t-162.5 -24q-63 0 -116.5 14t-94 42.5t-63 72
t-22.5 102.5z" />
    <glyph glyph-name="uni06D0" unicode="&#x6d0;" horiz-adv-x="760" arabic-form="isolated" 
d="M30 -1q0 24 4.5 51.5t14 59t23.5 66.5l72 -28q-10 -28 -17.5 -53t-11 -47t-3.5 -42q0 -39 16.5 -68t46.5 -48.5t70 -29.5t86 -10q72 0 126 15.5t90 39.5t53.5 50t17.5 46q0 14 -17 25t-44 21t-57 21.5t-57 27.5t-44 38.5t-17 53.5q0 41 20.5 81.5t56 74.5t79.5 54.5
t91 20.5q42 0 72 -11.5t43 -21.5l-33 -71q-17 8 -38 15t-44 7q-29 0 -58.5 -12t-54 -32t-39.5 -44t-15 -48q0 -17 17.5 -31t45.5 -26t59.5 -24.5t59.5 -27t45.5 -33.5t17.5 -45q0 -37 -25 -80t-74 -80.5t-119.5 -61.5t-162.5 -24q-63 0 -116.5 14t-94 42.5t-63 72
t-22.5 102.5zM356 -419q-21 0 -35.5 14.5t-14.5 34.5t14.5 35t35.5 15q20 0 34.5 -15t14.5 -35t-14.5 -34.5t-34.5 -14.5zM357 -548q-21 0 -35.5 14.5t-14.5 34.5t14.5 35t35.5 15q20 0 34.5 -15t14.5 -35t-14.5 -34.5t-34.5 -14.5z" />
    <glyph glyph-name="uni06D2" unicode="&#x6d2;" horiz-adv-x="942" arabic-form="isolated" 
d="M471 -21q-150 0 -247 18t-144.5 53t-47.5 87q0 37 19 66t44.5 53t45.5 44q25 26 42 53t31.5 49.5t31 36.5t39.5 14q24 0 46 -14.5t41.5 -39.5t37 -58.5t33.5 -71.5l-67 -45q-9 22 -20 44t-23 42.5t-25.5 38t-28.5 30.5q-1 -6 -8.5 -25.5t-23 -46t-41.5 -56.5
q-24 -28 -45.5 -44.5t-34.5 -30t-13 -31.5q0 -23 39 -42.5t118.5 -30.5t201.5 -11q103 0 187.5 6t147.5 14.5t100 13.5l-14 -78q-27 -7 -73 -14t-104 -12.5t-121 -8.5t-124 -3z" />
    <glyph glyph-name="uni06D3" unicode="&#x6d3;" horiz-adv-x="942" arabic-form="isolated" 
d="M471 -21q-150 0 -247 18t-144.5 53t-47.5 87q0 37 19 66t44.5 53t45.5 44q25 26 42 53t31.5 49.5t31 36.5t39.5 14q24 0 46 -14.5t41.5 -39.5t37 -58.5t33.5 -71.5l-67 -45q-9 22 -20 44t-23 42.5t-25.5 38t-28.5 30.5q-1 -6 -8.5 -25.5t-23 -46t-41.5 -56.5
q-24 -28 -45.5 -44.5t-34.5 -30t-13 -31.5q0 -23 39 -42.5t118.5 -30.5t201.5 -11q103 0 187.5 6t147.5 14.5t100 13.5l-14 -78q-27 -7 -73 -14t-104 -12.5t-121 -8.5t-124 -3zM104 476l-12 54q26 6 42 10l36 9l-5 -21q-26 8 -49.5 34t-23.5 59q0 30 14.5 50.5t38 30.5
t50.5 10q11 0 23.5 -2t23.5 -6l-8 -50q-10 2 -19 4t-20 2q-23 0 -36 -9.5t-13 -26.5q0 -21 13.5 -36t31 -23.5t28.5 -8.5l-41 -4q27 7 50.5 14.5t42.5 14.5l16 -51q-24 -9 -56.5 -19t-65.5 -19t-61 -16z" />
    <glyph glyph-name="uni06D5" unicode="&#x647;" horiz-adv-x="405" arabic-form="isolated" 
d="M202 0q-49 0 -88 17t-61.5 52t-22.5 89q0 43 33 107.5t115 136.5l19 -54l-68 61l52 62q52 -41 96 -88t71 -100t27 -112q0 -23 -8 -52t-27 -56.5t-53 -45t-85 -17.5zM202 82q34 0 56.5 11.5t34 32.5t11.5 49q0 25 -8.5 52.5t-34 60t-77.5 73.5l44 2q-37 -32 -64 -67.5
t-41 -69t-14 -60.5q0 -42 26.5 -63t66.5 -21z" />
    <glyph glyph-name="uniFB51" unicode="&#x671;" horiz-adv-x="291" arabic-form="final" 
d="M291 -5q-80 0 -122.5 18t-58.5 56t-18 98l-20 547h82l20 -515q2 -49 9.5 -75.5t34 -36.5t83.5 -10q21 0 30.5 -11.5t9.5 -27.5t-14 -29.5t-36 -13.5zM102 791q-22 0 -52.5 2t-57.5 5.5t-41 5.5l7 51q15 -2 40 -5t53 -5t51 -2q57 0 74.5 13t17.5 32q0 20 -12 29t-27 9
q-17 0 -33 -10.5t-30.5 -30t-29.5 -46.5l-54 1q14 31 34.5 63.5t49.5 54.5t67 22q32 0 60.5 -20t28.5 -67q0 -24 -12 -47.5t-43.5 -39t-90.5 -15.5z" />
    <glyph glyph-name="uniFB53" unicode="&#x67b;" horiz-adv-x="1093" arabic-form="final" 
d="M390 -21l26 82q61 0 129 7.5t135.5 27t128.5 53.5t107 86l63 -37q-9 -23 -12 -36.5t-3 -24.5q0 -15 11 -28.5t41.5 -22.5t86.5 -9q21 0 30.5 -11.5t9.5 -27.5t-14 -29.5t-36 -13.5q-64 0 -112.5 13.5t-72 43t-15.5 76.5l18 -6q-40 -36 -95.5 -62.5t-123 -44.5t-144 -27
t-158.5 -9zM390 -21q-89 0 -156.5 11.5t-112.5 35.5t-68 62.5t-23 93.5q0 25 4 51.5t10.5 53.5t13.5 52l75 -19q-4 -15 -9 -35.5t-8.5 -41.5t-3.5 -38q0 -52 26.5 -83.5t92.5 -46t185 -14.5l20 -50zM463 -212q-21 0 -35.5 14.5t-14.5 34.5t14.5 35t35.5 15q20 0 34.5 -15
t14.5 -35t-14.5 -34.5t-34.5 -14.5zM464 -341q-21 0 -35.5 14.5t-14.5 34.5t14.5 35t35.5 15q20 0 34.5 -15t14.5 -35t-14.5 -34.5t-34.5 -14.5z" />
    <glyph glyph-name="uniFB54" unicode="&#x67b;" horiz-adv-x="269" arabic-form="initial" 
d="M0 -5l10 82q49 0 78 6t42 24.5t13 55.5q0 25 -8 59.5t-21 73.5t-28 77l81 30q13 -32 24.5 -73t19.5 -81t8 -70q0 -40 -8.5 -70.5t-25.5 -52t-43.5 -35t-61.5 -20t-80 -6.5zM107 -192q-21 0 -35.5 14.5t-14.5 34.5t14.5 35t35.5 15q20 0 34.5 -15t14.5 -35t-14.5 -34.5
t-34.5 -14.5zM108 -321q-21 0 -35.5 14.5t-14.5 34.5t14.5 35t35.5 15q20 0 34.5 -15t14.5 -35t-14.5 -34.5t-34.5 -14.5z" />
    <glyph glyph-name="uniFB55" unicode="&#x67b;" horiz-adv-x="343" arabic-form="medial" 
d="M0 -5l10 82q42 0 66 7.5t36.5 29t21.5 62.5t22 107l78 -15q-4 -18 -9 -40t-8.5 -43.5t-3.5 -37.5q0 -20 9 -36t39 -25t92 -9q21 0 30.5 -11.5t9.5 -27.5t-14 -29.5t-36 -13.5q-65 0 -102 11.5t-54 35t-23 57.5l30 -2q-16 -32 -34.5 -52t-40.5 -31t-51 -15t-68 -4z
M170 -192q-21 0 -35.5 14.5t-14.5 34.5t14.5 35t35.5 15q20 0 34.5 -15t14.5 -35t-14.5 -34.5t-34.5 -14.5zM171 -321q-21 0 -35.5 14.5t-14.5 34.5t14.5 35t35.5 15q20 0 34.5 -15t14.5 -35t-14.5 -34.5t-34.5 -14.5z" />
    <glyph glyph-name="uniFB57" unicode="&#x67e;" horiz-adv-x="1093" arabic-form="final" 
d="M390 -21l26 82q61 0 129 7.5t135.5 27t128.5 53.5t107 86l63 -37q-9 -23 -12 -36.5t-3 -24.5q0 -15 11 -28.5t41.5 -22.5t86.5 -9q21 0 30.5 -11.5t9.5 -27.5t-14 -29.5t-36 -13.5q-64 0 -112.5 13.5t-72 43t-15.5 76.5l18 -6q-40 -36 -95.5 -62.5t-123 -44.5t-144 -27
t-158.5 -9zM390 -21q-89 0 -156.5 11.5t-112.5 35.5t-68 62.5t-23 93.5q0 25 4 51.5t10.5 53.5t13.5 52l75 -19q-4 -15 -9 -35.5t-8.5 -41.5t-3.5 -38q0 -52 26.5 -83.5t92.5 -46t185 -14.5l20 -50zM462 -325q-20 0 -34.5 15t-14.5 35t14.5 34.5t34.5 14.5q21 0 35.5 -14.5
t14.5 -34.5t-14.5 -35t-35.5 -15zM530 -215q-20 0 -34.5 15t-14.5 35t14.5 34.5t34.5 14.5q21 0 35.5 -14.5t14.5 -34.5t-14.5 -35t-35.5 -15zM394 -215q-20 0 -34.5 15t-14.5 35t14.5 34.5t34.5 14.5q21 0 35.5 -14.5t14.5 -34.5t-14.5 -35t-35.5 -15z" />
    <glyph glyph-name="uniFB58" unicode="&#x67e;" horiz-adv-x="299" arabic-form="initial" 
d="M0 -5l10 82q59 0 92 4.5t47 23t14 58.5q0 25 -8 59.5t-21 73.5t-28 77l81 30q13 -32 24.5 -73t19.5 -81t8 -70q0 -50 -13.5 -85t-42.5 -57t-74.5 -32t-108.5 -10zM112 -305q-20 0 -34.5 15t-14.5 35t14.5 34.5t34.5 14.5q21 0 35.5 -14.5t14.5 -34.5t-14.5 -35t-35.5 -15
zM180 -195q-20 0 -34.5 15t-14.5 35t14.5 34.5t34.5 14.5q21 0 35.5 -14.5t14.5 -34.5t-14.5 -35t-35.5 -15zM44 -195q-20 0 -34.5 15t-14.5 35t14.5 34.5t34.5 14.5q21 0 35.5 -14.5t14.5 -34.5t-14.5 -35t-35.5 -15z" />
    <glyph glyph-name="uniFB59" unicode="&#x67e;" horiz-adv-x="373" arabic-form="medial" 
d="M0 -5l10 82q50 0 78 7.5t42.5 29t23.5 62.5t22 107l78 -15q-4 -18 -9 -40t-8.5 -43.5t-3.5 -37.5q0 -15 2 -28t15 -22t44 -14.5t89 -5.5q21 0 30.5 -11.5t9.5 -27.5t-14 -29.5t-36 -13.5q-61 0 -97 6.5t-54.5 19.5t-26 32.5t-11.5 45.5l30 -2q-16 -32 -34.5 -52
t-42.5 -31t-57.5 -15t-79.5 -4zM179 -305q-20 0 -34.5 15t-14.5 35t14.5 34.5t34.5 14.5q21 0 35.5 -14.5t14.5 -34.5t-14.5 -35t-35.5 -15zM247 -195q-20 0 -34.5 15t-14.5 35t14.5 34.5t34.5 14.5q21 0 35.5 -14.5t14.5 -34.5t-14.5 -35t-35.5 -15zM111 -195
q-20 0 -34.5 15t-14.5 35t14.5 34.5t34.5 14.5q21 0 35.5 -14.5t14.5 -34.5t-14.5 -35t-35.5 -15z" />
    <glyph glyph-name="uniFB5B" unicode="&#x680;" horiz-adv-x="1093" arabic-form="final" 
d="M390 -21l26 82q61 0 129 7.5t135.5 27t128.5 53.5t107 86l63 -37q-9 -23 -12 -36.5t-3 -24.5q0 -15 11 -28.5t41.5 -22.5t86.5 -9q21 0 30.5 -11.5t9.5 -27.5t-14 -29.5t-36 -13.5q-64 0 -112.5 13.5t-72 43t-15.5 76.5l18 -6q-40 -36 -95.5 -62.5t-123 -44.5t-144 -27
t-158.5 -9zM390 -21q-89 0 -156.5 11.5t-112.5 35.5t-68 62.5t-23 93.5q0 25 4 51.5t10.5 53.5t13.5 52l75 -19q-4 -15 -9 -35.5t-8.5 -41.5t-3.5 -38q0 -52 26.5 -83.5t92.5 -46t185 -14.5l20 -50zM535 -337q-21 0 -35.5 14.5t-14.5 34.5t14.5 35t35.5 15q20 0 34.5 -15
t14.5 -35t-14.5 -34.5t-34.5 -14.5zM399 -337q-21 0 -35.5 14.5t-14.5 34.5t14.5 35t35.5 15q20 0 34.5 -15t14.5 -35t-14.5 -34.5t-34.5 -14.5zM535 -212q-21 0 -35.5 14.5t-14.5 34.5t14.5 35t35.5 15q20 0 34.5 -15t14.5 -35t-14.5 -34.5t-34.5 -14.5zM399 -212
q-21 0 -35.5 14.5t-14.5 34.5t14.5 35t35.5 15q20 0 34.5 -15t14.5 -35t-14.5 -34.5t-34.5 -14.5z" />
    <glyph glyph-name="uniFB5C" unicode="&#x680;" horiz-adv-x="299" arabic-form="initial" 
d="M0 -5l10 82q59 0 92 4.5t47 23t14 58.5q0 25 -8 59.5t-21 73.5t-28 77l81 30q13 -32 24.5 -73t19.5 -81t8 -70q0 -50 -13.5 -85t-42.5 -57t-74.5 -32t-108.5 -10zM185 -317q-21 0 -35.5 14.5t-14.5 34.5t14.5 35t35.5 15q20 0 34.5 -15t14.5 -35t-14.5 -34.5t-34.5 -14.5
zM49 -317q-21 0 -35.5 14.5t-14.5 34.5t14.5 35t35.5 15q20 0 34.5 -15t14.5 -35t-14.5 -34.5t-34.5 -14.5zM185 -192q-21 0 -35.5 14.5t-14.5 34.5t14.5 35t35.5 15q20 0 34.5 -15t14.5 -35t-14.5 -34.5t-34.5 -14.5zM49 -192q-21 0 -35.5 14.5t-14.5 34.5t14.5 35t35.5 15
q20 0 34.5 -15t14.5 -35t-14.5 -34.5t-34.5 -14.5z" />
    <glyph glyph-name="uniFB5D" unicode="&#x680;" horiz-adv-x="373" arabic-form="medial" 
d="M0 -5l10 82q50 0 78 7.5t42.5 29t23.5 62.5t22 107l78 -15q-4 -18 -9 -40t-8.5 -43.5t-3.5 -37.5q0 -15 2 -28t15 -22t44 -14.5t89 -5.5q21 0 30.5 -11.5t9.5 -27.5t-14 -29.5t-36 -13.5q-61 0 -97 6.5t-54.5 19.5t-26 32.5t-11.5 45.5l30 -2q-16 -32 -34.5 -52
t-42.5 -31t-57.5 -15t-79.5 -4zM252 -317q-21 0 -35.5 14.5t-14.5 34.5t14.5 35t35.5 15q20 0 34.5 -15t14.5 -35t-14.5 -34.5t-34.5 -14.5zM116 -317q-21 0 -35.5 14.5t-14.5 34.5t14.5 35t35.5 15q20 0 34.5 -15t14.5 -35t-14.5 -34.5t-34.5 -14.5zM252 -192
q-21 0 -35.5 14.5t-14.5 34.5t14.5 35t35.5 15q20 0 34.5 -15t14.5 -35t-14.5 -34.5t-34.5 -14.5zM116 -192q-21 0 -35.5 14.5t-14.5 34.5t14.5 35t35.5 15q20 0 34.5 -15t14.5 -35t-14.5 -34.5t-34.5 -14.5z" />
    <glyph glyph-name="uniFB5F" unicode="&#x67a;" horiz-adv-x="1093" arabic-form="final" 
d="M390 -21l26 82q61 0 129 7.5t135.5 27t128.5 53.5t107 86l63 -37q-9 -23 -12 -36.5t-3 -24.5q0 -15 11 -28.5t41.5 -22.5t86.5 -9q21 0 30.5 -11.5t9.5 -27.5t-14 -29.5t-36 -13.5q-64 0 -112.5 13.5t-72 43t-15.5 76.5l18 -6q-40 -36 -95.5 -62.5t-123 -44.5t-144 -27
t-158.5 -9zM390 -21q-89 0 -156.5 11.5t-112.5 35.5t-68 62.5t-23 93.5q0 25 4 51.5t10.5 53.5t13.5 52l75 -19q-4 -15 -9 -35.5t-8.5 -41.5t-3.5 -38q0 -52 26.5 -83.5t92.5 -46t185 -14.5l20 -50zM488 401q-21 0 -35.5 14.5t-14.5 34.5t14.5 35t35.5 15q20 0 34.5 -15
t14.5 -35t-14.5 -34.5t-34.5 -14.5zM487 530q-21 0 -35.5 14.5t-14.5 34.5t14.5 35t35.5 15q20 0 34.5 -15t14.5 -35t-14.5 -34.5t-34.5 -14.5z" />
    <glyph glyph-name="uniFB60" unicode="&#x67a;" horiz-adv-x="299" arabic-form="initial" 
d="M0 -5l10 82q59 0 92 4.5t47 23t14 58.5q0 25 -8 59.5t-21 73.5t-28 77l81 30q13 -32 24.5 -73t19.5 -81t8 -70q0 -50 -13.5 -85t-42.5 -57t-74.5 -32t-108.5 -10zM148 507q-21 0 -35.5 14.5t-14.5 34.5t14.5 35t35.5 15q20 0 34.5 -15t14.5 -35t-14.5 -34.5t-34.5 -14.5z
M147 636q-21 0 -35.5 14.5t-14.5 34.5t14.5 35t35.5 15q20 0 34.5 -15t14.5 -35t-14.5 -34.5t-34.5 -14.5z" />
    <glyph glyph-name="uniFB61" unicode="&#x67a;" horiz-adv-x="373" arabic-form="medial" 
d="M0 -5l10 82q50 0 78 7.5t42.5 29t23.5 62.5t22 107l78 -15q-4 -18 -9 -40t-8.5 -43.5t-3.5 -37.5q0 -15 2 -28t15 -22t44 -14.5t89 -5.5q21 0 30.5 -11.5t9.5 -27.5t-14 -29.5t-36 -13.5q-61 0 -97 6.5t-54.5 19.5t-26 32.5t-11.5 45.5l30 -2q-16 -32 -34.5 -52
t-42.5 -31t-57.5 -15t-79.5 -4zM197 386q-21 0 -35.5 14.5t-14.5 34.5t14.5 35t35.5 15q20 0 34.5 -15t14.5 -35t-14.5 -34.5t-34.5 -14.5zM196 515q-21 0 -35.5 14.5t-14.5 34.5t14.5 35t35.5 15q20 0 34.5 -15t14.5 -35t-14.5 -34.5t-34.5 -14.5z" />
    <glyph glyph-name="uniFB63" unicode="&#x67f;" horiz-adv-x="1093" arabic-form="final" 
d="M390 -21l26 82q61 0 129 7.5t135.5 27t128.5 53.5t107 86l63 -37q-9 -23 -12 -36.5t-3 -24.5q0 -15 11 -28.5t41.5 -22.5t86.5 -9q21 0 30.5 -11.5t9.5 -27.5t-14 -29.5t-36 -13.5q-64 0 -112.5 13.5t-72 43t-15.5 76.5l18 -6q-40 -36 -95.5 -62.5t-123 -44.5t-144 -27
t-158.5 -9zM390 -21q-89 0 -156.5 11.5t-112.5 35.5t-68 62.5t-23 93.5q0 25 4 51.5t10.5 53.5t13.5 52l75 -19q-4 -15 -9 -35.5t-8.5 -41.5t-3.5 -38q0 -52 26.5 -83.5t92.5 -46t185 -14.5l20 -50zM422 526q-21 0 -35.5 14.5t-14.5 34.5t14.5 35t35.5 15q20 0 34.5 -15
t14.5 -35t-14.5 -34.5t-34.5 -14.5zM422 401q-21 0 -35.5 14.5t-14.5 34.5t14.5 35t35.5 15q20 0 34.5 -15t14.5 -35t-14.5 -34.5t-34.5 -14.5zM558 526q-21 0 -35.5 14.5t-14.5 34.5t14.5 35t35.5 15q20 0 34.5 -15t14.5 -35t-14.5 -34.5t-34.5 -14.5zM558 401
q-21 0 -35.5 14.5t-14.5 34.5t14.5 35t35.5 15q20 0 34.5 -15t14.5 -35t-14.5 -34.5t-34.5 -14.5z" />
    <glyph glyph-name="uniFB64" unicode="&#x67f;" horiz-adv-x="299" arabic-form="initial" 
d="M0 -5l10 82q59 0 92 4.5t47 23t14 58.5q0 25 -8 59.5t-21 73.5t-28 77l81 30q13 -32 24.5 -73t19.5 -81t8 -70q0 -50 -13.5 -85t-42.5 -57t-74.5 -32t-108.5 -10zM82 632q-21 0 -35.5 14.5t-14.5 34.5t14.5 35t35.5 15q20 0 34.5 -15t14.5 -35t-14.5 -34.5t-34.5 -14.5z
M82 507q-21 0 -35.5 14.5t-14.5 34.5t14.5 35t35.5 15q20 0 34.5 -15t14.5 -35t-14.5 -34.5t-34.5 -14.5zM218 632q-21 0 -35.5 14.5t-14.5 34.5t14.5 35t35.5 15q20 0 34.5 -15t14.5 -35t-14.5 -34.5t-34.5 -14.5zM218 507q-21 0 -35.5 14.5t-14.5 34.5t14.5 35t35.5 15
q20 0 34.5 -15t14.5 -35t-14.5 -34.5t-34.5 -14.5z" />
    <glyph glyph-name="uniFB65" unicode="&#x67f;" horiz-adv-x="373" arabic-form="medial" 
d="M0 -5l10 82q50 0 78 7.5t42.5 29t23.5 62.5t22 107l78 -15q-4 -18 -9 -40t-8.5 -43.5t-3.5 -37.5q0 -15 2 -28t15 -22t44 -14.5t89 -5.5q21 0 30.5 -11.5t9.5 -27.5t-14 -29.5t-36 -13.5q-61 0 -97 6.5t-54.5 19.5t-26 32.5t-11.5 45.5l30 -2q-16 -32 -34.5 -52
t-42.5 -31t-57.5 -15t-79.5 -4zM131 511q-21 0 -35.5 14.5t-14.5 34.5t14.5 35t35.5 15q20 0 34.5 -15t14.5 -35t-14.5 -34.5t-34.5 -14.5zM131 386q-21 0 -35.5 14.5t-14.5 34.5t14.5 35t35.5 15q20 0 34.5 -15t14.5 -35t-14.5 -34.5t-34.5 -14.5zM267 511
q-21 0 -35.5 14.5t-14.5 34.5t14.5 35t35.5 15q20 0 34.5 -15t14.5 -35t-14.5 -34.5t-34.5 -14.5zM267 386q-21 0 -35.5 14.5t-14.5 34.5t14.5 35t35.5 15q20 0 34.5 -15t14.5 -35t-14.5 -34.5t-34.5 -14.5z" />
    <glyph glyph-name="uniFB67" unicode="&#x679;" horiz-adv-x="1093" arabic-form="final" 
d="M390 -21l26 82q61 0 129 7.5t135.5 27t128.5 53.5t107 86l63 -37q-9 -23 -12 -36.5t-3 -24.5q0 -15 11 -28.5t41.5 -22.5t86.5 -9q21 0 30.5 -11.5t9.5 -27.5t-14 -29.5t-36 -13.5q-64 0 -112.5 13.5t-72 43t-15.5 76.5l18 -6q-40 -36 -95.5 -62.5t-123 -44.5t-144 -27
t-158.5 -9zM390 -21q-89 0 -156.5 11.5t-112.5 35.5t-68 62.5t-23 93.5q0 25 4 51.5t10.5 53.5t13.5 52l75 -19q-4 -15 -9 -35.5t-8.5 -41.5t-3.5 -38q0 -52 26.5 -83.5t92.5 -46t185 -14.5l20 -50zM489 427q-18 0 -42.5 1.5t-46.5 3.5l-33 3l2 58q20 -2 52.5 -5t60.5 -3
q33 0 53.5 4.5t30 13.5t9.5 20q0 14 -9 20t-23 6q-20 0 -39 -13.5t-33.5 -30t-21.5 -26.5l-56 4q17 33 42 61.5t55 46t61 17.5q38 0 60 -23t22 -57q0 -20 -11.5 -43.5t-42.5 -40.5t-90 -17zM420 493l-6 193h55l8 -167z" />
    <glyph glyph-name="uniFB68" unicode="&#x6bb;" horiz-adv-x="269" arabic-form="initial" 
d="M0 -5l10 82q49 0 78 6t42 24.5t13 55.5q0 25 -8 59.5t-21 73.5t-28 77l81 30q13 -32 24.5 -73t19.5 -81t8 -70q0 -40 -8.5 -70.5t-25.5 -52t-43.5 -35t-61.5 -20t-80 -6.5zM129 533q-18 0 -42.5 1.5t-46.5 3.5l-33 3l2 58q20 -2 52.5 -5t60.5 -3q33 0 53.5 4.5t30 13.5
t9.5 20q0 14 -9 20t-23 6q-20 0 -39 -13.5t-33.5 -30t-21.5 -26.5l-56 4q17 33 42 61.5t55 46t61 17.5q38 0 60 -23t22 -57q0 -20 -11.5 -43.5t-42.5 -40.5t-90 -17zM60 599l-6 193h55l8 -167z" />
    <glyph glyph-name="uniFB69" unicode="&#x6bb;" horiz-adv-x="373" arabic-form="medial" 
d="M0 -5l10 82q50 0 78 7.5t42.5 29t23.5 62.5t22 107l78 -15q-4 -18 -9 -40t-8.5 -43.5t-3.5 -37.5q0 -15 2 -28t15 -22t44 -14.5t89 -5.5q21 0 30.5 -11.5t9.5 -27.5t-14 -29.5t-36 -13.5q-61 0 -97 6.5t-54.5 19.5t-26 32.5t-11.5 45.5l30 -2q-16 -32 -34.5 -52
t-42.5 -31t-57.5 -15t-79.5 -4zM198 412q-18 0 -42.5 1.5t-46.5 3.5l-33 3l2 58q20 -2 52.5 -5t60.5 -3q33 0 53.5 4.5t30 13.5t9.5 20q0 14 -9 20t-23 6q-20 0 -39 -13.5t-33.5 -30t-21.5 -26.5l-56 4q17 33 42 61.5t55 46t61 17.5q38 0 60 -23t22 -57q0 -20 -11.5 -43.5
t-42.5 -40.5t-90 -17zM129 478l-6 193h55l8 -167z" />
    <glyph glyph-name="uniFB6B" unicode="&#x6a4;" horiz-adv-x="1098" arabic-form="final" 
d="M390 -21l26 82q74 0 137 3t114 8t87.5 10.5t55.5 11.5q35 11 64.5 28t48 42.5t18.5 59.5q0 17 -6.5 36t-18 35.5t-27 27t-33.5 10.5q-24 0 -44.5 -17t-33 -43t-12.5 -53q0 -32 16.5 -55.5t40.5 -40t48 -27.5l-95 -32q-16 12 -37.5 33t-38 52t-16.5 72q0 40 14 75t39 61.5
t56.5 41.5t65.5 15q49 0 86 -27.5t57.5 -70t20.5 -87.5q0 -43 -16 -77t-43.5 -60t-64 -45t-77.5 -31q-23 -7 -66 -13.5t-101 -12t-125.5 -9t-139.5 -3.5zM1098 -5q-50 0 -100 5.5t-96.5 16t-86.5 25.5l69 48q30 -4 71 -7t82 -4.5t71 -1.5q21 0 30.5 -11.5t9.5 -27.5
t-14 -29.5t-36 -13.5zM390 -21q-89 0 -156.5 11.5t-112.5 35.5t-68 62.5t-23 93.5q0 25 4 51.5t10.5 53.5t13.5 52l75 -19q-4 -15 -9 -35.5t-8.5 -41.5t-3.5 -38q0 -52 26.5 -83.5t92.5 -46t185 -14.5l20 -50zM852 628q-21 0 -35.5 14.5t-14.5 34.5t14.5 35t35.5 15
q20 0 34.5 -15t14.5 -35t-14.5 -34.5t-34.5 -14.5zM784 518q-21 0 -35.5 14.5t-14.5 34.5t14.5 35t35.5 15q20 0 34.5 -15t14.5 -35t-14.5 -34.5t-34.5 -14.5zM920 518q-21 0 -35.5 14.5t-14.5 34.5t14.5 35t35.5 15q20 0 34.5 -15t14.5 -35t-14.5 -34.5t-34.5 -14.5z" />
    <glyph glyph-name="uniFB6C" unicode="&#x6a4;" horiz-adv-x="447" arabic-form="initial" 
d="M0 -5l10 82q25 0 55.5 0.5t62 1.5t58.5 4.5t45 9.5q36 13 56 32.5t28.5 52t8.5 83.5q0 42 -11 78t-31 58t-48 22q-23 0 -41.5 -17.5t-29 -44.5t-10.5 -54q0 -21 8.5 -36t28.5 -23.5t52 -8.5q29 0 58.5 6t50.5 16l4 -70q-16 -11 -36 -18t-42 -10t-44 -3q-51 0 -86.5 16.5
t-54 45t-18.5 65.5q0 38 12 76.5t34 70.5t53 51.5t69 19.5q54 0 89.5 -35t53 -91.5t17.5 -119.5q0 -75 -25.5 -128.5t-84.5 -88.5q-23 -13 -55.5 -21.5t-71 -13.5t-80.5 -6.5t-85 -1.5zM225 714q-21 0 -35.5 14.5t-14.5 34.5t14.5 35t35.5 15q20 0 34.5 -15t14.5 -35
t-14.5 -34.5t-34.5 -14.5zM157 604q-21 0 -35.5 14.5t-14.5 34.5t14.5 35t35.5 15q20 0 34.5 -15t14.5 -35t-14.5 -34.5t-34.5 -14.5zM293 604q-21 0 -35.5 14.5t-14.5 34.5t14.5 35t35.5 15q20 0 34.5 -15t14.5 -35t-14.5 -34.5t-34.5 -14.5z" />
    <glyph glyph-name="uniFB6D" unicode="&#x6a4;" horiz-adv-x="495" arabic-form="medial" 
d="M0 -5l10 82q25 0 51.5 0.5t52.5 2.5t50 5t43 9q35 11 64.5 29t48 44t18.5 60q0 23 -11 47.5t-30 41.5t-44 17q-24 0 -44.5 -16t-33 -41.5t-12.5 -52.5q0 -32 16.5 -57.5t40.5 -43.5t48 -29l-95 -28q-16 12 -37.5 33.5t-38 53.5t-16.5 73q0 40 14.5 74.5t39 60.5t56 40.5
t65.5 14.5q49 0 86 -27t57.5 -68.5t20.5 -86.5q0 -43 -16 -77.5t-43.5 -61.5t-64 -46t-77.5 -31q-23 -7 -49.5 -11t-55.5 -6.5t-58 -3.5t-56 -1zM495 -5q-50 0 -103.5 6.5t-101 17t-78.5 23.5l69 50q30 -4 71 -7.5t82 -5.5t71 -2q21 0 30.5 -11.5t9.5 -27.5t-14 -29.5
t-36 -13.5zM249 628q-21 0 -35.5 14.5t-14.5 34.5t14.5 35t35.5 15q20 0 34.5 -15t14.5 -35t-14.5 -34.5t-34.5 -14.5zM181 518q-21 0 -35.5 14.5t-14.5 34.5t14.5 35t35.5 15q20 0 34.5 -15t14.5 -35t-14.5 -34.5t-34.5 -14.5zM317 518q-21 0 -35.5 14.5t-14.5 34.5
t14.5 35t35.5 15q20 0 34.5 -15t14.5 -35t-14.5 -34.5t-34.5 -14.5z" />
    <glyph glyph-name="uniFB6F" unicode="&#x6a6;" horiz-adv-x="1098" arabic-form="final" 
d="M390 -21l26 82q74 0 137 3t114 8t87.5 10.5t55.5 11.5q35 11 64.5 28t48 42.5t18.5 59.5q0 17 -6.5 36t-18 35.5t-27 27t-33.5 10.5q-24 0 -44.5 -17t-33 -43t-12.5 -53q0 -32 16.5 -55.5t40.5 -40t48 -27.5l-95 -32q-16 12 -37.5 33t-38 52t-16.5 72q0 40 14 75t39 61.5
t56.5 41.5t65.5 15q49 0 86 -27.5t57.5 -70t20.5 -87.5q0 -43 -16 -77t-43.5 -60t-64 -45t-77.5 -31q-23 -7 -66 -13.5t-101 -12t-125.5 -9t-139.5 -3.5zM1098 -5q-50 0 -100 5.5t-96.5 16t-86.5 25.5l69 48q30 -4 71 -7t82 -4.5t71 -1.5q21 0 30.5 -11.5t9.5 -27.5
t-14 -29.5t-36 -13.5zM390 -21q-89 0 -156.5 11.5t-112.5 35.5t-68 62.5t-23 93.5q0 25 4 51.5t10.5 53.5t13.5 52l75 -19q-4 -15 -9 -35.5t-8.5 -41.5t-3.5 -38q0 -52 26.5 -83.5t92.5 -46t185 -14.5l20 -50zM784 643q-21 0 -35.5 14.5t-14.5 34.5t14.5 35t35.5 15
q20 0 34.5 -15t14.5 -35t-14.5 -34.5t-34.5 -14.5zM784 518q-21 0 -35.5 14.5t-14.5 34.5t14.5 35t35.5 15q20 0 34.5 -15t14.5 -35t-14.5 -34.5t-34.5 -14.5zM920 643q-21 0 -35.5 14.5t-14.5 34.5t14.5 35t35.5 15q20 0 34.5 -15t14.5 -35t-14.5 -34.5t-34.5 -14.5z
M920 518q-21 0 -35.5 14.5t-14.5 34.5t14.5 35t35.5 15q20 0 34.5 -15t14.5 -35t-14.5 -34.5t-34.5 -14.5z" />
    <glyph glyph-name="uniFB70" unicode="&#x6a6;" horiz-adv-x="447" arabic-form="initial" 
d="M0 -5l10 82q25 0 55.5 0.5t62 1.5t58.5 4.5t45 9.5q36 13 56 32.5t28.5 52t8.5 83.5q0 42 -11 78t-31 58t-48 22q-23 0 -41.5 -17.5t-29 -44.5t-10.5 -54q0 -21 8.5 -36t28.5 -23.5t52 -8.5q29 0 58.5 6t50.5 16l4 -70q-16 -11 -36 -18t-42 -10t-44 -3q-51 0 -86.5 16.5
t-54 45t-18.5 65.5q0 38 12 76.5t34 70.5t53 51.5t69 19.5q54 0 89.5 -35t53 -91.5t17.5 -119.5q0 -75 -25.5 -128.5t-84.5 -88.5q-23 -13 -55.5 -21.5t-71 -13.5t-80.5 -6.5t-85 -1.5zM157 729q-21 0 -35.5 14.5t-14.5 34.5t14.5 35t35.5 15q20 0 34.5 -15t14.5 -35
t-14.5 -34.5t-34.5 -14.5zM157 604q-21 0 -35.5 14.5t-14.5 34.5t14.5 35t35.5 15q20 0 34.5 -15t14.5 -35t-14.5 -34.5t-34.5 -14.5zM293 729q-21 0 -35.5 14.5t-14.5 34.5t14.5 35t35.5 15q20 0 34.5 -15t14.5 -35t-14.5 -34.5t-34.5 -14.5zM293 604q-21 0 -35.5 14.5
t-14.5 34.5t14.5 35t35.5 15q20 0 34.5 -15t14.5 -35t-14.5 -34.5t-34.5 -14.5z" />
    <glyph glyph-name="uniFB71" unicode="&#x6a6;" horiz-adv-x="495" arabic-form="medial" 
d="M0 -5l10 82q25 0 51.5 0.5t52.5 2.5t50 5t43 9q35 11 64.5 29t48 44t18.5 60q0 23 -11 47.5t-30 41.5t-44 17q-24 0 -44.5 -16t-33 -41.5t-12.5 -52.5q0 -32 16.5 -57.5t40.5 -43.5t48 -29l-95 -28q-16 12 -37.5 33.5t-38 53.5t-16.5 73q0 40 14.5 74.5t39 60.5t56 40.5
t65.5 14.5q49 0 86 -27t57.5 -68.5t20.5 -86.5q0 -43 -16 -77.5t-43.5 -61.5t-64 -46t-77.5 -31q-23 -7 -49.5 -11t-55.5 -6.5t-58 -3.5t-56 -1zM495 -5q-50 0 -103.5 6.5t-101 17t-78.5 23.5l69 50q30 -4 71 -7.5t82 -5.5t71 -2q21 0 30.5 -11.5t9.5 -27.5t-14 -29.5
t-36 -13.5zM181 643q-21 0 -35.5 14.5t-14.5 34.5t14.5 35t35.5 15q20 0 34.5 -15t14.5 -35t-14.5 -34.5t-34.5 -14.5zM181 518q-21 0 -35.5 14.5t-14.5 34.5t14.5 35t35.5 15q20 0 34.5 -15t14.5 -35t-14.5 -34.5t-34.5 -14.5zM317 643q-21 0 -35.5 14.5t-14.5 34.5
t14.5 35t35.5 15q20 0 34.5 -15t14.5 -35t-14.5 -34.5t-34.5 -14.5zM317 518q-21 0 -35.5 14.5t-14.5 34.5t14.5 35t35.5 15q20 0 34.5 -15t14.5 -35t-14.5 -34.5t-34.5 -14.5z" />
    <glyph glyph-name="uniFB73" unicode="&#x684;" horiz-adv-x="649" arabic-form="final" 
d="M650 -5q-43 0 -86.5 6t-80.5 29t-60.5 71.5t-26.5 133.5l64 34q5 -67 22.5 -105.5t44.5 -57t61 -24t71 -5.5q21 0 30.5 -11.5t9.5 -27.5t-13.5 -29.5t-35.5 -13.5zM360 -394q-70 0 -133.5 16t-112 49.5t-76.5 84.5t-28 120q0 58 17 110.5t49.5 99t79.5 85.5t107 69.5
t131 51.5l-11 -13q-26 8 -53 17.5t-56 18t-62 13.5t-71 5q-30 0 -52.5 -5t-42.5 -10l-14 74q26 11 58.5 17.5t65.5 6.5q46 0 82 -8.5t68.5 -21t68.5 -25t80.5 -21t105.5 -8.5h9l2 -82q-48 0 -102 -11t-107.5 -32t-102.5 -52t-86.5 -71.5t-59.5 -90t-22 -107.5
q0 -52 22 -89.5t60.5 -61.5t89 -35t106.5 -11q49 0 100.5 10.5t100.5 29.5l28 -68q-58 -28 -119 -41.5t-120 -13.5zM351 -180q-21 0 -35.5 14.5t-14.5 34.5t14.5 35t35.5 15q20 0 34.5 -15t14.5 -35t-14.5 -34.5t-34.5 -14.5zM350 -52q-21 0 -35.5 14.5t-14.5 34.5t14.5 35
t35.5 15q20 0 34.5 -15t14.5 -35t-14.5 -34.5t-34.5 -14.5z" />
    <glyph glyph-name="uniFB74" unicode="&#x684;" horiz-adv-x="589" arabic-form="initial" 
d="M0 -5l9 82q52 0 102 8t98 23t92.5 36.5t84.5 49.5q-26 23 -60 40t-74.5 26.5t-85.5 9.5q-16 0 -30 -1t-28 -3.5t-32 -6.5l-16 76q27 8 54 12.5t52 4.5q52 0 94 -12.5t76.5 -30.5t65 -36t59.5 -30.5t60 -12.5h21l7 -72q-43 0 -79 -12t-70.5 -30.5t-72.5 -39t-84 -39
t-105.5 -30.5t-137.5 -12zM279 -187q-21 0 -35.5 14.5t-14.5 34.5t14.5 35t35.5 15q20 0 34.5 -15t14.5 -35t-14.5 -34.5t-34.5 -14.5zM280 -316q-21 0 -35.5 14.5t-14.5 34.5t14.5 35t35.5 15q20 0 34.5 -15t14.5 -35t-14.5 -34.5t-34.5 -14.5z" />
    <glyph glyph-name="uniFB75" unicode="&#x684;" horiz-adv-x="637" arabic-form="medial" 
d="M637 -5q-42 0 -77 5.5t-63 20.5t-47 43.5t-29 75.5l59 35q13 -40 32 -61t51.5 -29t83.5 -8q21 0 30.5 -11.5t9.5 -27.5t-14 -29.5t-36 -13.5zM0 -5l9 82q52 0 102 8t98 23t92.5 36.5t84.5 49.5q-26 23 -60 40t-74.5 26.5t-85.5 9.5q-16 0 -30 -1t-28 -3.5t-32 -6.5
l-16 76q27 8 54 12.5t52 4.5q52 0 94 -12.5t76.5 -30.5t65 -36t59.5 -30.5t60 -12.5h21l7 -72q-43 0 -79 -12t-70.5 -30.5t-72.5 -39t-84 -39t-105.5 -30.5t-137.5 -12zM261 -187q-21 0 -35.5 14.5t-14.5 34.5t14.5 35t35.5 15q20 0 34.5 -15t14.5 -35t-14.5 -34.5
t-34.5 -14.5zM262 -316q-21 0 -35.5 14.5t-14.5 34.5t14.5 35t35.5 15q20 0 34.5 -15t14.5 -35t-14.5 -34.5t-34.5 -14.5z" />
    <glyph glyph-name="uniFB77" unicode="&#x683;" horiz-adv-x="719" arabic-form="final" 
d="M720 -5q-43 0 -86.5 6t-80.5 29t-60.5 71.5t-26.5 133.5l64 34q5 -67 22.5 -105.5t44.5 -57t61 -24t71 -5.5q21 0 30.5 -11.5t9.5 -27.5t-13.5 -29.5t-35.5 -13.5zM380 -394q-70 0 -136.5 16t-119 49.5t-83.5 84.5t-31 120q0 58 19 110.5t54.5 99t85.5 85.5t112 69.5
t133 51.5l-11 -13q-26 8 -53.5 17.5t-58 18t-67.5 13.5t-83 5q-30 0 -52.5 -5t-42.5 -10l-14 74q26 11 58.5 17.5t65.5 6.5q52 0 91.5 -8.5t74.5 -20.5t71.5 -24.5t81.5 -21t106 -9.5h9l2 -82q-48 0 -103.5 -11t-111.5 -32t-107 -52t-91 -71.5t-63.5 -90t-23.5 -107.5
q0 -52 25 -89.5t67.5 -61.5t96 -35t109.5 -11q49 0 100.5 10.5t100.5 29.5l28 -68q-58 -28 -119 -41.5t-120 -13.5zM419 -116q-21 0 -35.5 14.5t-14.5 34.5t14.5 35t35.5 15q20 0 34.5 -15t14.5 -35t-14.5 -34.5t-34.5 -14.5zM282 -116q-21 0 -35.5 14.5t-14.5 34.5t14.5 35
t35.5 15q20 0 34.5 -15t14.5 -35t-14.5 -34.5t-34.5 -14.5z" />
    <glyph glyph-name="uniFB78" unicode="&#x683;" horiz-adv-x="589" arabic-form="initial" 
d="M0 -5l9 82q52 0 102 8t98 23t92.5 36.5t84.5 49.5q-26 23 -60 40t-74.5 26.5t-85.5 9.5q-16 0 -30 -1t-28 -3.5t-32 -6.5l-16 76q27 8 54 12.5t52 4.5q52 0 94 -12.5t76.5 -30.5t65 -36t59.5 -30.5t60 -12.5h21l7 -72q-43 0 -79 -12t-70.5 -30.5t-72.5 -39t-84 -39
t-105.5 -30.5t-137.5 -12zM351 -189q-21 0 -35.5 14.5t-14.5 34.5t14.5 35t35.5 15q20 0 34.5 -15t14.5 -35t-14.5 -34.5t-34.5 -14.5zM214 -189q-21 0 -35.5 14.5t-14.5 34.5t14.5 35t35.5 15q20 0 34.5 -15t14.5 -35t-14.5 -34.5t-34.5 -14.5z" />
    <glyph glyph-name="uniFB79" unicode="&#x683;" horiz-adv-x="637" arabic-form="medial" 
d="M637 -5q-42 0 -77 5.5t-63 20.5t-47 43.5t-29 75.5l59 35q13 -40 32 -61t51.5 -29t83.5 -8q21 0 30.5 -11.5t9.5 -27.5t-14 -29.5t-36 -13.5zM0 -5l9 82q52 0 102 8t98 23t92.5 36.5t84.5 49.5q-26 23 -60 40t-74.5 26.5t-85.5 9.5q-16 0 -30 -1t-28 -3.5t-32 -6.5
l-16 76q27 8 54 12.5t52 4.5q52 0 94 -12.5t76.5 -30.5t65 -36t59.5 -30.5t60 -12.5h21l7 -72q-43 0 -79 -12t-70.5 -30.5t-72.5 -39t-84 -39t-105.5 -30.5t-137.5 -12zM333 -189q-21 0 -35.5 14.5t-14.5 34.5t14.5 35t35.5 15q20 0 34.5 -15t14.5 -35t-14.5 -34.5
t-34.5 -14.5zM196 -189q-21 0 -35.5 14.5t-14.5 34.5t14.5 35t35.5 15q20 0 34.5 -15t14.5 -35t-14.5 -34.5t-34.5 -14.5z" />
    <glyph glyph-name="uniFB7B" unicode="&#x686;" horiz-adv-x="719" arabic-form="final" 
d="M720 -5q-43 0 -86.5 6t-80.5 29t-60.5 71.5t-26.5 133.5l64 34q5 -67 22.5 -105.5t44.5 -57t61 -24t71 -5.5q21 0 30.5 -11.5t9.5 -27.5t-13.5 -29.5t-35.5 -13.5zM380 -394q-70 0 -136.5 16t-119 49.5t-83.5 84.5t-31 120q0 58 19 110.5t54.5 99t85.5 85.5t112 69.5
t133 51.5l-11 -13q-26 8 -53.5 17.5t-58 18t-67.5 13.5t-83 5q-30 0 -52.5 -5t-42.5 -10l-14 74q26 11 58.5 17.5t65.5 6.5q52 0 91.5 -8.5t74.5 -20.5t71.5 -24.5t81.5 -21t106 -9.5h9l2 -82q-48 0 -103.5 -11t-111.5 -32t-107 -52t-91 -71.5t-63.5 -90t-23.5 -107.5
q0 -52 25 -89.5t67.5 -61.5t96 -35t109.5 -11q49 0 100.5 10.5t100.5 29.5l28 -68q-58 -28 -119 -41.5t-120 -13.5zM351 -170q-21 0 -35.5 14.5t-14.5 34.5t14.5 35t35.5 15q20 0 34.5 -15t14.5 -35t-14.5 -34.5t-34.5 -14.5zM283 -60q-21 0 -35.5 14.5t-14.5 34.5t14.5 35
t35.5 15q20 0 34.5 -15t14.5 -35t-14.5 -34.5t-34.5 -14.5zM419 -60q-21 0 -35.5 14.5t-14.5 34.5t14.5 35t35.5 15q20 0 34.5 -15t14.5 -35t-14.5 -34.5t-34.5 -14.5z" />
    <glyph glyph-name="uniFB7C" unicode="&#x686;" horiz-adv-x="589" arabic-form="initial" 
d="M0 -5l9 82q52 0 102 8t98 23t92.5 36.5t84.5 49.5q-26 23 -60 40t-74.5 26.5t-85.5 9.5q-16 0 -30 -1t-28 -3.5t-32 -6.5l-16 76q27 8 54 12.5t52 4.5q52 0 94 -12.5t76.5 -30.5t65 -36t59.5 -30.5t60 -12.5h21l7 -72q-43 0 -79 -12t-70.5 -30.5t-72.5 -39t-84 -39
t-105.5 -30.5t-137.5 -12zM278 -300q-20 0 -34.5 15t-14.5 35t14.5 34.5t34.5 14.5q21 0 35.5 -14.5t14.5 -34.5t-14.5 -35t-35.5 -15zM346 -190q-20 0 -34.5 15t-14.5 35t14.5 34.5t34.5 14.5q21 0 35.5 -14.5t14.5 -34.5t-14.5 -35t-35.5 -15zM210 -190q-20 0 -34.5 15
t-14.5 35t14.5 34.5t34.5 14.5q21 0 35.5 -14.5t14.5 -34.5t-14.5 -35t-35.5 -15z" />
    <glyph glyph-name="uniFB7D" unicode="&#x686;" horiz-adv-x="637" arabic-form="medial" 
d="M637 -5q-42 0 -77 5.5t-63 20.5t-47 43.5t-29 75.5l59 35q13 -40 32 -61t51.5 -29t83.5 -8q21 0 30.5 -11.5t9.5 -27.5t-14 -29.5t-36 -13.5zM0 -5l9 82q52 0 102 8t98 23t92.5 36.5t84.5 49.5q-26 23 -60 40t-74.5 26.5t-85.5 9.5q-16 0 -30 -1t-28 -3.5t-32 -6.5
l-16 76q27 8 54 12.5t52 4.5q52 0 94 -12.5t76.5 -30.5t65 -36t59.5 -30.5t60 -12.5h21l7 -72q-43 0 -79 -12t-70.5 -30.5t-72.5 -39t-84 -39t-105.5 -30.5t-137.5 -12zM260 -300q-20 0 -34.5 15t-14.5 35t14.5 34.5t34.5 14.5q21 0 35.5 -14.5t14.5 -34.5t-14.5 -35
t-35.5 -15zM328 -190q-20 0 -34.5 15t-14.5 35t14.5 34.5t34.5 14.5q21 0 35.5 -14.5t14.5 -34.5t-14.5 -35t-35.5 -15zM192 -190q-20 0 -34.5 15t-14.5 35t14.5 34.5t34.5 14.5q21 0 35.5 -14.5t14.5 -34.5t-14.5 -35t-35.5 -15z" />
    <glyph glyph-name="uniFB7F" unicode="&#x687;" horiz-adv-x="719" arabic-form="final" 
d="M720 -5q-43 0 -86.5 6t-80.5 29t-60.5 71.5t-26.5 133.5l64 34q5 -67 22.5 -105.5t44.5 -57t61 -24t71 -5.5q21 0 30.5 -11.5t9.5 -27.5t-13.5 -29.5t-35.5 -13.5zM380 -394q-70 0 -136.5 16t-119 49.5t-83.5 84.5t-31 120q0 58 19 110.5t54.5 99t85.5 85.5t112 69.5
t133 51.5l-11 -13q-26 8 -53.5 17.5t-58 18t-67.5 13.5t-83 5q-30 0 -52.5 -5t-42.5 -10l-14 74q26 11 58.5 17.5t65.5 6.5q52 0 91.5 -8.5t74.5 -20.5t71.5 -24.5t81.5 -21t106 -9.5h9l2 -82q-48 0 -103.5 -11t-111.5 -32t-107 -52t-91 -71.5t-63.5 -90t-23.5 -107.5
q0 -52 25 -89.5t67.5 -61.5t96 -35t109.5 -11q49 0 100.5 10.5t100.5 29.5l28 -68q-58 -28 -119 -41.5t-120 -13.5zM282 -53q-21 0 -35.5 14.5t-14.5 34.5t14.5 35t35.5 15q20 0 34.5 -15t14.5 -35t-14.5 -34.5t-34.5 -14.5zM282 -178q-21 0 -35.5 14.5t-14.5 34.5t14.5 35
t35.5 15q20 0 34.5 -15t14.5 -35t-14.5 -34.5t-34.5 -14.5zM418 -53q-21 0 -35.5 14.5t-14.5 34.5t14.5 35t35.5 15q20 0 34.5 -15t14.5 -35t-14.5 -34.5t-34.5 -14.5zM418 -178q-21 0 -35.5 14.5t-14.5 34.5t14.5 35t35.5 15q20 0 34.5 -15t14.5 -35t-14.5 -34.5
t-34.5 -14.5z" />
    <glyph glyph-name="uniFB80" unicode="&#x687;" horiz-adv-x="589" arabic-form="initial" 
d="M0 -5l9 82q52 0 102 8t98 23t92.5 36.5t84.5 49.5q-26 23 -60 40t-74.5 26.5t-85.5 9.5q-16 0 -30 -1t-28 -3.5t-32 -6.5l-16 76q27 8 54 12.5t52 4.5q52 0 94 -12.5t76.5 -30.5t65 -36t59.5 -30.5t60 -12.5h21l7 -72q-43 0 -79 -12t-70.5 -30.5t-72.5 -39t-84 -39
t-105.5 -30.5t-137.5 -12zM351 -312q-21 0 -35.5 14.5t-14.5 34.5t14.5 35t35.5 15q20 0 34.5 -15t14.5 -35t-14.5 -34.5t-34.5 -14.5zM215 -312q-21 0 -35.5 14.5t-14.5 34.5t14.5 35t35.5 15q20 0 34.5 -15t14.5 -35t-14.5 -34.5t-34.5 -14.5zM351 -187q-21 0 -35.5 14.5
t-14.5 34.5t14.5 35t35.5 15q20 0 34.5 -15t14.5 -35t-14.5 -34.5t-34.5 -14.5zM215 -187q-21 0 -35.5 14.5t-14.5 34.5t14.5 35t35.5 15q20 0 34.5 -15t14.5 -35t-14.5 -34.5t-34.5 -14.5z" />
    <glyph glyph-name="uniFB81" unicode="&#x687;" horiz-adv-x="637" arabic-form="medial" 
d="M637 -5q-42 0 -77 5.5t-63 20.5t-47 43.5t-29 75.5l59 35q13 -40 32 -61t51.5 -29t83.5 -8q21 0 30.5 -11.5t9.5 -27.5t-14 -29.5t-36 -13.5zM0 -5l9 82q52 0 102 8t98 23t92.5 36.5t84.5 49.5q-26 23 -60 40t-74.5 26.5t-85.5 9.5q-16 0 -30 -1t-28 -3.5t-32 -6.5
l-16 76q27 8 54 12.5t52 4.5q52 0 94 -12.5t76.5 -30.5t65 -36t59.5 -30.5t60 -12.5h21l7 -72q-43 0 -79 -12t-70.5 -30.5t-72.5 -39t-84 -39t-105.5 -30.5t-137.5 -12zM333 -312q-21 0 -35.5 14.5t-14.5 34.5t14.5 35t35.5 15q20 0 34.5 -15t14.5 -35t-14.5 -34.5
t-34.5 -14.5zM197 -312q-21 0 -35.5 14.5t-14.5 34.5t14.5 35t35.5 15q20 0 34.5 -15t14.5 -35t-14.5 -34.5t-34.5 -14.5zM333 -187q-21 0 -35.5 14.5t-14.5 34.5t14.5 35t35.5 15q20 0 34.5 -15t14.5 -35t-14.5 -34.5t-34.5 -14.5zM197 -187q-21 0 -35.5 14.5t-14.5 34.5
t14.5 35t35.5 15q20 0 34.5 -15t14.5 -35t-14.5 -34.5t-34.5 -14.5z" />
    <glyph glyph-name="uniFB83" unicode="&#x68d;" horiz-adv-x="532" arabic-form="final" 
d="M215 77q50 0 79.5 10t43 29.5t13.5 45.5q0 20 -10.5 48t-28.5 62.5t-41.5 73t-50.5 78.5l69 45q39 -59 68 -111.5t49 -98t32 -85.5q14 -44 31.5 -65t36.5 -26.5t35 -5.5q21 0 31 -11.5t10 -27.5t-14 -29.5t-36 -13.5q-33 0 -64.5 12.5t-54.5 41t-32 76.5l40 32
q0 -40 -17 -77.5t-61.5 -61.5t-127.5 -24q-36 0 -69.5 6t-61.5 17.5t-49 27.5l40 69q20 -13 56 -25t84 -12zM306 -194q-21 0 -35.5 14.5t-14.5 34.5t14.5 35t35.5 15q20 0 34.5 -15t14.5 -35t-14.5 -34.5t-34.5 -14.5zM169 -194q-21 0 -35.5 14.5t-14.5 34.5t14.5 35
t35.5 15q20 0 34.5 -15t14.5 -35t-14.5 -34.5t-34.5 -14.5z" />
    <glyph glyph-name="uniFB85" unicode="&#x68c;" horiz-adv-x="532" arabic-form="final" 
d="M215 77q50 0 79.5 10t43 29.5t13.5 45.5q0 20 -10.5 48t-28.5 62.5t-41.5 73t-50.5 78.5l69 45q39 -59 68 -111.5t49 -98t32 -85.5q14 -44 31.5 -65t36.5 -26.5t35 -5.5q21 0 31 -11.5t10 -27.5t-14 -29.5t-36 -13.5q-33 0 -64.5 12.5t-54.5 41t-32 76.5l40 32
q0 -40 -17 -77.5t-61.5 -61.5t-127.5 -24q-36 0 -69.5 6t-61.5 17.5t-49 27.5l40 69q20 -13 56 -25t84 -12zM291 560q-21 0 -35.5 14.5t-14.5 34.5t14.5 35t35.5 15q20 0 34.5 -15t14.5 -35t-14.5 -34.5t-34.5 -14.5zM154 560q-21 0 -35.5 14.5t-14.5 34.5t14.5 35t35.5 15
q20 0 34.5 -15t14.5 -35t-14.5 -34.5t-34.5 -14.5z" />
    <glyph glyph-name="uniFB87" unicode="&#x68e;" horiz-adv-x="532" arabic-form="final" 
d="M215 77q50 0 79.5 10t43 29.5t13.5 45.5q0 20 -10.5 48t-28.5 62.5t-41.5 73t-50.5 78.5l69 45q39 -59 68 -111.5t49 -98t32 -85.5q14 -44 31.5 -65t36.5 -26.5t35 -5.5q21 0 31 -11.5t10 -27.5t-14 -29.5t-36 -13.5q-33 0 -64.5 12.5t-54.5 41t-32 76.5l40 32
q0 -40 -17 -77.5t-61.5 -61.5t-127.5 -24q-36 0 -69.5 6t-61.5 17.5t-49 27.5l40 69q20 -13 56 -25t84 -12zM223 670q-21 0 -35.5 14.5t-14.5 34.5t14.5 35t35.5 15q20 0 34.5 -15t14.5 -35t-14.5 -34.5t-34.5 -14.5zM155 560q-21 0 -35.5 14.5t-14.5 34.5t14.5 35t35.5 15
q20 0 34.5 -15t14.5 -35t-14.5 -34.5t-34.5 -14.5zM291 560q-21 0 -35.5 14.5t-14.5 34.5t14.5 35t35.5 15q20 0 34.5 -15t14.5 -35t-14.5 -34.5t-34.5 -14.5z" />
    <glyph glyph-name="uniFB89" unicode="&#x688;" horiz-adv-x="532" arabic-form="final" 
d="M215 77q50 0 79.5 10t43 29.5t13.5 45.5q0 20 -10.5 48t-28.5 62.5t-41.5 73t-50.5 78.5l69 45q39 -59 68 -111.5t49 -98t32 -85.5q14 -44 31.5 -65t36.5 -26.5t35 -5.5q21 0 31 -11.5t10 -27.5t-14 -29.5t-36 -13.5q-33 0 -64.5 12.5t-54.5 41t-32 76.5l40 32
q0 -40 -17 -77.5t-61.5 -61.5t-127.5 -24q-36 0 -69.5 6t-61.5 17.5t-49 27.5l40 69q20 -13 56 -25t84 -12zM222 586q-18 0 -42.5 1.5t-46.5 3.5l-33 3l2 58q20 -2 52.5 -5t60.5 -3q33 0 53.5 4.5t30 13.5t9.5 20q0 14 -9 20t-23 6q-20 0 -39 -13.5t-33.5 -30t-21.5 -26.5
l-56 4q17 33 42 61.5t55 46t61 17.5q38 0 60 -23t22 -57q0 -20 -11.5 -43.5t-42.5 -40.5t-90 -17zM153 652l-6 193h55l8 -167z" />
    <glyph glyph-name="uniFB8B" unicode="&#x698;" horiz-adv-x="396" arabic-form="final" 
d="M4 -232l-29 76q73 24 121.5 55t77 66t40.5 71.5t12 70.5q0 49 -21.5 99.5t-47.5 95.5l73 37q19 -35 33.5 -69t26 -64t18.5 -55q14 -43 36.5 -58.5t61.5 -15.5q21 0 30.5 -11.5t9.5 -27.5t-14 -29.5t-36 -13.5q-44 0 -71.5 15.5t-41.5 41t-19 53.5l32 -18
q0 -66 -29.5 -120.5t-75.5 -95t-96 -66.5t-91 -37zM165 564q-21 0 -35.5 14.5t-14.5 34.5t14.5 35t35.5 15q20 0 34.5 -15t14.5 -35t-14.5 -34.5t-34.5 -14.5zM97 454q-21 0 -35.5 14.5t-14.5 34.5t14.5 35t35.5 15q20 0 34.5 -15t14.5 -35t-14.5 -34.5t-34.5 -14.5z
M233 454q-21 0 -35.5 14.5t-14.5 34.5t14.5 35t35.5 15q20 0 34.5 -15t14.5 -35t-14.5 -34.5t-34.5 -14.5z" />
    <glyph glyph-name="uniFB8D" unicode="&#x691;" horiz-adv-x="396" arabic-form="final" 
d="M4 -232l-29 76q73 24 121.5 55t77 66t40.5 71.5t12 70.5q0 49 -21.5 99.5t-47.5 95.5l73 37q19 -35 33.5 -69t26 -64t18.5 -55q14 -43 36.5 -58.5t61.5 -15.5q21 0 30.5 -11.5t9.5 -27.5t-14 -29.5t-36 -13.5q-44 0 -71.5 15.5t-41.5 41t-19 53.5l32 -18
q0 -66 -29.5 -120.5t-75.5 -95t-96 -66.5t-91 -37zM164 480q-18 0 -42.5 1.5t-46.5 3.5l-33 3l2 58q20 -2 52.5 -5t60.5 -3q33 0 53.5 4.5t30 13.5t9.5 20q0 14 -9 20t-23 6q-20 0 -39 -13.5t-33.5 -30t-21.5 -26.5l-56 4q17 33 42 61.5t55 46t61 17.5q38 0 60 -23t22 -57
q0 -20 -11.5 -43.5t-42.5 -40.5t-90 -17zM95 546l-6 193h55l8 -167z" />
    <glyph glyph-name="uni06A9.fina" unicode="&#x6a9;" horiz-adv-x="975" arabic-form="final" 
d="M390 -21l26 82q94 0 157 7.5t100 20t53 26.5t16 26q0 24 -18 53t-46 59.5t-59.5 60.5t-59.5 55t-46 43.5t-18 26.5q0 15 2.5 29t7 26t11.5 19q27 29 79.5 60.5t120.5 65t139 68.5l34 -74q-64 -32 -127.5 -63t-119 -61.5t-98.5 -63.5l6 34q45 -38 85 -73t76 -71.5
t67 -78.5t58 -93q15 -29 35.5 -46.5t41.5 -26t40 -11t32 -2.5q21 0 30.5 -11.5t9.5 -27.5t-14 -29.5t-36 -13.5q-27 0 -63.5 8.5t-71.5 33.5t-58 76l30 -12q-15 -27 -41 -49t-72.5 -38.5t-121 -25.5t-187.5 -9zM390 -21q-89 0 -156.5 11.5t-112.5 35.5t-68 62.5t-23 93.5
q0 25 4 51.5t10.5 53.5t13.5 52l75 -19q-4 -15 -9 -35.5t-8.5 -41.5t-3.5 -38q0 -52 26.5 -83.5t92.5 -46t185 -14.5l20 -50z" />
    <glyph glyph-name="uniFB90" unicode="&#x6a9;" horiz-adv-x="412" arabic-form="initial" 
d="M0 -5l10 82h94q59 0 93.5 6.5t51 17t22 23t5.5 25.5q0 23 -17.5 57t-71.5 88q-28 28 -56 51.5t-51.5 42t-37.5 31.5t-14 20q0 15 2.5 29t7 26t11.5 19q20 21 51.5 42t74 44t96 49.5t117.5 58.5l34 -74q-80 -38 -133.5 -64.5t-90.5 -47t-65 -38.5t-57 -40l15 38
q63 -50 111.5 -94t81.5 -84.5t50 -79.5t17 -79q0 -22 -8 -48t-34 -49t-78 -37.5t-140 -14.5h-91z" />
    <glyph glyph-name="uniFB91" unicode="&#x6a9;" horiz-adv-x="508" arabic-form="medial" 
d="M0 -5l10 82h77q83 0 123 9t52.5 24t12.5 31q0 24 -18 53t-46 59.5t-59.5 60.5t-59.5 55t-46 43.5t-18 26.5q0 15 2.5 29t7 26t11.5 19q20 21 55 44.5t81 48t98 50t105 51.5l34 -74q-48 -24 -96 -47.5t-93 -46.5t-84.5 -46.5t-71.5 -47.5l6 34q45 -38 85 -73t76 -71.5
t67 -78.5t58 -93q21 -39 49 -57t55.5 -23.5t44.5 -5.5q21 0 30.5 -11.5t9.5 -27.5t-14 -29.5t-36 -13.5q-27 0 -63.5 8.5t-71.5 33.5t-58 76l30 -12q-15 -27 -34.5 -46.5t-49.5 -33t-73 -20t-105 -6.5h-83z" />
    <glyph glyph-name="uniFB93" unicode="&#x6af;" horiz-adv-x="975" arabic-form="final" 
d="M390 -21l26 82q94 0 157 7.5t100 20t53 26.5t16 26q0 24 -18 53t-46 59.5t-59.5 60.5t-59.5 55t-46 43.5t-18 26.5q0 15 2.5 29t7 26t11.5 19q27 29 79.5 60.5t120.5 65t139 68.5l34 -74q-64 -32 -127.5 -63t-119 -61.5t-98.5 -63.5l6 34q45 -38 85 -73t76 -71.5
t67 -78.5t58 -93q15 -29 35.5 -46.5t41.5 -26t40 -11t32 -2.5q21 0 30.5 -11.5t9.5 -27.5t-14 -29.5t-36 -13.5q-27 0 -63.5 8.5t-71.5 33.5t-58 76l30 -12q-15 -27 -41 -49t-72.5 -38.5t-121 -25.5t-187.5 -9zM390 -21q-89 0 -156.5 11.5t-112.5 35.5t-68 62.5t-23 93.5
q0 25 4 51.5t10.5 53.5t13.5 52l75 -19q-4 -15 -9 -35.5t-8.5 -41.5t-3.5 -38q0 -52 26.5 -83.5t92.5 -46t185 -14.5l20 -50zM503 575l-36 56q39 24 89.5 54t111.5 64.5t133 71.5l28 -61q-73 -38 -132.5 -71.5t-107 -61.5t-86.5 -52z" />
    <glyph glyph-name="uniFB94" unicode="&#x6af;" horiz-adv-x="412" arabic-form="initial" 
d="M0 -5l10 82h94q59 0 93.5 6.5t51 17t22 23t5.5 25.5q0 23 -17.5 57t-71.5 88q-28 28 -56 51.5t-51.5 42t-37.5 31.5t-14 20q0 15 2.5 29t7 26t11.5 19q20 21 51.5 42t74 44t96 49.5t117.5 58.5l34 -74q-80 -38 -133.5 -64.5t-90.5 -47t-65 -38.5t-57 -40l15 38
q63 -50 111.5 -94t81.5 -84.5t50 -79.5t17 -79q0 -22 -8 -48t-34 -49t-78 -37.5t-140 -14.5h-91zM38 575l-36 56q39 24 89.5 54t111.5 64.5t133 71.5l28 -61q-73 -38 -132.5 -71.5t-107 -61.5t-86.5 -52z" />
    <glyph glyph-name="uniFB95" unicode="&#x6af;" horiz-adv-x="508" arabic-form="medial" 
d="M0 -5l10 82h77q83 0 123 9t52.5 24t12.5 31q0 24 -18 53t-46 59.5t-59.5 60.5t-59.5 55t-46 43.5t-18 26.5q0 15 2.5 29t7 26t11.5 19q20 21 55 44.5t81 48t98 50t105 51.5l34 -74q-48 -24 -96 -47.5t-93 -46.5t-84.5 -46.5t-71.5 -47.5l6 34q45 -38 85 -73t76 -71.5
t67 -78.5t58 -93q21 -39 49 -57t55.5 -23.5t44.5 -5.5q21 0 30.5 -11.5t9.5 -27.5t-14 -29.5t-36 -13.5q-27 0 -63.5 8.5t-71.5 33.5t-58 76l30 -12q-15 -27 -34.5 -46.5t-49.5 -33t-73 -20t-105 -6.5h-83zM38 575l-36 56q39 24 89.5 54t111.5 64.5t133 71.5l28 -61
q-73 -38 -132.5 -71.5t-107 -61.5t-86.5 -52z" />
    <glyph glyph-name="uniFB97" unicode="&#x6b3;" horiz-adv-x="975" arabic-form="final" 
d="M390 -21l26 82q94 0 157 7.5t100 20t53 26.5t16 26q0 24 -18 53t-46 59.5t-59.5 60.5t-59.5 55t-46 43.5t-18 26.5q0 15 2.5 29t7 26t11.5 19q27 29 79.5 60.5t120.5 65t139 68.5l34 -74q-64 -32 -127.5 -63t-119 -61.5t-98.5 -63.5l6 34q45 -38 85 -73t76 -71.5
t67 -78.5t58 -93q15 -29 35.5 -46.5t41.5 -26t40 -11t32 -2.5q21 0 30.5 -11.5t9.5 -27.5t-14 -29.5t-36 -13.5q-27 0 -63.5 8.5t-71.5 33.5t-58 76l30 -12q-15 -27 -41 -49t-72.5 -38.5t-121 -25.5t-187.5 -9zM390 -21q-89 0 -156.5 11.5t-112.5 35.5t-68 62.5t-23 93.5
q0 25 4 51.5t10.5 53.5t13.5 52l75 -19q-4 -15 -9 -35.5t-8.5 -41.5t-3.5 -38q0 -52 26.5 -83.5t92.5 -46t185 -14.5l20 -50zM503 575l-36 56q39 24 89.5 54t111.5 64.5t133 71.5l28 -61q-73 -38 -132.5 -71.5t-107 -61.5t-86.5 -52zM410 -208q-21 0 -35.5 14.5t-14.5 34.5
t14.5 35t35.5 15q20 0 34.5 -15t14.5 -35t-14.5 -34.5t-34.5 -14.5zM411 -337q-21 0 -35.5 14.5t-14.5 34.5t14.5 35t35.5 15q20 0 34.5 -15t14.5 -35t-14.5 -34.5t-34.5 -14.5z" />
    <glyph glyph-name="uniFB98" unicode="&#x6b3;" horiz-adv-x="412" arabic-form="initial" 
d="M0 -5l10 82h94q59 0 93.5 6.5t51 17t22 23t5.5 25.5q0 23 -17.5 57t-71.5 88q-28 28 -56 51.5t-51.5 42t-37.5 31.5t-14 20q0 15 2.5 29t7 26t11.5 19q20 21 51.5 42t74 44t96 49.5t117.5 58.5l34 -74q-80 -38 -133.5 -64.5t-90.5 -47t-65 -38.5t-57 -40l15 38
q63 -50 111.5 -94t81.5 -84.5t50 -79.5t17 -79q0 -22 -8 -48t-34 -49t-78 -37.5t-140 -14.5h-91zM38 575l-36 56q39 24 89.5 54t111.5 64.5t133 71.5l28 -61q-73 -38 -132.5 -71.5t-107 -61.5t-86.5 -52zM163 -187q-21 0 -35.5 14.5t-14.5 34.5t14.5 35t35.5 15
q20 0 34.5 -15t14.5 -35t-14.5 -34.5t-34.5 -14.5zM164 -316q-21 0 -35.5 14.5t-14.5 34.5t14.5 35t35.5 15q20 0 34.5 -15t14.5 -35t-14.5 -34.5t-34.5 -14.5z" />
    <glyph glyph-name="uniFB99" unicode="&#x6b3;" horiz-adv-x="508" arabic-form="medial" 
d="M0 -5l10 82h77q83 0 123 9t52.5 24t12.5 31q0 24 -18 53t-46 59.5t-59.5 60.5t-59.5 55t-46 43.5t-18 26.5q0 15 2.5 29t7 26t11.5 19q20 21 55 44.5t81 48t98 50t105 51.5l34 -74q-48 -24 -96 -47.5t-93 -46.5t-84.5 -46.5t-71.5 -47.5l6 34q45 -38 85 -73t76 -71.5
t67 -78.5t58 -93q21 -39 49 -57t55.5 -23.5t44.5 -5.5q21 0 30.5 -11.5t9.5 -27.5t-14 -29.5t-36 -13.5q-27 0 -63.5 8.5t-71.5 33.5t-58 76l30 -12q-15 -27 -34.5 -46.5t-49.5 -33t-73 -20t-105 -6.5h-83zM38 575l-36 56q39 24 89.5 54t111.5 64.5t133 71.5l28 -61
q-73 -38 -132.5 -71.5t-107 -61.5t-86.5 -52zM163 -187q-21 0 -35.5 14.5t-14.5 34.5t14.5 35t35.5 15q20 0 34.5 -15t14.5 -35t-14.5 -34.5t-34.5 -14.5zM164 -316q-21 0 -35.5 14.5t-14.5 34.5t14.5 35t35.5 15q20 0 34.5 -15t14.5 -35t-14.5 -34.5t-34.5 -14.5z" />
    <glyph glyph-name="uniFB9B" unicode="&#x6b1;" horiz-adv-x="975" arabic-form="final" 
d="M390 -21l26 82q94 0 157 7.5t100 20t53 26.5t16 26q0 24 -18 53t-46 59.5t-59.5 60.5t-59.5 55t-46 43.5t-18 26.5q0 15 2.5 29t7 26t11.5 19q27 29 79.5 60.5t120.5 65t139 68.5l34 -74q-64 -32 -127.5 -63t-119 -61.5t-98.5 -63.5l6 34q45 -38 85 -73t76 -71.5
t67 -78.5t58 -93q15 -29 35.5 -46.5t41.5 -26t40 -11t32 -2.5q21 0 30.5 -11.5t9.5 -27.5t-14 -29.5t-36 -13.5q-27 0 -63.5 8.5t-71.5 33.5t-58 76l30 -12q-15 -27 -41 -49t-72.5 -38.5t-121 -25.5t-187.5 -9zM390 -21q-89 0 -156.5 11.5t-112.5 35.5t-68 62.5t-23 93.5
q0 25 4 51.5t10.5 53.5t13.5 52l75 -19q-4 -15 -9 -35.5t-8.5 -41.5t-3.5 -38q0 -52 26.5 -83.5t92.5 -46t185 -14.5l20 -50zM503 575l-36 56q39 24 89.5 54t111.5 64.5t133 71.5l28 -61q-73 -38 -132.5 -71.5t-107 -61.5t-86.5 -52zM674 834q-21 0 -35.5 14.5t-14.5 34.5
t14.5 35t35.5 15q20 0 34.5 -15t14.5 -35t-14.5 -34.5t-34.5 -14.5zM559 781q-21 0 -35.5 14.5t-14.5 34.5t14.5 35t35.5 15q20 0 34.5 -15t14.5 -35t-14.5 -34.5t-34.5 -14.5z" />
    <glyph glyph-name="uniFB9C" unicode="&#x6b1;" horiz-adv-x="412" arabic-form="initial" 
d="M0 -5l10 82h94q59 0 93.5 6.5t51 17t22 23t5.5 25.5q0 23 -17.5 57t-71.5 88q-28 28 -56 51.5t-51.5 42t-37.5 31.5t-14 20q0 15 2.5 29t7 26t11.5 19q20 21 51.5 42t74 44t96 49.5t117.5 58.5l34 -74q-80 -38 -133.5 -64.5t-90.5 -47t-65 -38.5t-57 -40l15 38
q63 -50 111.5 -94t81.5 -84.5t50 -79.5t17 -79q0 -22 -8 -48t-34 -49t-78 -37.5t-140 -14.5h-91zM38 575l-36 56q39 24 89.5 54t111.5 64.5t133 71.5l28 -61q-73 -38 -132.5 -71.5t-107 -61.5t-86.5 -52zM209 834q-21 0 -35.5 14.5t-14.5 34.5t14.5 35t35.5 15
q20 0 34.5 -15t14.5 -35t-14.5 -34.5t-34.5 -14.5zM94 781q-21 0 -35.5 14.5t-14.5 34.5t14.5 35t35.5 15q20 0 34.5 -15t14.5 -35t-14.5 -34.5t-34.5 -14.5z" />
    <glyph glyph-name="uniFB9D" unicode="&#x6b1;" horiz-adv-x="508" arabic-form="medial" 
d="M0 -5l10 82h77q83 0 123 9t52.5 24t12.5 31q0 24 -18 53t-46 59.5t-59.5 60.5t-59.5 55t-46 43.5t-18 26.5q0 15 2.5 29t7 26t11.5 19q20 21 55 44.5t81 48t98 50t105 51.5l34 -74q-48 -24 -96 -47.5t-93 -46.5t-84.5 -46.5t-71.5 -47.5l6 34q45 -38 85 -73t76 -71.5
t67 -78.5t58 -93q21 -39 49 -57t55.5 -23.5t44.5 -5.5q21 0 30.5 -11.5t9.5 -27.5t-14 -29.5t-36 -13.5q-27 0 -63.5 8.5t-71.5 33.5t-58 76l30 -12q-15 -27 -34.5 -46.5t-49.5 -33t-73 -20t-105 -6.5h-83zM38 575l-36 56q39 24 89.5 54t111.5 64.5t133 71.5l28 -61
q-73 -38 -132.5 -71.5t-107 -61.5t-86.5 -52zM209 834q-21 0 -35.5 14.5t-14.5 34.5t14.5 35t35.5 15q20 0 34.5 -15t14.5 -35t-14.5 -34.5t-34.5 -14.5zM94 781q-21 0 -35.5 14.5t-14.5 34.5t14.5 35t35.5 15q20 0 34.5 -15t14.5 -35t-14.5 -34.5t-34.5 -14.5z" />
    <glyph glyph-name="uni06BA.fina" unicode="&#x6ba;" horiz-adv-x="730" arabic-form="final" 
d="M30 -1q0 36 10 80t32 97l72 -28q-16 -42 -24 -77t-8 -65q0 -55 27.5 -89.5t74 -50.5t102.5 -16q68 0 114 14.5t73 39.5t38.5 56.5t11.5 65.5q0 44 -6.5 83t-17 76.5t-22.5 76.5l81 22q11 -38 17 -61.5t9.5 -37.5t6.5 -25q11 -37 29 -54.5t41.5 -23t48.5 -5.5
q21 0 30.5 -11.5t9.5 -27.5t-14 -29.5t-36 -13.5q-42 0 -70 14.5t-43.5 36.5t-20.5 46l41 -51q-3 -51 -19.5 -99.5t-52.5 -88t-97.5 -62.5t-154.5 -23q-57 0 -108 14t-90.5 42.5t-62 72t-22.5 102.5z" />
    <glyph glyph-name="uniFBA1" unicode="&#x6bb;" horiz-adv-x="730" arabic-form="final" 
d="M30 -1q0 36 10 80t32 97l72 -28q-16 -42 -24 -77t-8 -65q0 -55 27.5 -89.5t74 -50.5t102.5 -16q68 0 114 14.5t73 39.5t38.5 56.5t11.5 65.5q0 44 -6.5 83t-17 76.5t-22.5 76.5l81 22q11 -38 17 -61.5t9.5 -37.5t6.5 -25q11 -37 29 -54.5t41.5 -23t48.5 -5.5
q21 0 30.5 -11.5t9.5 -27.5t-14 -29.5t-36 -13.5q-42 0 -70 14.5t-43.5 36.5t-20.5 46l41 -51q-3 -51 -19.5 -99.5t-52.5 -88t-97.5 -62.5t-154.5 -23q-57 0 -108 14t-90.5 42.5t-62 72t-22.5 102.5zM333 424q-18 0 -42.5 1.5t-46.5 3.5l-33 3l2 58q20 -2 52.5 -5t60.5 -3
q33 0 53.5 4.5t30 13.5t9.5 20q0 14 -9 20t-23 6q-20 0 -39 -13.5t-33.5 -30t-21.5 -26.5l-56 4q17 33 42 61.5t55 46t61 17.5q38 0 60 -23t22 -57q0 -20 -11.5 -43.5t-42.5 -40.5t-90 -17zM264 490l-6 193h55l8 -167z" />
    <glyph glyph-name="uniFBA5" unicode="&#x6c0;" horiz-adv-x="486" arabic-form="final" 
d="M486 -5q-54 0 -95.5 15.5t-66 53t-27.5 104.5l-16 348h81l16 -330q3 -47 17 -70.5t39.5 -31t61.5 -7.5q21 0 30.5 -11.5t9.5 -27.5t-14 -29.5t-36 -13.5zM335 105q-57 -18 -111 -18t-98 16t-70 46.5t-26 73.5q0 42 21.5 79t59 66t87 48.5t105.5 26.5l14 -84
q-50 -2 -88.5 -13.5t-65 -29.5t-40.5 -39t-14 -41q0 -22 16 -36t41 -21.5t55 -9t58 2t48 10.5zM153 588l-12 54q26 6 42 10l36 9l-5 -21q-26 8 -49.5 34t-23.5 59q0 30 14.5 50.5t38 30.5t50.5 10q11 0 23.5 -2t23.5 -6l-8 -50q-10 2 -19 4t-20 2q-23 0 -36 -9.5t-13 -26.5
q0 -21 13.5 -36t31 -23.5t28.5 -8.5l-41 -4q27 7 50.5 14.5t42.5 14.5l16 -51q-24 -9 -56.5 -19t-65.5 -19t-61 -16z" />
    <glyph glyph-name="uni06C1.fina" unicode="&#x6c1;" horiz-adv-x="479" arabic-form="final" 
d="M479 -5q-57 0 -91.5 17t-56 47.5t-37.5 72.5t-34 91q-4 13 -19 18t-32 5q-26 0 -51.5 -11t-42 -33t-16.5 -54q0 -28 8.5 -53.5t19.5 -57.5l-72 -20q-8 23 -16.5 44t-13.5 44t-5 51q0 41 18 73t48 54t66 33.5t71 11.5q17 0 36.5 -3t36 -14.5t24.5 -36.5q16 -45 28.5 -81.5
t28.5 -62.5t42.5 -39.5t69.5 -13.5q21 0 30.5 -11.5t9.5 -27.5t-14 -29.5t-36 -13.5z" />
    <glyph glyph-name="uni06C1.init" unicode="&#x6c1;" horiz-adv-x="269" arabic-form="initial" 
d="M136 -27l26 -26q-31 -17 -40 -39.5t1 -52.5l-42 12q8 9 18 14t22 5q18 0 30 -8.5t12 -24.5q0 -13 -10 -27t-33 -14q-19 0 -32.5 14t-13.5 42q0 17 6.5 37t20 38.5t35.5 29.5zM0 -5l10 82q49 0 78 6t42 24.5t13 55.5q0 25 -8 59.5t-21 73.5t-28 77l81 30q13 -32 24.5 -73
t19.5 -81t8 -70q0 -40 -8.5 -70.5t-25.5 -52t-43.5 -35t-61.5 -20t-80 -6.5z" />
    <glyph glyph-name="uni06C1.medi" unicode="&#x6c1;" horiz-adv-x="438" arabic-form="medial" 
d="M251 -269q-46 32 -76.5 83t-47 108.5t-20.5 106.5q-15 -17 -40.5 -25.5t-66.5 -8.5l9 82q12 0 26.5 1.5t30.5 8.5t30.5 23t25.5 46l67 -17q-10 -40 -11 -81t6.5 -79.5t23.5 -72.5t39 -61q0 70 18.5 122t62.5 81t120 29q20 0 30 -11.5t10 -27.5t-13.5 -29.5t-34.5 -13.5
q-55 0 -83 -22.5t-37.5 -69t-9.5 -118.5z" />
    <glyph glyph-name="uni06BE.fina" unicode="&#x6be;" horiz-adv-x="614" arabic-form="final" 
d="M414 -217q-63 0 -114 29t-81 87.5t-30 146.5q0 81 18.5 149t49.5 117.5t68 76.5t74 27q33 0 60 -19.5t43 -56t16 -89.5q0 -36 -13 -75.5t-48.5 -73t-101.5 -51.5l65 55q32 -8 64.5 -14.5t67 -10.5t72.5 -4q21 0 30.5 -11.5t9.5 -27.5t-14 -29.5t-36 -13.5q-27 0 -58 3
t-62 7.5t-59 10.5l87 3q25 -27 34.5 -58.5t5 -63t-23 -57.5t-49.5 -41.5t-75 -15.5zM152 -5q-38 0 -71 8t-66 23l23 67q34 -11 65 -15.5t65 -4.5q17 0 34 1t36 2l4 -72q-25 -4 -47.5 -6.5t-42.5 -2.5zM416 -135q18 0 35.5 6.5t29 22t11.5 41.5q0 25 -12.5 45.5t-43.5 33.5
t-88 13q-14 0 -30.5 -2t-34 -5t-36.5 -7l-4 67q41 5 76 15t61 28.5t41 47.5t15 71q0 21 -4.5 42t-14.5 35.5t-25 14.5t-36 -20t-40.5 -56t-32.5 -85.5t-13 -108.5q0 -65 14.5 -104.5t37.5 -60t48 -27.5t46 -7z" />
    <glyph glyph-name="uniFBAC" unicode="&#x6be;" horiz-adv-x="574" arabic-form="initial" 
d="M385 -8q-41 0 -84 11.5t-82.5 32.5t-71 51.5t-50 68.5t-18.5 82q0 45 18.5 83t53 61.5t80.5 23.5q45 0 77 -24.5t49.5 -63t17.5 -80.5q0 -58 -32.5 -103.5t-87.5 -76.5t-121 -47t-134 -16l10 82q54 0 96.5 7.5t73.5 20.5q46 18 72.5 43.5t37.5 52.5t11 49q0 21 -8.5 40.5
t-24 32t-37.5 12.5t-39.5 -12.5t-27.5 -32.5t-10 -42q0 -42 21.5 -74.5t56 -55.5t74 -35t75.5 -12q34 0 50 11.5t16 38.5q0 5 -2.5 18.5t-16 37.5t-45.5 59.5t-90 85t-150 115.5l47 62q96 -70 158.5 -123.5t99 -93t54 -69t22.5 -52t5 -42.5q0 -33 -14.5 -62t-46 -47
t-83.5 -18z" />
    <glyph glyph-name="uni06BE.medi" unicode="&#x6be;" horiz-adv-x="507" arabic-form="medial" 
d="M307 -217q-63 0 -114 29t-81 87.5t-30 146.5q0 81 19 149t50.5 117.5t69.5 76.5t75 27q33 0 59 -19t41 -53t15 -81q0 -42 -13 -84t-48.5 -76t-101.5 -52l65 55q32 -8 64.5 -14.5t67 -10.5t72.5 -4q21 0 30.5 -11.5t9.5 -27.5t-14 -29.5t-36 -13.5q-27 0 -58 3t-62 7.5
t-59 10.5l87 3q25 -27 34.5 -58.5t5 -63t-23 -57.5t-49.5 -41.5t-75 -15.5zM0 -5l10 82h42t40 1l4 -74q-23 -4 -47.5 -6.5t-48.5 -2.5zM309 -135q18 0 35.5 6.5t29 22t11.5 41.5q0 25 -12.5 45.5t-43.5 33.5t-88 13q-12 0 -26.5 -1.5t-29.5 -4t-31 -6.5v68q38 5 69.5 15.5
t55.5 29.5t37 50t13 76q0 15 -3.5 34t-12.5 32.5t-24 13.5t-36.5 -20t-42 -56t-34 -85.5t-13.5 -108.5q0 -65 14.5 -104.5t37.5 -60t48 -27.5t46 -7z" />
    <glyph glyph-name="uni06D2.fina" unicode="&#x6d2;" horiz-adv-x="549" arabic-form="final" 
d="M439 -276q-91 0 -170.5 10.5t-140 32t-94.5 52t-34 69.5q0 41 34.5 75.5t104 59.5t174.5 38.5t246 13.5q21 0 30.5 -11.5t9.5 -27.5t-14 -29.5t-36 -13.5q-100 0 -185 -6.5t-148.5 -18.5t-99 -30t-35.5 -42q0 -18 22 -36t66 -32.5t112 -23.5t159 -9q48 0 73.5 0.5
t42.5 1.5t39 2l-10 -69q-12 -1 -24 -2.5t-27.5 -2t-38 -1t-56.5 -0.5z" />
    <glyph glyph-name="uniFBB1" unicode="&#x6d3;" horiz-adv-x="549" arabic-form="final" 
d="M439 -276q-91 0 -170.5 10.5t-140 32t-94.5 52t-34 69.5q0 41 34.5 75.5t104 59.5t174.5 38.5t246 13.5q21 0 30.5 -11.5t9.5 -27.5t-14 -29.5t-36 -13.5q-100 0 -185 -6.5t-148.5 -18.5t-99 -30t-35.5 -42q0 -18 22 -36t66 -32.5t112 -23.5t159 -9q48 0 73.5 0.5
t42.5 1.5t39 2l-10 -69q-12 -1 -24 -2.5t-27.5 -2t-38 -1t-56.5 -0.5zM105 99l-12 54q26 6 42 10l36 9l-5 -21q-26 8 -49.5 34t-23.5 59q0 30 14.5 50.5t38 30.5t50.5 10q11 0 23.5 -2t23.5 -6l-8 -50q-10 2 -19 4t-20 2q-23 0 -36 -9.5t-13 -26.5q0 -21 13.5 -36t31 -23.5
t28.5 -8.5l-41 -4q27 7 50.5 14.5t42.5 14.5l16 -51q-24 -9 -56.5 -19t-65.5 -19t-61 -16z" />
    <glyph glyph-name="uniFBD4" unicode="&#x6ad;" horiz-adv-x="922" arabic-form="final" 
d="M390 -21l26 82q98 0 162 7.5t99.5 24t49.5 43t12 64.5l-19 514h81l20 -505q2 -51 16.5 -80t39.5 -40.5t55 -11.5q21 0 30.5 -11.5t9.5 -27.5t-14 -29.5t-36 -13.5q-47 0 -76 14.5t-44.5 36.5t-20.5 46l21 -1q-20 -31 -54 -52.5t-84 -34.5t-117.5 -19t-156.5 -6zM390 -21
q-89 0 -156.5 11.5t-112.5 35.5t-68 62.5t-23 93.5q0 25 4 51.5t10.5 53.5t13.5 52l75 -19q-4 -15 -9 -35.5t-8.5 -41.5t-3.5 -38q0 -52 26.5 -83.5t92.5 -46t185 -14.5l20 -50zM364 204l-19 63q42 11 68 19t37.5 15.5t11.5 15.5q0 11 -11.5 20.5t-26 20t-26 24.5t-11.5 34
q0 18 10.5 37.5t37.5 41t76 45.5l31 -57q-46 -22 -67.5 -37.5t-21.5 -27.5q0 -9 11.5 -19t26 -22t26 -27.5t11.5 -36.5q0 -14 -6 -27.5t-23.5 -27t-49.5 -27t-85 -27.5zM469 741q-21 0 -35.5 14.5t-14.5 34.5t14.5 35t35.5 15q20 0 34.5 -15t14.5 -35t-14.5 -34.5
t-34.5 -14.5zM401 631q-21 0 -35.5 14.5t-14.5 34.5t14.5 35t35.5 15q20 0 34.5 -15t14.5 -35t-14.5 -34.5t-34.5 -14.5zM537 631q-21 0 -35.5 14.5t-14.5 34.5t14.5 35t35.5 15q20 0 34.5 -15t14.5 -35t-14.5 -34.5t-34.5 -14.5z" />
    <glyph glyph-name="uniFBD5" unicode="&#x6ad;" horiz-adv-x="412" arabic-form="initial" 
d="M0 -5l10 82h94q59 0 93.5 6.5t51 17t22 23t5.5 25.5q0 23 -17.5 57t-71.5 88q-28 28 -56 51.5t-51.5 42t-37.5 31.5t-14 20q0 15 2.5 29t7 26t11.5 19q20 21 51.5 42t74 44t96 49.5t117.5 58.5l34 -74q-80 -38 -133.5 -64.5t-90.5 -47t-65 -38.5t-57 -40l15 38
q63 -50 111.5 -94t81.5 -84.5t50 -79.5t17 -79q0 -22 -8 -48t-34 -49t-78 -37.5t-140 -14.5h-91zM126 754q-18 -11 -38 -5.5t-29 23.5q-10 18 -4.5 38t23.5 30t37.5 4t29.5 -24t4.5 -37.5t-23.5 -28.5zM120 624q-18 -10 -38 -4.5t-30 23.5q-9 18 -3.5 38t23.5 30t37.5 4
t29.5 -24t4.5 -37.5t-23.5 -29.5zM239 690q-18 -10 -38 -4.5t-30 23.5q-9 18 -3.5 38t23.5 30t37.5 4t29.5 -24t4.5 -37.5t-23.5 -29.5z" />
    <glyph glyph-name="uniFBD6" unicode="&#x6ad;" horiz-adv-x="508" arabic-form="medial" 
d="M0 -5l10 82h77q83 0 123 9t52.5 24t12.5 31q0 24 -18 53t-46 59.5t-59.5 60.5t-59.5 55t-46 43.5t-18 26.5q0 15 2.5 29t7 26t11.5 19q20 21 55 44.5t81 48t98 50t105 51.5l34 -74q-48 -24 -96 -47.5t-93 -46.5t-84.5 -46.5t-71.5 -47.5l6 34q45 -38 85 -73t76 -71.5
t67 -78.5t58 -93q21 -39 49 -57t55.5 -23.5t44.5 -5.5q21 0 30.5 -11.5t9.5 -27.5t-14 -29.5t-36 -13.5q-27 0 -63.5 8.5t-71.5 33.5t-58 76l30 -12q-15 -27 -34.5 -46.5t-49.5 -33t-73 -20t-105 -6.5h-83zM106 743q-18 -11 -38 -5.5t-29 23.5q-10 18 -4.5 38t23.5 30
t37.5 4t29.5 -24t4.5 -37.5t-23.5 -28.5zM100 613q-18 -10 -38 -4.5t-30 23.5q-9 18 -3.5 38t23.5 30t37.5 4t29.5 -24t4.5 -37.5t-23.5 -29.5zM219 679q-18 -10 -38 -4.5t-30 23.5q-9 18 -3.5 38t23.5 30t37.5 4t29.5 -24t4.5 -37.5t-23.5 -29.5z" />
    <glyph glyph-name="uniFBD8" unicode="&#x6c7;" horiz-adv-x="472" arabic-form="final" 
d="M58 -230l-18 82q60 8 110.5 22.5t87 41.5t56.5 71t20 110q0 68 -25 113t-65 45q-21 0 -39 -16t-29.5 -43t-11.5 -59q0 -18 8 -29.5t23.5 -18t39.5 -9.5t56 -3h211q21 0 30.5 -11.5t9.5 -27.5t-14 -29.5t-36 -13.5h-239q-45 0 -83.5 13t-62 40.5t-23.5 72.5q0 42 13 80.5
t35.5 69t53 48.5t66.5 18q46 0 82 -27t57 -81.5t21 -137.5q0 -93 -37.5 -160.5t-112 -107.5t-184.5 -53zM205 413l-39 39q46 25 59.5 59t-1.5 79l63 -18q-12 -14 -27 -21.5t-33 -7.5q-27 0 -45 13t-18 37q0 12 6.5 26.5t20.5 24.5t38 10q29 0 49 -20.5t20 -63.5
q0 -25 -9.5 -55.5t-30 -58t-53.5 -43.5z" />
    <glyph glyph-name="uniFBDA" unicode="&#x6c6;" horiz-adv-x="472" arabic-form="final" 
d="M58 -230l-18 82q60 8 110.5 22.5t87 41.5t56.5 71t20 110q0 68 -25 113t-65 45q-21 0 -39 -16t-29.5 -43t-11.5 -59q0 -18 8 -29.5t23.5 -18t39.5 -9.5t56 -3h211q21 0 30.5 -11.5t9.5 -27.5t-14 -29.5t-36 -13.5h-239q-45 0 -83.5 13t-62 40.5t-23.5 72.5q0 42 13 80.5
t35.5 69t53 48.5t66.5 18q46 0 82 -27t57 -81.5t21 -137.5q0 -93 -37.5 -160.5t-112 -107.5t-184.5 -53zM204 472q-7 15 -17.5 38t-23 48.5t-25 49t-21.5 39.5l46 25q6 -10 17 -30t23 -43t22.5 -45t17.5 -37l20 -39zM263 478l-44 16q6 17 17.5 44t24.5 55.5t23.5 50.5
t14.5 30l45 -19q-5 -10 -16 -32.5t-23.5 -50t-24 -53t-17.5 -41.5z" />
    <glyph glyph-name="uniFBDC" unicode="&#x6c8;" horiz-adv-x="472" arabic-form="final" 
d="M58 -230l-18 82q60 8 110.5 22.5t87 41.5t56.5 71t20 110q0 68 -25 113t-65 45q-21 0 -39 -16t-29.5 -43t-11.5 -59q0 -18 8 -29.5t23.5 -18t39.5 -9.5t56 -3h211q21 0 30.5 -11.5t9.5 -27.5t-14 -29.5t-36 -13.5h-239q-45 0 -83.5 13t-62 40.5t-23.5 72.5q0 42 13 80.5
t35.5 69t53 48.5t66.5 18q46 0 82 -27t57 -81.5t21 -137.5q0 -93 -37.5 -160.5t-112 -107.5t-184.5 -53zM205 481l-6 173h55l6 -173h-55z" />
    <glyph glyph-name="uniFBDF" unicode="&#x6cb;" horiz-adv-x="472" arabic-form="final" 
d="M58 -230l-18 82q60 8 110.5 22.5t87 41.5t56.5 71t20 110q0 68 -25 113t-65 45q-21 0 -39 -16t-29.5 -43t-11.5 -59q0 -18 8 -29.5t23.5 -18t39.5 -9.5t56 -3h211q21 0 30.5 -11.5t9.5 -27.5t-14 -29.5t-36 -13.5h-239q-45 0 -83.5 13t-62 40.5t-23.5 72.5q0 42 13 80.5
t35.5 69t53 48.5t66.5 18q46 0 82 -27t57 -81.5t21 -137.5q0 -93 -37.5 -160.5t-112 -107.5t-184.5 -53zM235 551q-21 0 -35.5 14.5t-14.5 34.5t14.5 35t35.5 15q20 0 34.5 -15t14.5 -35t-14.5 -34.5t-34.5 -14.5zM167 441q-21 0 -35.5 14.5t-14.5 34.5t14.5 35t35.5 15
q20 0 34.5 -15t14.5 -35t-14.5 -34.5t-34.5 -14.5zM303 441q-21 0 -35.5 14.5t-14.5 34.5t14.5 35t35.5 15q20 0 34.5 -15t14.5 -35t-14.5 -34.5t-34.5 -14.5z" />
    <glyph glyph-name="uni06C5.fina" unicode="&#x6c5;" horiz-adv-x="472" arabic-form="final" 
d="M482 77q21 0 30.5 -11.5t9.5 -27.5t-14 -29.5t-36 -13.5h-239q-45 0 -83.5 13t-62 40.5t-23.5 72.5q0 38 13 75t35.5 67.5t53 49t66.5 18.5q46 0 83 -28t59 -87.5t22 -152.5q0 -65 -15.5 -114t-45 -83.5t-69.5 -56t-90 -31.5t-106 -10h-12t-12 1l-6 79q69 2 120 11.5
t85.5 33t51.5 68t17 116.5q0 56 -12 94.5t-32.5 58.5t-45.5 20q-21 0 -39 -16t-29.5 -42t-11.5 -55q0 -18 8 -29.5t23.5 -18t39.5 -9.5t56 -3h211zM72 -103v59h283v-59h-283z" />
    <glyph glyph-name="uniFBE3" unicode="&#x6c9;" horiz-adv-x="472" arabic-form="final" 
d="M58 -230l-18 82q60 8 110.5 22.5t87 41.5t56.5 71t20 110q0 68 -25 113t-65 45q-21 0 -39 -16t-29.5 -43t-11.5 -59q0 -18 8 -29.5t23.5 -18t39.5 -9.5t56 -3h211q21 0 30.5 -11.5t9.5 -27.5t-14 -29.5t-36 -13.5h-239q-45 0 -83.5 13t-62 40.5t-23.5 72.5q0 42 13 80.5
t35.5 69t53 48.5t66.5 18q46 0 82 -27t57 -81.5t21 -137.5q0 -93 -37.5 -160.5t-112 -107.5t-184.5 -53zM257 666q7 -15 17.5 -38t23 -48.5t25 -49t21.5 -39.5l-46 -25q-6 10 -17 30t-23 43t-22.5 45t-17.5 37l-20 39zM198 660l44 -16q-6 -17 -17.5 -44t-24.5 -55.5
t-23 -50.5t-15 -30l-45 19q5 10 16 32.5t24 50t24 53t17 41.5z" />
    <glyph glyph-name="uniFBE5" unicode="&#x6d0;" horiz-adv-x="736" arabic-form="final" 
d="M30 -1q0 24 4.5 51.5t14 59t23.5 66.5l72 -28q-10 -28 -17.5 -53t-11 -47t-3.5 -42q0 -42 18.5 -71.5t51.5 -48.5t75.5 -28t90.5 -9q58 0 108.5 10t89 28.5t60.5 42t22 50.5q0 13 -10 24t-30 21t-48 19.5t-64 19.5l19 83q52 -20 92 -33.5t70 -21.5t52 -11.5t37 -3.5
q21 0 30.5 -11.5t9.5 -27.5t-14 -29.5t-36 -13.5h-12h-12.5h-12.5q2 -9 3 -14.5t1 -14.5q0 -37 -25.5 -72t-74.5 -63.5t-118.5 -45.5t-158.5 -17q-79 0 -146.5 25.5t-108.5 76.5t-41 129zM326 -419q-21 0 -35.5 14.5t-14.5 34.5t14.5 35t35.5 15q20 0 34.5 -15t14.5 -35
t-14.5 -34.5t-34.5 -14.5zM327 -548q-21 0 -35.5 14.5t-14.5 34.5t14.5 35t35.5 15q20 0 34.5 -15t14.5 -35t-14.5 -34.5t-34.5 -14.5z" />
    <glyph glyph-name="uniFBE6" unicode="&#x6d0;" horiz-adv-x="299" arabic-form="initial" 
d="M0 -5l10 82q59 0 92 4.5t47 23t14 58.5q0 25 -8 59.5t-21 73.5t-28 77l81 30q13 -32 24.5 -73t19.5 -81t8 -70q0 -50 -13.5 -85t-42.5 -57t-74.5 -32t-108.5 -10zM113 -192q-21 0 -35.5 14.5t-14.5 34.5t14.5 35t35.5 15q20 0 34.5 -15t14.5 -35t-14.5 -34.5t-34.5 -14.5
zM114 -321q-21 0 -35.5 14.5t-14.5 34.5t14.5 35t35.5 15q20 0 34.5 -15t14.5 -35t-14.5 -34.5t-34.5 -14.5z" />
    <glyph glyph-name="uniFBE7" unicode="&#x6d0;" horiz-adv-x="373" arabic-form="medial" 
d="M0 -5l10 82q50 0 78 7.5t42.5 29t23.5 62.5t22 107l78 -15q-4 -18 -9 -40t-8.5 -43.5t-3.5 -37.5q0 -15 2 -28t15 -22t44 -14.5t89 -5.5q21 0 30.5 -11.5t9.5 -27.5t-14 -29.5t-36 -13.5q-61 0 -97 6.5t-54.5 19.5t-26 32.5t-11.5 45.5l30 -2q-16 -32 -34.5 -52
t-42.5 -31t-57.5 -15t-79.5 -4zM180 -192q-21 0 -35.5 14.5t-14.5 34.5t14.5 35t35.5 15q20 0 34.5 -15t14.5 -35t-14.5 -34.5t-34.5 -14.5zM181 -321q-21 0 -35.5 14.5t-14.5 34.5t14.5 35t35.5 15q20 0 34.5 -15t14.5 -35t-14.5 -34.5t-34.5 -14.5z" />
    <glyph glyph-name="uniFBE8" unicode="&#x649;" horiz-adv-x="269" arabic-form="initial" 
d="M0 -5l10 82q49 0 78 6t42 24.5t13 55.5q0 25 -8 59.5t-21 73.5t-28 77l81 30q13 -32 24.5 -73t19.5 -81t8 -70q0 -40 -8.5 -70.5t-25.5 -52t-43.5 -35t-61.5 -20t-80 -6.5z" />
    <glyph glyph-name="uniFBE9" unicode="&#x649;" horiz-adv-x="343" arabic-form="medial" 
d="M0 -5l10 82q42 0 66 7.5t36.5 29t21.5 62.5t22 107l78 -15q-4 -18 -9 -40t-8.5 -43.5t-3.5 -37.5q0 -20 9 -36t39 -25t92 -9q21 0 30.5 -11.5t9.5 -27.5t-14 -29.5t-36 -13.5q-65 0 -102 11.5t-54 35t-23 57.5l30 -2q-16 -32 -34.5 -52t-40.5 -31t-51 -15t-68 -4z" />
    <glyph glyph-name="uniFBEA" unicode="&#xfbea;" horiz-adv-x="560" arabic-form="isolated" 
d="M291 -5l10 82q49 0 78 6t42 24.5t13 55.5q0 25 -8 59.5t-21 73.5t-28 77l81 30q13 -32 24.5 -73t19.5 -81t8 -70q0 -40 -8.5 -70.5t-25.5 -52t-43.5 -35t-61.5 -20t-80 -6.5zM328 464l-12 54q26 6 42 10l36 9l-5 -21q-26 8 -49.5 34t-23.5 59q0 30 14.5 50.5t38 30.5
t50.5 10q11 0 23.5 -2t23.5 -6l-8 -50q-10 2 -19 4t-20 2q-23 0 -36 -9.5t-13 -26.5q0 -21 13.5 -36t31 -23.5t28.5 -8.5l-41 -4q27 7 50.5 14.5t42.5 14.5l16 -51q-24 -9 -56.5 -19t-65.5 -19t-61 -16zM291 -5q-80 0 -122.5 18t-58.5 56t-18 98l-20 547h82l20 -515
q2 -49 9.5 -75.5t34 -36.5t83.5 -10q21 0 30.5 -11.5t9.5 -27.5t-14 -29.5t-36 -13.5z" />
    <glyph glyph-name="uniFBEB" unicode="&#xfbeb;" horiz-adv-x="634" arabic-form="final" 
d="M291 -5l10 82q42 0 66 7.5t36.5 29t21.5 62.5t22 107l78 -15q-4 -18 -9 -40t-8.5 -43.5t-3.5 -37.5q0 -20 9 -36t39 -25t92 -9q21 0 30.5 -11.5t9.5 -27.5t-14 -29.5t-36 -13.5q-65 0 -102 11.5t-54 35t-23 57.5l30 -2q-16 -32 -34.5 -52t-40.5 -31t-51 -15t-68 -4z
M356 343l-12 54q26 6 42 10l36 9l-5 -21q-26 8 -49.5 34t-23.5 59q0 30 14.5 50.5t38 30.5t50.5 10q11 0 23.5 -2t23.5 -6l-8 -50q-10 2 -19 4t-20 2q-23 0 -36 -9.5t-13 -26.5q0 -21 13.5 -36t31 -23.5t28.5 -8.5l-41 -4q27 7 50.5 14.5t42.5 14.5l16 -51q-24 -9 -56.5 -19
t-65.5 -19t-61 -16zM291 -5q-80 0 -122.5 18t-58.5 56t-18 98l-20 547h82l20 -515q2 -49 9.5 -75.5t34 -36.5t83.5 -10q21 0 30.5 -11.5t9.5 -27.5t-14 -29.5t-36 -13.5z" />
    <glyph glyph-name="uniFBEC" unicode="&#xfbec;" horiz-adv-x="748" arabic-form="isolated" 
d="M479 -5l10 82q49 0 78 6t42 24.5t13 55.5q0 25 -8 59.5t-21 73.5t-28 77l81 30q13 -32 24.5 -73t19.5 -81t8 -70q0 -40 -8.5 -70.5t-25.5 -52t-43.5 -35t-61.5 -20t-80 -6.5zM516 464l-12 54q26 6 42 10l36 9l-5 -21q-26 8 -49.5 34t-23.5 59q0 30 14.5 50.5t38 30.5
t50.5 10q11 0 23.5 -2t23.5 -6l-8 -50q-10 2 -19 4t-20 2q-23 0 -36 -9.5t-13 -26.5q0 -21 13.5 -36t31 -23.5t28.5 -8.5l-41 -4q27 7 50.5 14.5t42.5 14.5l16 -51q-24 -9 -56.5 -19t-65.5 -19t-61 -16zM479 -5q-57 0 -91.5 17t-56 47.5t-37.5 72.5t-34 91q-4 13 -19 18
t-32 5q-26 0 -51.5 -11t-42 -33t-16.5 -54q0 -28 8.5 -53.5t19.5 -57.5l-72 -20q-8 23 -16.5 44t-13.5 44t-5 51q0 41 18 73t48 54t66 33.5t71 11.5q17 0 36.5 -3t36 -14.5t24.5 -36.5q16 -45 28.5 -81.5t28.5 -62.5t42.5 -39.5t69.5 -13.5q21 0 30.5 -11.5t9.5 -27.5
t-14 -29.5t-36 -13.5z" />
    <glyph glyph-name="uniFBED" unicode="&#xfbed;" horiz-adv-x="822" arabic-form="final" 
d="M479 -5l10 82q42 0 66 7.5t36.5 29t21.5 62.5t22 107l78 -15q-4 -18 -9 -40t-8.5 -43.5t-3.5 -37.5q0 -20 9 -36t39 -25t92 -9q21 0 30.5 -11.5t9.5 -27.5t-14 -29.5t-36 -13.5q-65 0 -102 11.5t-54 35t-23 57.5l30 -2q-16 -32 -34.5 -52t-40.5 -31t-51 -15t-68 -4z
M544 343l-12 54q26 6 42 10l36 9l-5 -21q-26 8 -49.5 34t-23.5 59q0 30 14.5 50.5t38 30.5t50.5 10q11 0 23.5 -2t23.5 -6l-8 -50q-10 2 -19 4t-20 2q-23 0 -36 -9.5t-13 -26.5q0 -21 13.5 -36t31 -23.5t28.5 -8.5l-41 -4q27 7 50.5 14.5t42.5 14.5l16 -51q-24 -9 -56.5 -19
t-65.5 -19t-61 -16zM479 -5q-57 0 -91.5 17t-56 47.5t-37.5 72.5t-34 91q-4 13 -19 18t-32 5q-26 0 -51.5 -11t-42 -33t-16.5 -54q0 -28 8.5 -53.5t19.5 -57.5l-72 -20q-8 23 -16.5 44t-13.5 44t-5 51q0 41 18 73t48 54t66 33.5t71 11.5q17 0 36.5 -3t36 -14.5t24.5 -36.5
q16 -45 28.5 -81.5t28.5 -62.5t42.5 -39.5t69.5 -13.5q21 0 30.5 -11.5t9.5 -27.5t-14 -29.5t-36 -13.5z" />
    <glyph glyph-name="uniFBEE" unicode="&#xfbee;" horiz-adv-x="741" arabic-form="isolated" 
d="M472 -5l10 82q49 0 78 6t42 24.5t13 55.5q0 25 -8 59.5t-21 73.5t-28 77l81 30q13 -32 24.5 -73t19.5 -81t8 -70q0 -40 -8.5 -70.5t-25.5 -52t-43.5 -35t-61.5 -20t-80 -6.5zM509 464l-12 54q26 6 42 10l36 9l-5 -21q-26 8 -49.5 34t-23.5 59q0 30 14.5 50.5t38 30.5
t50.5 10q11 0 23.5 -2t23.5 -6l-8 -50q-10 2 -19 4t-20 2q-23 0 -36 -9.5t-13 -26.5q0 -21 13.5 -36t31 -23.5t28.5 -8.5l-41 -4q27 7 50.5 14.5t42.5 14.5l16 -51q-24 -9 -56.5 -19t-65.5 -19t-61 -16zM58 -230l-18 82q60 8 110.5 22.5t87 41.5t56.5 71t20 110
q0 68 -25 113t-65 45q-21 0 -39 -16t-29.5 -43t-11.5 -59q0 -18 8 -29.5t23.5 -18t39.5 -9.5t56 -3h211q21 0 30.5 -11.5t9.5 -27.5t-14 -29.5t-36 -13.5h-239q-45 0 -83.5 13t-62 40.5t-23.5 72.5q0 42 13 80.5t35.5 69t53 48.5t66.5 18q46 0 82 -27t57 -81.5t21 -137.5
q0 -93 -37.5 -160.5t-112 -107.5t-184.5 -53z" />
    <glyph glyph-name="uniFBEF" unicode="&#xfbef;" horiz-adv-x="815" arabic-form="final" 
d="M472 -5l10 82q42 0 66 7.5t36.5 29t21.5 62.5t22 107l78 -15q-4 -18 -9 -40t-8.5 -43.5t-3.5 -37.5q0 -20 9 -36t39 -25t92 -9q21 0 30.5 -11.5t9.5 -27.5t-14 -29.5t-36 -13.5q-65 0 -102 11.5t-54 35t-23 57.5l30 -2q-16 -32 -34.5 -52t-40.5 -31t-51 -15t-68 -4z
M537 343l-12 54q26 6 42 10l36 9l-5 -21q-26 8 -49.5 34t-23.5 59q0 30 14.5 50.5t38 30.5t50.5 10q11 0 23.5 -2t23.5 -6l-8 -50q-10 2 -19 4t-20 2q-23 0 -36 -9.5t-13 -26.5q0 -21 13.5 -36t31 -23.5t28.5 -8.5l-41 -4q27 7 50.5 14.5t42.5 14.5l16 -51q-24 -9 -56.5 -19
t-65.5 -19t-61 -16zM58 -230l-18 82q60 8 110.5 22.5t87 41.5t56.5 71t20 110q0 68 -25 113t-65 45q-21 0 -39 -16t-29.5 -43t-11.5 -59q0 -18 8 -29.5t23.5 -18t39.5 -9.5t56 -3h211q21 0 30.5 -11.5t9.5 -27.5t-14 -29.5t-36 -13.5h-239q-45 0 -83.5 13t-62 40.5
t-23.5 72.5q0 42 13 80.5t35.5 69t53 48.5t66.5 18q46 0 82 -27t57 -81.5t21 -137.5q0 -93 -37.5 -160.5t-112 -107.5t-184.5 -53z" />
    <glyph glyph-name="uniFBF0" unicode="&#xfbf0;" horiz-adv-x="741" arabic-form="isolated" 
d="M472 -5l10 82q49 0 78 6t42 24.5t13 55.5q0 25 -8 59.5t-21 73.5t-28 77l81 30q13 -32 24.5 -73t19.5 -81t8 -70q0 -40 -8.5 -70.5t-25.5 -52t-43.5 -35t-61.5 -20t-80 -6.5zM509 464l-12 54q26 6 42 10l36 9l-5 -21q-26 8 -49.5 34t-23.5 59q0 30 14.5 50.5t38 30.5
t50.5 10q11 0 23.5 -2t23.5 -6l-8 -50q-10 2 -19 4t-20 2q-23 0 -36 -9.5t-13 -26.5q0 -21 13.5 -36t31 -23.5t28.5 -8.5l-41 -4q27 7 50.5 14.5t42.5 14.5l16 -51q-24 -9 -56.5 -19t-65.5 -19t-61 -16zM58 -230l-18 82q60 8 110.5 22.5t87 41.5t56.5 71t20 110
q0 68 -25 113t-65 45q-21 0 -39 -16t-29.5 -43t-11.5 -59q0 -18 8 -29.5t23.5 -18t39.5 -9.5t56 -3h211q21 0 30.5 -11.5t9.5 -27.5t-14 -29.5t-36 -13.5h-239q-45 0 -83.5 13t-62 40.5t-23.5 72.5q0 42 13 80.5t35.5 69t53 48.5t66.5 18q46 0 82 -27t57 -81.5t21 -137.5
q0 -93 -37.5 -160.5t-112 -107.5t-184.5 -53zM205 413l-39 39q46 25 59.5 59t-1.5 79l63 -18q-12 -14 -27 -21.5t-33 -7.5q-27 0 -45 13t-18 37q0 12 6.5 26.5t20.5 24.5t38 10q29 0 49 -20.5t20 -63.5q0 -25 -9.5 -55.5t-30 -58t-53.5 -43.5z" />
    <glyph glyph-name="uniFBF1" unicode="&#xfbf1;" horiz-adv-x="815" arabic-form="final" 
d="M472 -5l10 82q42 0 66 7.5t36.5 29t21.5 62.5t22 107l78 -15q-4 -18 -9 -40t-8.5 -43.5t-3.5 -37.5q0 -20 9 -36t39 -25t92 -9q21 0 30.5 -11.5t9.5 -27.5t-14 -29.5t-36 -13.5q-65 0 -102 11.5t-54 35t-23 57.5l30 -2q-16 -32 -34.5 -52t-40.5 -31t-51 -15t-68 -4z
M537 343l-12 54q26 6 42 10l36 9l-5 -21q-26 8 -49.5 34t-23.5 59q0 30 14.5 50.5t38 30.5t50.5 10q11 0 23.5 -2t23.5 -6l-8 -50q-10 2 -19 4t-20 2q-23 0 -36 -9.5t-13 -26.5q0 -21 13.5 -36t31 -23.5t28.5 -8.5l-41 -4q27 7 50.5 14.5t42.5 14.5l16 -51q-24 -9 -56.5 -19
t-65.5 -19t-61 -16zM58 -230l-18 82q60 8 110.5 22.5t87 41.5t56.5 71t20 110q0 68 -25 113t-65 45q-21 0 -39 -16t-29.5 -43t-11.5 -59q0 -18 8 -29.5t23.5 -18t39.5 -9.5t56 -3h211q21 0 30.5 -11.5t9.5 -27.5t-14 -29.5t-36 -13.5h-239q-45 0 -83.5 13t-62 40.5
t-23.5 72.5q0 42 13 80.5t35.5 69t53 48.5t66.5 18q46 0 82 -27t57 -81.5t21 -137.5q0 -93 -37.5 -160.5t-112 -107.5t-184.5 -53zM205 413l-39 39q46 25 59.5 59t-1.5 79l63 -18q-12 -14 -27 -21.5t-33 -7.5q-27 0 -45 13t-18 37q0 12 6.5 26.5t20.5 24.5t38 10
q29 0 49 -20.5t20 -63.5q0 -25 -9.5 -55.5t-30 -58t-53.5 -43.5z" />
    <glyph glyph-name="uniFBF2" unicode="&#xfbf2;" horiz-adv-x="741" arabic-form="isolated" 
d="M472 -5l10 82q49 0 78 6t42 24.5t13 55.5q0 25 -8 59.5t-21 73.5t-28 77l81 30q13 -32 24.5 -73t19.5 -81t8 -70q0 -40 -8.5 -70.5t-25.5 -52t-43.5 -35t-61.5 -20t-80 -6.5zM509 464l-12 54q26 6 42 10l36 9l-5 -21q-26 8 -49.5 34t-23.5 59q0 30 14.5 50.5t38 30.5
t50.5 10q11 0 23.5 -2t23.5 -6l-8 -50q-10 2 -19 4t-20 2q-23 0 -36 -9.5t-13 -26.5q0 -21 13.5 -36t31 -23.5t28.5 -8.5l-41 -4q27 7 50.5 14.5t42.5 14.5l16 -51q-24 -9 -56.5 -19t-65.5 -19t-61 -16zM58 -230l-18 82q60 8 110.5 22.5t87 41.5t56.5 71t20 110
q0 68 -25 113t-65 45q-21 0 -39 -16t-29.5 -43t-11.5 -59q0 -18 8 -29.5t23.5 -18t39.5 -9.5t56 -3h211q21 0 30.5 -11.5t9.5 -27.5t-14 -29.5t-36 -13.5h-239q-45 0 -83.5 13t-62 40.5t-23.5 72.5q0 42 13 80.5t35.5 69t53 48.5t66.5 18q46 0 82 -27t57 -81.5t21 -137.5
q0 -93 -37.5 -160.5t-112 -107.5t-184.5 -53zM204 472q-7 15 -17.5 38t-23 48.5t-25 49t-21.5 39.5l46 25q6 -10 17 -30t23 -43t22.5 -45t17.5 -37l20 -39zM263 478l-44 16q6 17 17.5 44t24.5 55.5t23.5 50.5t14.5 30l45 -19q-5 -10 -16 -32.5t-23.5 -50t-24 -53
t-17.5 -41.5z" />
    <glyph glyph-name="uniFBF3" unicode="&#xfbf3;" horiz-adv-x="815" arabic-form="final" 
d="M472 -5l10 82q42 0 66 7.5t36.5 29t21.5 62.5t22 107l78 -15q-4 -18 -9 -40t-8.5 -43.5t-3.5 -37.5q0 -20 9 -36t39 -25t92 -9q21 0 30.5 -11.5t9.5 -27.5t-14 -29.5t-36 -13.5q-65 0 -102 11.5t-54 35t-23 57.5l30 -2q-16 -32 -34.5 -52t-40.5 -31t-51 -15t-68 -4z
M537 343l-12 54q26 6 42 10l36 9l-5 -21q-26 8 -49.5 34t-23.5 59q0 30 14.5 50.5t38 30.5t50.5 10q11 0 23.5 -2t23.5 -6l-8 -50q-10 2 -19 4t-20 2q-23 0 -36 -9.5t-13 -26.5q0 -21 13.5 -36t31 -23.5t28.5 -8.5l-41 -4q27 7 50.5 14.5t42.5 14.5l16 -51q-24 -9 -56.5 -19
t-65.5 -19t-61 -16zM58 -230l-18 82q60 8 110.5 22.5t87 41.5t56.5 71t20 110q0 68 -25 113t-65 45q-21 0 -39 -16t-29.5 -43t-11.5 -59q0 -18 8 -29.5t23.5 -18t39.5 -9.5t56 -3h211q21 0 30.5 -11.5t9.5 -27.5t-14 -29.5t-36 -13.5h-239q-45 0 -83.5 13t-62 40.5
t-23.5 72.5q0 42 13 80.5t35.5 69t53 48.5t66.5 18q46 0 82 -27t57 -81.5t21 -137.5q0 -93 -37.5 -160.5t-112 -107.5t-184.5 -53zM204 472q-7 15 -17.5 38t-23 48.5t-25 49t-21.5 39.5l46 25q6 -10 17 -30t23 -43t22.5 -45t17.5 -37l20 -39zM263 478l-44 16q6 17 17.5 44
t24.5 55.5t23.5 50.5t14.5 30l45 -19q-5 -10 -16 -32.5t-23.5 -50t-24 -53t-17.5 -41.5z" />
    <glyph glyph-name="uniFBF4" unicode="&#xfbf4;" horiz-adv-x="741" arabic-form="isolated" 
d="M472 -5l10 82q49 0 78 6t42 24.5t13 55.5q0 25 -8 59.5t-21 73.5t-28 77l81 30q13 -32 24.5 -73t19.5 -81t8 -70q0 -40 -8.5 -70.5t-25.5 -52t-43.5 -35t-61.5 -20t-80 -6.5zM509 464l-12 54q26 6 42 10l36 9l-5 -21q-26 8 -49.5 34t-23.5 59q0 30 14.5 50.5t38 30.5
t50.5 10q11 0 23.5 -2t23.5 -6l-8 -50q-10 2 -19 4t-20 2q-23 0 -36 -9.5t-13 -26.5q0 -21 13.5 -36t31 -23.5t28.5 -8.5l-41 -4q27 7 50.5 14.5t42.5 14.5l16 -51q-24 -9 -56.5 -19t-65.5 -19t-61 -16zM58 -230l-18 82q60 8 110.5 22.5t87 41.5t56.5 71t20 110
q0 68 -25 113t-65 45q-21 0 -39 -16t-29.5 -43t-11.5 -59q0 -18 8 -29.5t23.5 -18t39.5 -9.5t56 -3h211q21 0 30.5 -11.5t9.5 -27.5t-14 -29.5t-36 -13.5h-239q-45 0 -83.5 13t-62 40.5t-23.5 72.5q0 42 13 80.5t35.5 69t53 48.5t66.5 18q46 0 82 -27t57 -81.5t21 -137.5
q0 -93 -37.5 -160.5t-112 -107.5t-184.5 -53zM205 481l-6 173h55l6 -173h-55z" />
    <glyph glyph-name="uniFBF5" unicode="&#xfbf5;" horiz-adv-x="815" arabic-form="final" 
d="M472 -5l10 82q42 0 66 7.5t36.5 29t21.5 62.5t22 107l78 -15q-4 -18 -9 -40t-8.5 -43.5t-3.5 -37.5q0 -20 9 -36t39 -25t92 -9q21 0 30.5 -11.5t9.5 -27.5t-14 -29.5t-36 -13.5q-65 0 -102 11.5t-54 35t-23 57.5l30 -2q-16 -32 -34.5 -52t-40.5 -31t-51 -15t-68 -4z
M537 343l-12 54q26 6 42 10l36 9l-5 -21q-26 8 -49.5 34t-23.5 59q0 30 14.5 50.5t38 30.5t50.5 10q11 0 23.5 -2t23.5 -6l-8 -50q-10 2 -19 4t-20 2q-23 0 -36 -9.5t-13 -26.5q0 -21 13.5 -36t31 -23.5t28.5 -8.5l-41 -4q27 7 50.5 14.5t42.5 14.5l16 -51q-24 -9 -56.5 -19
t-65.5 -19t-61 -16zM58 -230l-18 82q60 8 110.5 22.5t87 41.5t56.5 71t20 110q0 68 -25 113t-65 45q-21 0 -39 -16t-29.5 -43t-11.5 -59q0 -18 8 -29.5t23.5 -18t39.5 -9.5t56 -3h211q21 0 30.5 -11.5t9.5 -27.5t-14 -29.5t-36 -13.5h-239q-45 0 -83.5 13t-62 40.5
t-23.5 72.5q0 42 13 80.5t35.5 69t53 48.5t66.5 18q46 0 82 -27t57 -81.5t21 -137.5q0 -93 -37.5 -160.5t-112 -107.5t-184.5 -53zM205 481l-6 173h55l6 -173h-55z" />
    <glyph glyph-name="uniFBF6" unicode="&#xfbf6;" horiz-adv-x="1005" arabic-form="isolated" 
d="M736 -5l10 82q49 0 78 6t42 24.5t13 55.5q0 25 -8 59.5t-21 73.5t-28 77l81 30q13 -32 24.5 -73t19.5 -81t8 -70q0 -40 -8.5 -70.5t-25.5 -52t-43.5 -35t-61.5 -20t-80 -6.5zM773 464l-12 54q26 6 42 10l36 9l-5 -21q-26 8 -49.5 34t-23.5 59q0 30 14.5 50.5t38 30.5
t50.5 10q11 0 23.5 -2t23.5 -6l-8 -50q-10 2 -19 4t-20 2q-23 0 -36 -9.5t-13 -26.5q0 -21 13.5 -36t31 -23.5t28.5 -8.5l-41 -4q27 7 50.5 14.5t42.5 14.5l16 -51q-24 -9 -56.5 -19t-65.5 -19t-61 -16zM30 -1q0 24 4.5 51.5t14 59t23.5 66.5l72 -28q-10 -28 -17.5 -53
t-11 -47t-3.5 -42q0 -42 18.5 -71.5t51.5 -48.5t75.5 -28t90.5 -9q58 0 108.5 10t89 28.5t60.5 42t22 50.5q0 13 -10 24t-30 21t-48 19.5t-64 19.5l19 83q52 -20 92 -33.5t70 -21.5t52 -11.5t37 -3.5q21 0 30.5 -11.5t9.5 -27.5t-14 -29.5t-36 -13.5h-12h-12.5h-12.5
q2 -9 3 -14.5t1 -14.5q0 -37 -25.5 -72t-74.5 -63.5t-118.5 -45.5t-158.5 -17q-79 0 -146.5 25.5t-108.5 76.5t-41 129zM326 -419q-21 0 -35.5 14.5t-14.5 34.5t14.5 35t35.5 15q20 0 34.5 -15t14.5 -35t-14.5 -34.5t-34.5 -14.5zM327 -548q-21 0 -35.5 14.5t-14.5 34.5
t14.5 35t35.5 15q20 0 34.5 -15t14.5 -35t-14.5 -34.5t-34.5 -14.5z" />
    <glyph glyph-name="uniFBF7" unicode="&#xfbf7;" horiz-adv-x="1079" arabic-form="final" 
d="M736 -5l10 82q42 0 66 7.5t36.5 29t21.5 62.5t22 107l78 -15q-4 -18 -9 -40t-8.5 -43.5t-3.5 -37.5q0 -20 9 -36t39 -25t92 -9q21 0 30.5 -11.5t9.5 -27.5t-14 -29.5t-36 -13.5q-65 0 -102 11.5t-54 35t-23 57.5l30 -2q-16 -32 -34.5 -52t-40.5 -31t-51 -15t-68 -4z
M801 343l-12 54q26 6 42 10l36 9l-5 -21q-26 8 -49.5 34t-23.5 59q0 30 14.5 50.5t38 30.5t50.5 10q11 0 23.5 -2t23.5 -6l-8 -50q-10 2 -19 4t-20 2q-23 0 -36 -9.5t-13 -26.5q0 -21 13.5 -36t31 -23.5t28.5 -8.5l-41 -4q27 7 50.5 14.5t42.5 14.5l16 -51q-24 -9 -56.5 -19
t-65.5 -19t-61 -16zM30 -1q0 24 4.5 51.5t14 59t23.5 66.5l72 -28q-10 -28 -17.5 -53t-11 -47t-3.5 -42q0 -42 18.5 -71.5t51.5 -48.5t75.5 -28t90.5 -9q58 0 108.5 10t89 28.5t60.5 42t22 50.5q0 13 -10 24t-30 21t-48 19.5t-64 19.5l19 83q52 -20 92 -33.5t70 -21.5
t52 -11.5t37 -3.5q21 0 30.5 -11.5t9.5 -27.5t-14 -29.5t-36 -13.5h-12h-12.5h-12.5q2 -9 3 -14.5t1 -14.5q0 -37 -25.5 -72t-74.5 -63.5t-118.5 -45.5t-158.5 -17q-79 0 -146.5 25.5t-108.5 76.5t-41 129zM326 -419q-21 0 -35.5 14.5t-14.5 34.5t14.5 35t35.5 15
q20 0 34.5 -15t14.5 -35t-14.5 -34.5t-34.5 -14.5zM327 -548q-21 0 -35.5 14.5t-14.5 34.5t14.5 35t35.5 15q20 0 34.5 -15t14.5 -35t-14.5 -34.5t-34.5 -14.5z" />
    <glyph glyph-name="uniFBF8" unicode="&#xfbf8;" horiz-adv-x="642" arabic-form="initial" 
d="M373 -5l10 82q49 0 78 6t42 24.5t13 55.5q0 25 -8 59.5t-21 73.5t-28 77l81 30q13 -32 24.5 -73t19.5 -81t8 -70q0 -40 -8.5 -70.5t-25.5 -52t-43.5 -35t-61.5 -20t-80 -6.5zM410 464l-12 54q26 6 42 10l36 9l-5 -21q-26 8 -49.5 34t-23.5 59q0 30 14.5 50.5t38 30.5
t50.5 10q11 0 23.5 -2t23.5 -6l-8 -50q-10 2 -19 4t-20 2q-23 0 -36 -9.5t-13 -26.5q0 -21 13.5 -36t31 -23.5t28.5 -8.5l-41 -4q27 7 50.5 14.5t42.5 14.5l16 -51q-24 -9 -56.5 -19t-65.5 -19t-61 -16zM0 -5l10 82q50 0 78 7.5t42.5 29t23.5 62.5t22 107l78 -15
q-4 -18 -9 -40t-8.5 -43.5t-3.5 -37.5q0 -15 2 -28t15 -22t44 -14.5t89 -5.5q21 0 30.5 -11.5t9.5 -27.5t-14 -29.5t-36 -13.5q-61 0 -97 6.5t-54.5 19.5t-26 32.5t-11.5 45.5l30 -2q-16 -32 -34.5 -52t-42.5 -31t-57.5 -15t-79.5 -4zM180 -192q-21 0 -35.5 14.5t-14.5 34.5
t14.5 35t35.5 15q20 0 34.5 -15t14.5 -35t-14.5 -34.5t-34.5 -14.5zM181 -321q-21 0 -35.5 14.5t-14.5 34.5t14.5 35t35.5 15q20 0 34.5 -15t14.5 -35t-14.5 -34.5t-34.5 -14.5z" />
    <glyph glyph-name="uniFBF9" unicode="&#xfbf9;" horiz-adv-x="1005" arabic-form="isolated" 
d="M736 -5l10 82q49 0 78 6t42 24.5t13 55.5q0 25 -8 59.5t-21 73.5t-28 77l81 30q13 -32 24.5 -73t19.5 -81t8 -70q0 -40 -8.5 -70.5t-25.5 -52t-43.5 -35t-61.5 -20t-80 -6.5zM773 464l-12 54q26 6 42 10l36 9l-5 -21q-26 8 -49.5 34t-23.5 59q0 30 14.5 50.5t38 30.5
t50.5 10q11 0 23.5 -2t23.5 -6l-8 -50q-10 2 -19 4t-20 2q-23 0 -36 -9.5t-13 -26.5q0 -21 13.5 -36t31 -23.5t28.5 -8.5l-41 -4q27 7 50.5 14.5t42.5 14.5l16 -51q-24 -9 -56.5 -19t-65.5 -19t-61 -16zM30 -1q0 24 4.5 51.5t14 59t23.5 66.5l72 -28q-10 -28 -17.5 -53
t-11 -47t-3.5 -42q0 -42 18.5 -71.5t51.5 -48.5t75.5 -28t90.5 -9q58 0 108.5 10t89 28.5t60.5 42t22 50.5q0 13 -10 24t-30 21t-48 19.5t-64 19.5l19 83q52 -20 92 -33.5t70 -21.5t52 -11.5t37 -3.5q21 0 30.5 -11.5t9.5 -27.5t-14 -29.5t-36 -13.5h-12h-12.5h-12.5
q2 -9 3 -14.5t1 -14.5q0 -37 -25.5 -72t-74.5 -63.5t-118.5 -45.5t-158.5 -17q-79 0 -146.5 25.5t-108.5 76.5t-41 129z" />
    <glyph glyph-name="uniFBFA" unicode="&#xfbfa;" horiz-adv-x="1079" arabic-form="final" 
d="M736 -5l10 82q42 0 66 7.5t36.5 29t21.5 62.5t22 107l78 -15q-4 -18 -9 -40t-8.5 -43.5t-3.5 -37.5q0 -20 9 -36t39 -25t92 -9q21 0 30.5 -11.5t9.5 -27.5t-14 -29.5t-36 -13.5q-65 0 -102 11.5t-54 35t-23 57.5l30 -2q-16 -32 -34.5 -52t-40.5 -31t-51 -15t-68 -4z
M801 343l-12 54q26 6 42 10l36 9l-5 -21q-26 8 -49.5 34t-23.5 59q0 30 14.5 50.5t38 30.5t50.5 10q11 0 23.5 -2t23.5 -6l-8 -50q-10 2 -19 4t-20 2q-23 0 -36 -9.5t-13 -26.5q0 -21 13.5 -36t31 -23.5t28.5 -8.5l-41 -4q27 7 50.5 14.5t42.5 14.5l16 -51q-24 -9 -56.5 -19
t-65.5 -19t-61 -16zM30 -1q0 24 4.5 51.5t14 59t23.5 66.5l72 -28q-10 -28 -17.5 -53t-11 -47t-3.5 -42q0 -42 18.5 -71.5t51.5 -48.5t75.5 -28t90.5 -9q58 0 108.5 10t89 28.5t60.5 42t22 50.5q0 13 -10 24t-30 21t-48 19.5t-64 19.5l19 83q52 -20 92 -33.5t70 -21.5
t52 -11.5t37 -3.5q21 0 30.5 -11.5t9.5 -27.5t-14 -29.5t-36 -13.5h-12h-12.5h-12.5q2 -9 3 -14.5t1 -14.5q0 -37 -25.5 -72t-74.5 -63.5t-118.5 -45.5t-158.5 -17q-79 0 -146.5 25.5t-108.5 76.5t-41 129z" />
    <glyph glyph-name="uniFBFB" unicode="&#xfbfb;" horiz-adv-x="612" arabic-form="initial" 
d="M343 -5l10 82q49 0 78 6t42 24.5t13 55.5q0 25 -8 59.5t-21 73.5t-28 77l81 30q13 -32 24.5 -73t19.5 -81t8 -70q0 -40 -8.5 -70.5t-25.5 -52t-43.5 -35t-61.5 -20t-80 -6.5zM380 464l-12 54q26 6 42 10l36 9l-5 -21q-26 8 -49.5 34t-23.5 59q0 30 14.5 50.5t38 30.5
t50.5 10q11 0 23.5 -2t23.5 -6l-8 -50q-10 2 -19 4t-20 2q-23 0 -36 -9.5t-13 -26.5q0 -21 13.5 -36t31 -23.5t28.5 -8.5l-41 -4q27 7 50.5 14.5t42.5 14.5l16 -51q-24 -9 -56.5 -19t-65.5 -19t-61 -16zM0 -5l10 82q42 0 66 7.5t36.5 29t21.5 62.5t22 107l78 -15
q-4 -18 -9 -40t-8.5 -43.5t-3.5 -37.5q0 -20 9 -36t39 -25t92 -9q21 0 30.5 -11.5t9.5 -27.5t-14 -29.5t-36 -13.5q-65 0 -102 11.5t-54 35t-23 57.5l30 -2q-16 -32 -34.5 -52t-40.5 -31t-51 -15t-68 -4z" />
    <glyph glyph-name="uni0649.fina" unicode="&#x649;" horiz-adv-x="736" arabic-form="final" 
d="M30 -1q0 24 4.5 51.5t14 59t23.5 66.5l72 -28q-10 -28 -17.5 -53t-11 -47t-3.5 -42q0 -42 18.5 -71.5t51.5 -48.5t75.5 -28t90.5 -9q58 0 108.5 10t89 28.5t60.5 42t22 50.5q0 13 -10 24t-30 21t-48 19.5t-64 19.5l19 83q52 -20 92 -33.5t70 -21.5t52 -11.5t37 -3.5
q21 0 30.5 -11.5t9.5 -27.5t-14 -29.5t-36 -13.5h-12h-12.5h-12.5q2 -9 3 -14.5t1 -14.5q0 -37 -25.5 -72t-74.5 -63.5t-118.5 -45.5t-158.5 -17q-79 0 -146.5 25.5t-108.5 76.5t-41 129z" />
    <glyph glyph-name="uniFEF3" unicode="&#x64a;" horiz-adv-x="299" arabic-form="initial" 
d="M0 -5l10 82q59 0 92 4.5t47 23t14 58.5q0 25 -8 59.5t-21 73.5t-28 77l81 30q13 -32 24.5 -73t19.5 -81t8 -70q0 -50 -13.5 -85t-42.5 -57t-74.5 -32t-108.5 -10zM185 -194q-21 0 -35.5 14.5t-14.5 34.5t14.5 35t35.5 15q20 0 34.5 -15t14.5 -35t-14.5 -34.5t-34.5 -14.5
zM48 -194q-21 0 -35.5 14.5t-14.5 34.5t14.5 35t35.5 15q20 0 34.5 -15t14.5 -35t-14.5 -34.5t-34.5 -14.5z" />
    <glyph glyph-name="uniFEF4" unicode="&#x64a;" horiz-adv-x="373" arabic-form="medial" 
d="M0 -5l10 82q50 0 78 7.5t42.5 29t23.5 62.5t22 107l78 -15q-4 -18 -9 -40t-8.5 -43.5t-3.5 -37.5q0 -15 2 -28t15 -22t44 -14.5t89 -5.5q21 0 30.5 -11.5t9.5 -27.5t-14 -29.5t-36 -13.5q-61 0 -97 6.5t-54.5 19.5t-26 32.5t-11.5 45.5l30 -2q-16 -32 -34.5 -52
t-42.5 -31t-57.5 -15t-79.5 -4zM252 -194q-21 0 -35.5 14.5t-14.5 34.5t14.5 35t35.5 15q20 0 34.5 -15t14.5 -35t-14.5 -34.5t-34.5 -14.5zM115 -194q-21 0 -35.5 14.5t-14.5 34.5t14.5 35t35.5 15q20 0 34.5 -15t14.5 -35t-14.5 -34.5t-34.5 -14.5z" />
    <glyph glyph-name="uniFC00" unicode="&#xfc00;" horiz-adv-x="918" arabic-form="isolated" 
d="M649 -5l10 82q49 0 78 6t42 24.5t13 55.5q0 25 -8 59.5t-21 73.5t-28 77l81 30q13 -32 24.5 -73t19.5 -81t8 -70q0 -40 -8.5 -70.5t-25.5 -52t-43.5 -35t-61.5 -20t-80 -6.5zM686 464l-12 54q26 6 42 10l36 9l-5 -21q-26 8 -49.5 34t-23.5 59q0 30 14.5 50.5t38 30.5
t50.5 10q11 0 23.5 -2t23.5 -6l-8 -50q-10 2 -19 4t-20 2q-23 0 -36 -9.5t-13 -26.5q0 -21 13.5 -36t31 -23.5t28.5 -8.5l-41 -4q27 7 50.5 14.5t42.5 14.5l16 -51q-24 -9 -56.5 -19t-65.5 -19t-61 -16zM650 -5q-43 0 -86.5 6t-80.5 29t-60.5 71.5t-26.5 133.5l64 34
q5 -67 22.5 -105.5t44.5 -57t61 -24t71 -5.5q21 0 30.5 -11.5t9.5 -27.5t-13.5 -29.5t-35.5 -13.5zM360 -394q-70 0 -133.5 16t-112 49.5t-76.5 84.5t-28 120q0 58 17 110.5t49.5 99t79.5 85.5t107 69.5t131 51.5l-11 -13q-26 8 -53 17.5t-56 18t-62 13.5t-71 5
q-30 0 -52.5 -5t-42.5 -10l-14 74q26 11 58.5 17.5t65.5 6.5q46 0 82 -8.5t68.5 -21t68.5 -25t80.5 -21t105.5 -8.5h9l2 -82q-48 0 -102 -11t-107.5 -32t-102.5 -52t-86.5 -71.5t-59.5 -90t-22 -107.5q0 -52 22 -89.5t60.5 -61.5t89 -35t106.5 -11q49 0 100.5 10.5
t100.5 29.5l28 -68q-58 -28 -119 -41.5t-120 -13.5zM351 -115q-21 0 -35.5 14.5t-14.5 34.5t14.5 35t35.5 15q20 0 34.5 -15t14.5 -35t-14.5 -34.5t-34.5 -14.5z" />
    <glyph glyph-name="uniFC01" unicode="&#xfc01;" horiz-adv-x="918" arabic-form="isolated" 
d="M649 -5l10 82q49 0 78 6t42 24.5t13 55.5q0 25 -8 59.5t-21 73.5t-28 77l81 30q13 -32 24.5 -73t19.5 -81t8 -70q0 -40 -8.5 -70.5t-25.5 -52t-43.5 -35t-61.5 -20t-80 -6.5zM686 464l-12 54q26 6 42 10l36 9l-5 -21q-26 8 -49.5 34t-23.5 59q0 30 14.5 50.5t38 30.5
t50.5 10q11 0 23.5 -2t23.5 -6l-8 -50q-10 2 -19 4t-20 2q-23 0 -36 -9.5t-13 -26.5q0 -21 13.5 -36t31 -23.5t28.5 -8.5l-41 -4q27 7 50.5 14.5t42.5 14.5l16 -51q-24 -9 -56.5 -19t-65.5 -19t-61 -16zM650 -5q-43 0 -86.5 6t-80.5 29t-60.5 71.5t-26.5 133.5l64 34
q5 -67 22.5 -105.5t44.5 -57t61 -24t71 -5.5q21 0 30.5 -11.5t9.5 -27.5t-13.5 -29.5t-35.5 -13.5zM360 -394q-70 0 -133.5 16t-112 49.5t-76.5 84.5t-28 120q0 58 17 110.5t49.5 99t79.5 85.5t107 69.5t131 51.5l-11 -13q-26 8 -53 17.5t-56 18t-62 13.5t-71 5
q-30 0 -52.5 -5t-42.5 -10l-14 74q26 11 58.5 17.5t65.5 6.5q46 0 82 -8.5t68.5 -21t68.5 -25t80.5 -21t105.5 -8.5h9l2 -82q-48 0 -102 -11t-107.5 -32t-102.5 -52t-86.5 -71.5t-59.5 -90t-22 -107.5q0 -52 22 -89.5t60.5 -61.5t89 -35t106.5 -11q49 0 100.5 10.5
t100.5 29.5l28 -68q-58 -28 -119 -41.5t-120 -13.5z" />
    <glyph glyph-name="uniFC02" unicode="&#xfc02;" horiz-adv-x="831" arabic-form="isolated" 
d="M562 -5l10 82q49 0 78 6t42 24.5t13 55.5q0 25 -8 59.5t-21 73.5t-28 77l81 30q13 -32 24.5 -73t19.5 -81t8 -70q0 -40 -8.5 -70.5t-25.5 -52t-43.5 -35t-61.5 -20t-80 -6.5zM599 464l-12 54q26 6 42 10l36 9l-5 -21q-26 8 -49.5 34t-23.5 59q0 30 14.5 50.5t38 30.5
t50.5 10q11 0 23.5 -2t23.5 -6l-8 -50q-10 2 -19 4t-20 2q-23 0 -36 -9.5t-13 -26.5q0 -21 13.5 -36t31 -23.5t28.5 -8.5l-41 -4q27 7 50.5 14.5t42.5 14.5l16 -51q-24 -9 -56.5 -19t-65.5 -19t-61 -16zM77 -393q-21 77 -36 150.5t-23 131.5t-8 86q0 74 24 135t62 107.5
t82 79t85.5 49t70.5 16.5q25 0 44 -11t37 -43t38 -94q19 -57 36 -86.5t37 -40t46 -10.5q21 0 30.5 -11.5t9.5 -27.5t-14 -29.5t-36 -13.5q-39 0 -66.5 14t-47.5 38l23 19q-12 -29 -30.5 -47.5t-41 -27.5t-47.5 -9q-29 0 -60 10.5t-61 31t-56.5 50.5t-46.5 68l10 -2
q-28 -39 -37 -84.5t-9 -80.5q0 -28 6 -71.5t15.5 -92.5t21 -97.5t21.5 -87.5zM360 64q18 0 29.5 7t15.5 21t-3 35q-12 36 -22 63.5t-19.5 46t-19.5 27.5t-21 9t-27.5 -5t-35 -15t-37.5 -25t-36 -35l1 8q22 -46 53.5 -77t64 -45.5t57.5 -14.5z" />
    <glyph glyph-name="uniFC03" unicode="&#xfc03;" horiz-adv-x="1005" arabic-form="isolated" 
d="M736 -5l10 82q49 0 78 6t42 24.5t13 55.5q0 25 -8 59.5t-21 73.5t-28 77l81 30q13 -32 24.5 -73t19.5 -81t8 -70q0 -40 -8.5 -70.5t-25.5 -52t-43.5 -35t-61.5 -20t-80 -6.5zM773 464l-12 54q26 6 42 10l36 9l-5 -21q-26 8 -49.5 34t-23.5 59q0 30 14.5 50.5t38 30.5
t50.5 10q11 0 23.5 -2t23.5 -6l-8 -50q-10 2 -19 4t-20 2q-23 0 -36 -9.5t-13 -26.5q0 -21 13.5 -36t31 -23.5t28.5 -8.5l-41 -4q27 7 50.5 14.5t42.5 14.5l16 -51q-24 -9 -56.5 -19t-65.5 -19t-61 -16zM30 -1q0 24 4.5 51.5t14 59t23.5 66.5l72 -28q-10 -28 -17.5 -53
t-11 -47t-3.5 -42q0 -42 18.5 -71.5t51.5 -48.5t75.5 -28t90.5 -9q58 0 108.5 10t89 28.5t60.5 42t22 50.5q0 13 -10 24t-30 21t-48 19.5t-64 19.5l19 83q52 -20 92 -33.5t70 -21.5t52 -11.5t37 -3.5q21 0 30.5 -11.5t9.5 -27.5t-14 -29.5t-36 -13.5h-12h-12.5h-12.5
q2 -9 3 -14.5t1 -14.5q0 -37 -25.5 -72t-74.5 -63.5t-118.5 -45.5t-158.5 -17q-79 0 -146.5 25.5t-108.5 76.5t-41 129z" />
    <glyph glyph-name="uniFC04" unicode="&#xfc04;" horiz-adv-x="1005" arabic-form="isolated" 
d="M736 -5l10 82q49 0 78 6t42 24.5t13 55.5q0 25 -8 59.5t-21 73.5t-28 77l81 30q13 -32 24.5 -73t19.5 -81t8 -70q0 -40 -8.5 -70.5t-25.5 -52t-43.5 -35t-61.5 -20t-80 -6.5zM773 464l-12 54q26 6 42 10l36 9l-5 -21q-26 8 -49.5 34t-23.5 59q0 30 14.5 50.5t38 30.5
t50.5 10q11 0 23.5 -2t23.5 -6l-8 -50q-10 2 -19 4t-20 2q-23 0 -36 -9.5t-13 -26.5q0 -21 13.5 -36t31 -23.5t28.5 -8.5l-41 -4q27 7 50.5 14.5t42.5 14.5l16 -51q-24 -9 -56.5 -19t-65.5 -19t-61 -16zM30 -1q0 24 4.5 51.5t14 59t23.5 66.5l72 -28q-10 -28 -17.5 -53
t-11 -47t-3.5 -42q0 -42 18.5 -71.5t51.5 -48.5t75.5 -28t90.5 -9q58 0 108.5 10t89 28.5t60.5 42t22 50.5q0 13 -10 24t-30 21t-48 19.5t-64 19.5l19 83q52 -20 92 -33.5t70 -21.5t52 -11.5t37 -3.5q21 0 30.5 -11.5t9.5 -27.5t-14 -29.5t-36 -13.5h-12h-12.5h-12.5
q2 -9 3 -14.5t1 -14.5q0 -37 -25.5 -72t-74.5 -63.5t-118.5 -45.5t-158.5 -17q-79 0 -146.5 25.5t-108.5 76.5t-41 129zM398 -421q-21 0 -35.5 14.5t-14.5 34.5t14.5 35t35.5 15q20 0 34.5 -15t14.5 -35t-14.5 -34.5t-34.5 -14.5zM261 -421q-21 0 -35.5 14.5t-14.5 34.5
t14.5 35t35.5 15q20 0 34.5 -15t14.5 -35t-14.5 -34.5t-34.5 -14.5z" />
    <glyph glyph-name="uniFC05" unicode="&#xfc05;" horiz-adv-x="918" arabic-form="isolated" 
d="M649 -5l10 82q49 0 78 6t42 24.5t13 55.5q0 25 -8 59.5t-21 73.5t-28 77l81 30q13 -32 24.5 -73t19.5 -81t8 -70q0 -40 -8.5 -70.5t-25.5 -52t-43.5 -35t-61.5 -20t-80 -6.5zM756 -191q-21 0 -35.5 14.5t-14.5 34.5t14.5 35t35.5 15q20 0 34.5 -15t14.5 -35t-14.5 -34.5
t-34.5 -14.5zM650 -5q-43 0 -86.5 6t-80.5 29t-60.5 71.5t-26.5 133.5l64 34q5 -67 22.5 -105.5t44.5 -57t61 -24t71 -5.5q21 0 30.5 -11.5t9.5 -27.5t-13.5 -29.5t-35.5 -13.5zM360 -394q-70 0 -133.5 16t-112 49.5t-76.5 84.5t-28 120q0 58 17 110.5t49.5 99t79.5 85.5
t107 69.5t131 51.5l-11 -13q-26 8 -53 17.5t-56 18t-62 13.5t-71 5q-30 0 -52.5 -5t-42.5 -10l-14 74q26 11 58.5 17.5t65.5 6.5q46 0 82 -8.5t68.5 -21t68.5 -25t80.5 -21t105.5 -8.5h9l2 -82q-48 0 -102 -11t-107.5 -32t-102.5 -52t-86.5 -71.5t-59.5 -90t-22 -107.5
q0 -52 22 -89.5t60.5 -61.5t89 -35t106.5 -11q49 0 100.5 10.5t100.5 29.5l28 -68q-58 -28 -119 -41.5t-120 -13.5zM351 -115q-21 0 -35.5 14.5t-14.5 34.5t14.5 35t35.5 15q20 0 34.5 -15t14.5 -35t-14.5 -34.5t-34.5 -14.5z" />
    <glyph glyph-name="uniFC06" unicode="&#xfc06;" horiz-adv-x="918" arabic-form="isolated" 
d="M649 -5l10 82q49 0 78 6t42 24.5t13 55.5q0 25 -8 59.5t-21 73.5t-28 77l81 30q13 -32 24.5 -73t19.5 -81t8 -70q0 -40 -8.5 -70.5t-25.5 -52t-43.5 -35t-61.5 -20t-80 -6.5zM756 -191q-21 0 -35.5 14.5t-14.5 34.5t14.5 35t35.5 15q20 0 34.5 -15t14.5 -35t-14.5 -34.5
t-34.5 -14.5zM650 -5q-43 0 -86.5 6t-80.5 29t-60.5 71.5t-26.5 133.5l64 34q5 -67 22.5 -105.5t44.5 -57t61 -24t71 -5.5q21 0 30.5 -11.5t9.5 -27.5t-13.5 -29.5t-35.5 -13.5zM360 -394q-70 0 -133.5 16t-112 49.5t-76.5 84.5t-28 120q0 58 17 110.5t49.5 99t79.5 85.5
t107 69.5t131 51.5l-11 -13q-26 8 -53 17.5t-56 18t-62 13.5t-71 5q-30 0 -52.5 -5t-42.5 -10l-14 74q26 11 58.5 17.5t65.5 6.5q46 0 82 -8.5t68.5 -21t68.5 -25t80.5 -21t105.5 -8.5h9l2 -82q-48 0 -102 -11t-107.5 -32t-102.5 -52t-86.5 -71.5t-59.5 -90t-22 -107.5
q0 -52 22 -89.5t60.5 -61.5t89 -35t106.5 -11q49 0 100.5 10.5t100.5 29.5l28 -68q-58 -28 -119 -41.5t-120 -13.5z" />
    <glyph glyph-name="uniFC07" unicode="&#xfc07;" horiz-adv-x="918" arabic-form="isolated" 
d="M649 -5l10 82q49 0 78 6t42 24.5t13 55.5q0 25 -8 59.5t-21 73.5t-28 77l81 30q13 -32 24.5 -73t19.5 -81t8 -70q0 -40 -8.5 -70.5t-25.5 -52t-43.5 -35t-61.5 -20t-80 -6.5zM756 -191q-21 0 -35.5 14.5t-14.5 34.5t14.5 35t35.5 15q20 0 34.5 -15t14.5 -35t-14.5 -34.5
t-34.5 -14.5zM650 -5q-43 0 -86.5 6t-80.5 29t-60.5 71.5t-26.5 133.5l64 34q5 -67 22.5 -105.5t44.5 -57t61 -24t71 -5.5q21 0 30.5 -11.5t9.5 -27.5t-13.5 -29.5t-35.5 -13.5zM360 -394q-70 0 -133.5 16t-112 49.5t-76.5 84.5t-28 120q0 58 17 110.5t49.5 99t79.5 85.5
t107 69.5t131 51.5l-11 -13q-26 8 -53 17.5t-56 18t-62 13.5t-71 5q-30 0 -52.5 -5t-42.5 -10l-14 74q26 11 58.5 17.5t65.5 6.5q46 0 82 -8.5t68.5 -21t68.5 -25t80.5 -21t105.5 -8.5h9l2 -82q-48 0 -102 -11t-107.5 -32t-102.5 -52t-86.5 -71.5t-59.5 -90t-22 -107.5
q0 -52 22 -89.5t60.5 -61.5t89 -35t106.5 -11q49 0 100.5 10.5t100.5 29.5l28 -68q-58 -28 -119 -41.5t-120 -13.5zM312 519q-21 0 -35.5 14.5t-14.5 34.5t14.5 35t35.5 15q20 0 34.5 -15t14.5 -35t-14.5 -34.5t-34.5 -14.5z" />
    <glyph glyph-name="uniFC08" unicode="&#xfc08;" horiz-adv-x="831" arabic-form="isolated" 
d="M562 -5l10 82q49 0 78 6t42 24.5t13 55.5q0 25 -8 59.5t-21 73.5t-28 77l81 30q13 -32 24.5 -73t19.5 -81t8 -70q0 -40 -8.5 -70.5t-25.5 -52t-43.5 -35t-61.5 -20t-80 -6.5zM669 -191q-21 0 -35.5 14.5t-14.5 34.5t14.5 35t35.5 15q20 0 34.5 -15t14.5 -35t-14.5 -34.5
t-34.5 -14.5zM77 -393q-21 77 -36 150.5t-23 131.5t-8 86q0 74 24 135t62 107.5t82 79t85.5 49t70.5 16.5q25 0 44 -11t37 -43t38 -94q19 -57 36 -86.5t37 -40t46 -10.5q21 0 30.5 -11.5t9.5 -27.5t-14 -29.5t-36 -13.5q-39 0 -66.5 14t-47.5 38l23 19q-12 -29 -30.5 -47.5
t-41 -27.5t-47.5 -9q-29 0 -60 10.5t-61 31t-56.5 50.5t-46.5 68l10 -2q-28 -39 -37 -84.5t-9 -80.5q0 -28 6 -71.5t15.5 -92.5t21 -97.5t21.5 -87.5zM360 64q18 0 29.5 7t15.5 21t-3 35q-12 36 -22 63.5t-19.5 46t-19.5 27.5t-21 9t-27.5 -5t-35 -15t-37.5 -25t-36 -35l1 8
q22 -46 53.5 -77t64 -45.5t57.5 -14.5z" />
    <glyph glyph-name="uniFC09" unicode="&#xfc09;" horiz-adv-x="1005" arabic-form="isolated" 
d="M736 -5l10 82q49 0 78 6t42 24.5t13 55.5q0 25 -8 59.5t-21 73.5t-28 77l81 30q13 -32 24.5 -73t19.5 -81t8 -70q0 -40 -8.5 -70.5t-25.5 -52t-43.5 -35t-61.5 -20t-80 -6.5zM843 -191q-21 0 -35.5 14.5t-14.5 34.5t14.5 35t35.5 15q20 0 34.5 -15t14.5 -35t-14.5 -34.5
t-34.5 -14.5zM30 -1q0 24 4.5 51.5t14 59t23.5 66.5l72 -28q-10 -28 -17.5 -53t-11 -47t-3.5 -42q0 -42 18.5 -71.5t51.5 -48.5t75.5 -28t90.5 -9q58 0 108.5 10t89 28.5t60.5 42t22 50.5q0 13 -10 24t-30 21t-48 19.5t-64 19.5l19 83q52 -20 92 -33.5t70 -21.5t52 -11.5
t37 -3.5q21 0 30.5 -11.5t9.5 -27.5t-14 -29.5t-36 -13.5h-12h-12.5h-12.5q2 -9 3 -14.5t1 -14.5q0 -37 -25.5 -72t-74.5 -63.5t-118.5 -45.5t-158.5 -17q-79 0 -146.5 25.5t-108.5 76.5t-41 129z" />
    <glyph glyph-name="uniFC0A" unicode="&#xfc0a;" horiz-adv-x="1005" arabic-form="isolated" 
d="M736 -5l10 82q49 0 78 6t42 24.5t13 55.5q0 25 -8 59.5t-21 73.5t-28 77l81 30q13 -32 24.5 -73t19.5 -81t8 -70q0 -40 -8.5 -70.5t-25.5 -52t-43.5 -35t-61.5 -20t-80 -6.5zM843 -191q-21 0 -35.5 14.5t-14.5 34.5t14.5 35t35.5 15q20 0 34.5 -15t14.5 -35t-14.5 -34.5
t-34.5 -14.5zM30 -1q0 24 4.5 51.5t14 59t23.5 66.5l72 -28q-10 -28 -17.5 -53t-11 -47t-3.5 -42q0 -42 18.5 -71.5t51.5 -48.5t75.5 -28t90.5 -9q58 0 108.5 10t89 28.5t60.5 42t22 50.5q0 13 -10 24t-30 21t-48 19.5t-64 19.5l19 83q52 -20 92 -33.5t70 -21.5t52 -11.5
t37 -3.5q21 0 30.5 -11.5t9.5 -27.5t-14 -29.5t-36 -13.5h-12h-12.5h-12.5q2 -9 3 -14.5t1 -14.5q0 -37 -25.5 -72t-74.5 -63.5t-118.5 -45.5t-158.5 -17q-79 0 -146.5 25.5t-108.5 76.5t-41 129zM398 -421q-21 0 -35.5 14.5t-14.5 34.5t14.5 35t35.5 15q20 0 34.5 -15
t14.5 -35t-14.5 -34.5t-34.5 -14.5zM261 -421q-21 0 -35.5 14.5t-14.5 34.5t14.5 35t35.5 15q20 0 34.5 -15t14.5 -35t-14.5 -34.5t-34.5 -14.5z" />
    <glyph glyph-name="uniFC0B" unicode="&#xfc0b;" horiz-adv-x="918" arabic-form="isolated" 
d="M649 -5l10 82q49 0 78 6t42 24.5t13 55.5q0 25 -8 59.5t-21 73.5t-28 77l81 30q13 -32 24.5 -73t19.5 -81t8 -70q0 -40 -8.5 -70.5t-25.5 -52t-43.5 -35t-61.5 -20t-80 -6.5zM847 507q-21 0 -35.5 14.5t-14.5 34.5t14.5 35t35.5 15q20 0 34.5 -15t14.5 -35t-14.5 -34.5
t-34.5 -14.5zM710 507q-21 0 -35.5 14.5t-14.5 34.5t14.5 35t35.5 15q20 0 34.5 -15t14.5 -35t-14.5 -34.5t-34.5 -14.5zM650 -5q-43 0 -86.5 6t-80.5 29t-60.5 71.5t-26.5 133.5l64 34q5 -67 22.5 -105.5t44.5 -57t61 -24t71 -5.5q21 0 30.5 -11.5t9.5 -27.5t-13.5 -29.5
t-35.5 -13.5zM360 -394q-70 0 -133.5 16t-112 49.5t-76.5 84.5t-28 120q0 58 17 110.5t49.5 99t79.5 85.5t107 69.5t131 51.5l-11 -13q-26 8 -53 17.5t-56 18t-62 13.5t-71 5q-30 0 -52.5 -5t-42.5 -10l-14 74q26 11 58.5 17.5t65.5 6.5q46 0 82 -8.5t68.5 -21t68.5 -25
t80.5 -21t105.5 -8.5h9l2 -82q-48 0 -102 -11t-107.5 -32t-102.5 -52t-86.5 -71.5t-59.5 -90t-22 -107.5q0 -52 22 -89.5t60.5 -61.5t89 -35t106.5 -11q49 0 100.5 10.5t100.5 29.5l28 -68q-58 -28 -119 -41.5t-120 -13.5zM351 -115q-21 0 -35.5 14.5t-14.5 34.5t14.5 35
t35.5 15q20 0 34.5 -15t14.5 -35t-14.5 -34.5t-34.5 -14.5z" />
    <glyph glyph-name="uniFC0C" unicode="&#xfc0c;" horiz-adv-x="918" arabic-form="isolated" 
d="M649 -5l10 82q49 0 78 6t42 24.5t13 55.5q0 25 -8 59.5t-21 73.5t-28 77l81 30q13 -32 24.5 -73t19.5 -81t8 -70q0 -40 -8.5 -70.5t-25.5 -52t-43.5 -35t-61.5 -20t-80 -6.5zM847 507q-21 0 -35.5 14.5t-14.5 34.5t14.5 35t35.5 15q20 0 34.5 -15t14.5 -35t-14.5 -34.5
t-34.5 -14.5zM710 507q-21 0 -35.5 14.5t-14.5 34.5t14.5 35t35.5 15q20 0 34.5 -15t14.5 -35t-14.5 -34.5t-34.5 -14.5zM650 -5q-43 0 -86.5 6t-80.5 29t-60.5 71.5t-26.5 133.5l64 34q5 -67 22.5 -105.5t44.5 -57t61 -24t71 -5.5q21 0 30.5 -11.5t9.5 -27.5t-13.5 -29.5
t-35.5 -13.5zM360 -394q-70 0 -133.5 16t-112 49.5t-76.5 84.5t-28 120q0 58 17 110.5t49.5 99t79.5 85.5t107 69.5t131 51.5l-11 -13q-26 8 -53 17.5t-56 18t-62 13.5t-71 5q-30 0 -52.5 -5t-42.5 -10l-14 74q26 11 58.5 17.5t65.5 6.5q46 0 82 -8.5t68.5 -21t68.5 -25
t80.5 -21t105.5 -8.5h9l2 -82q-48 0 -102 -11t-107.5 -32t-102.5 -52t-86.5 -71.5t-59.5 -90t-22 -107.5q0 -52 22 -89.5t60.5 -61.5t89 -35t106.5 -11q49 0 100.5 10.5t100.5 29.5l28 -68q-58 -28 -119 -41.5t-120 -13.5z" />
    <glyph glyph-name="uniFC0D" unicode="&#xfc0d;" horiz-adv-x="918" arabic-form="isolated" 
d="M649 -5l10 82q49 0 78 6t42 24.5t13 55.5q0 25 -8 59.5t-21 73.5t-28 77l81 30q13 -32 24.5 -73t19.5 -81t8 -70q0 -40 -8.5 -70.5t-25.5 -52t-43.5 -35t-61.5 -20t-80 -6.5zM847 507q-21 0 -35.5 14.5t-14.5 34.5t14.5 35t35.5 15q20 0 34.5 -15t14.5 -35t-14.5 -34.5
t-34.5 -14.5zM710 507q-21 0 -35.5 14.5t-14.5 34.5t14.5 35t35.5 15q20 0 34.5 -15t14.5 -35t-14.5 -34.5t-34.5 -14.5zM650 -5q-43 0 -86.5 6t-80.5 29t-60.5 71.5t-26.5 133.5l64 34q5 -67 22.5 -105.5t44.5 -57t61 -24t71 -5.5q21 0 30.5 -11.5t9.5 -27.5t-13.5 -29.5
t-35.5 -13.5zM360 -394q-70 0 -133.5 16t-112 49.5t-76.5 84.5t-28 120q0 58 17 110.5t49.5 99t79.5 85.5t107 69.5t131 51.5l-11 -13q-26 8 -53 17.5t-56 18t-62 13.5t-71 5q-30 0 -52.5 -5t-42.5 -10l-14 74q26 11 58.5 17.5t65.5 6.5q46 0 82 -8.5t68.5 -21t68.5 -25
t80.5 -21t105.5 -8.5h9l2 -82q-48 0 -102 -11t-107.5 -32t-102.5 -52t-86.5 -71.5t-59.5 -90t-22 -107.5q0 -52 22 -89.5t60.5 -61.5t89 -35t106.5 -11q49 0 100.5 10.5t100.5 29.5l28 -68q-58 -28 -119 -41.5t-120 -13.5zM312 519q-21 0 -35.5 14.5t-14.5 34.5t14.5 35
t35.5 15q20 0 34.5 -15t14.5 -35t-14.5 -34.5t-34.5 -14.5z" />
    <glyph glyph-name="uniFC0E" unicode="&#xfc0e;" horiz-adv-x="831" arabic-form="isolated" 
d="M562 -5l10 82q49 0 78 6t42 24.5t13 55.5q0 25 -8 59.5t-21 73.5t-28 77l81 30q13 -32 24.5 -73t19.5 -81t8 -70q0 -40 -8.5 -70.5t-25.5 -52t-43.5 -35t-61.5 -20t-80 -6.5zM760 507q-21 0 -35.5 14.5t-14.5 34.5t14.5 35t35.5 15q20 0 34.5 -15t14.5 -35t-14.5 -34.5
t-34.5 -14.5zM623 507q-21 0 -35.5 14.5t-14.5 34.5t14.5 35t35.5 15q20 0 34.5 -15t14.5 -35t-14.5 -34.5t-34.5 -14.5zM77 -393q-21 77 -36 150.5t-23 131.5t-8 86q0 74 24 135t62 107.5t82 79t85.5 49t70.5 16.5q25 0 44 -11t37 -43t38 -94q19 -57 36 -86.5t37 -40
t46 -10.5q21 0 30.5 -11.5t9.5 -27.5t-14 -29.5t-36 -13.5q-39 0 -66.5 14t-47.5 38l23 19q-12 -29 -30.5 -47.5t-41 -27.5t-47.5 -9q-29 0 -60 10.5t-61 31t-56.5 50.5t-46.5 68l10 -2q-28 -39 -37 -84.5t-9 -80.5q0 -28 6 -71.5t15.5 -92.5t21 -97.5t21.5 -87.5zM360 64
q18 0 29.5 7t15.5 21t-3 35q-12 36 -22 63.5t-19.5 46t-19.5 27.5t-21 9t-27.5 -5t-35 -15t-37.5 -25t-36 -35l1 8q22 -46 53.5 -77t64 -45.5t57.5 -14.5z" />
    <glyph glyph-name="uniFC0F" unicode="&#xfc0f;" horiz-adv-x="1005" arabic-form="isolated" 
d="M736 -5l10 82q49 0 78 6t42 24.5t13 55.5q0 25 -8 59.5t-21 73.5t-28 77l81 30q13 -32 24.5 -73t19.5 -81t8 -70q0 -40 -8.5 -70.5t-25.5 -52t-43.5 -35t-61.5 -20t-80 -6.5zM934 507q-21 0 -35.5 14.5t-14.5 34.5t14.5 35t35.5 15q20 0 34.5 -15t14.5 -35t-14.5 -34.5
t-34.5 -14.5zM797 507q-21 0 -35.5 14.5t-14.5 34.5t14.5 35t35.5 15q20 0 34.5 -15t14.5 -35t-14.5 -34.5t-34.5 -14.5zM30 -1q0 24 4.5 51.5t14 59t23.5 66.5l72 -28q-10 -28 -17.5 -53t-11 -47t-3.5 -42q0 -42 18.5 -71.5t51.5 -48.5t75.5 -28t90.5 -9q58 0 108.5 10
t89 28.5t60.5 42t22 50.5q0 13 -10 24t-30 21t-48 19.5t-64 19.5l19 83q52 -20 92 -33.5t70 -21.5t52 -11.5t37 -3.5q21 0 30.5 -11.5t9.5 -27.5t-14 -29.5t-36 -13.5h-12h-12.5h-12.5q2 -9 3 -14.5t1 -14.5q0 -37 -25.5 -72t-74.5 -63.5t-118.5 -45.5t-158.5 -17
q-79 0 -146.5 25.5t-108.5 76.5t-41 129z" />
    <glyph glyph-name="uniFC10" unicode="&#xfc10;" horiz-adv-x="1005" arabic-form="isolated" 
d="M736 -5l10 82q49 0 78 6t42 24.5t13 55.5q0 25 -8 59.5t-21 73.5t-28 77l81 30q13 -32 24.5 -73t19.5 -81t8 -70q0 -40 -8.5 -70.5t-25.5 -52t-43.5 -35t-61.5 -20t-80 -6.5zM934 507q-21 0 -35.5 14.5t-14.5 34.5t14.5 35t35.5 15q20 0 34.5 -15t14.5 -35t-14.5 -34.5
t-34.5 -14.5zM797 507q-21 0 -35.5 14.5t-14.5 34.5t14.5 35t35.5 15q20 0 34.5 -15t14.5 -35t-14.5 -34.5t-34.5 -14.5zM30 -1q0 24 4.5 51.5t14 59t23.5 66.5l72 -28q-10 -28 -17.5 -53t-11 -47t-3.5 -42q0 -42 18.5 -71.5t51.5 -48.5t75.5 -28t90.5 -9q58 0 108.5 10
t89 28.5t60.5 42t22 50.5q0 13 -10 24t-30 21t-48 19.5t-64 19.5l19 83q52 -20 92 -33.5t70 -21.5t52 -11.5t37 -3.5q21 0 30.5 -11.5t9.5 -27.5t-14 -29.5t-36 -13.5h-12h-12.5h-12.5q2 -9 3 -14.5t1 -14.5q0 -37 -25.5 -72t-74.5 -63.5t-118.5 -45.5t-158.5 -17
q-79 0 -146.5 25.5t-108.5 76.5t-41 129zM398 -421q-21 0 -35.5 14.5t-14.5 34.5t14.5 35t35.5 15q20 0 34.5 -15t14.5 -35t-14.5 -34.5t-34.5 -14.5zM261 -421q-21 0 -35.5 14.5t-14.5 34.5t14.5 35t35.5 15q20 0 34.5 -15t14.5 -35t-14.5 -34.5t-34.5 -14.5z" />
    <glyph glyph-name="uniFC11" unicode="&#xfc11;" horiz-adv-x="918" arabic-form="isolated" 
d="M649 -5l10 82q49 0 78 6t42 24.5t13 55.5q0 25 -8 59.5t-21 73.5t-28 77l81 30q13 -32 24.5 -73t19.5 -81t8 -70q0 -40 -8.5 -70.5t-25.5 -52t-43.5 -35t-61.5 -20t-80 -6.5zM779 617q-21 0 -35.5 14.5t-14.5 34.5t14.5 35t35.5 15q20 0 34.5 -15t14.5 -35t-14.5 -34.5
t-34.5 -14.5zM711 507q-21 0 -35.5 14.5t-14.5 34.5t14.5 35t35.5 15q20 0 34.5 -15t14.5 -35t-14.5 -34.5t-34.5 -14.5zM847 507q-21 0 -35.5 14.5t-14.5 34.5t14.5 35t35.5 15q20 0 34.5 -15t14.5 -35t-14.5 -34.5t-34.5 -14.5zM650 -5q-43 0 -86.5 6t-80.5 29t-60.5 71.5
t-26.5 133.5l64 34q5 -67 22.5 -105.5t44.5 -57t61 -24t71 -5.5q21 0 30.5 -11.5t9.5 -27.5t-13.5 -29.5t-35.5 -13.5zM360 -394q-70 0 -133.5 16t-112 49.5t-76.5 84.5t-28 120q0 58 17 110.5t49.5 99t79.5 85.5t107 69.5t131 51.5l-11 -13q-26 8 -53 17.5t-56 18t-62 13.5
t-71 5q-30 0 -52.5 -5t-42.5 -10l-14 74q26 11 58.5 17.5t65.5 6.5q46 0 82 -8.5t68.5 -21t68.5 -25t80.5 -21t105.5 -8.5h9l2 -82q-48 0 -102 -11t-107.5 -32t-102.5 -52t-86.5 -71.5t-59.5 -90t-22 -107.5q0 -52 22 -89.5t60.5 -61.5t89 -35t106.5 -11q49 0 100.5 10.5
t100.5 29.5l28 -68q-58 -28 -119 -41.5t-120 -13.5zM351 -115q-21 0 -35.5 14.5t-14.5 34.5t14.5 35t35.5 15q20 0 34.5 -15t14.5 -35t-14.5 -34.5t-34.5 -14.5z" />
    <glyph glyph-name="uniFC12" unicode="&#xfc12;" horiz-adv-x="831" arabic-form="isolated" 
d="M562 -5l10 82q49 0 78 6t42 24.5t13 55.5q0 25 -8 59.5t-21 73.5t-28 77l81 30q13 -32 24.5 -73t19.5 -81t8 -70q0 -40 -8.5 -70.5t-25.5 -52t-43.5 -35t-61.5 -20t-80 -6.5zM692 617q-21 0 -35.5 14.5t-14.5 34.5t14.5 35t35.5 15q20 0 34.5 -15t14.5 -35t-14.5 -34.5
t-34.5 -14.5zM624 507q-21 0 -35.5 14.5t-14.5 34.5t14.5 35t35.5 15q20 0 34.5 -15t14.5 -35t-14.5 -34.5t-34.5 -14.5zM760 507q-21 0 -35.5 14.5t-14.5 34.5t14.5 35t35.5 15q20 0 34.5 -15t14.5 -35t-14.5 -34.5t-34.5 -14.5zM77 -393q-21 77 -36 150.5t-23 131.5t-8 86
q0 74 24 135t62 107.5t82 79t85.5 49t70.5 16.5q25 0 44 -11t37 -43t38 -94q19 -57 36 -86.5t37 -40t46 -10.5q21 0 30.5 -11.5t9.5 -27.5t-14 -29.5t-36 -13.5q-39 0 -66.5 14t-47.5 38l23 19q-12 -29 -30.5 -47.5t-41 -27.5t-47.5 -9q-29 0 -60 10.5t-61 31t-56.5 50.5
t-46.5 68l10 -2q-28 -39 -37 -84.5t-9 -80.5q0 -28 6 -71.5t15.5 -92.5t21 -97.5t21.5 -87.5zM360 64q18 0 29.5 7t15.5 21t-3 35q-12 36 -22 63.5t-19.5 46t-19.5 27.5t-21 9t-27.5 -5t-35 -15t-37.5 -25t-36 -35l1 8q22 -46 53.5 -77t64 -45.5t57.5 -14.5z" />
    <glyph glyph-name="uniFC13" unicode="&#xfc13;" horiz-adv-x="1005" arabic-form="isolated" 
d="M736 -5l10 82q49 0 78 6t42 24.5t13 55.5q0 25 -8 59.5t-21 73.5t-28 77l81 30q13 -32 24.5 -73t19.5 -81t8 -70q0 -40 -8.5 -70.5t-25.5 -52t-43.5 -35t-61.5 -20t-80 -6.5zM866 617q-21 0 -35.5 14.5t-14.5 34.5t14.5 35t35.5 15q20 0 34.5 -15t14.5 -35t-14.5 -34.5
t-34.5 -14.5zM798 507q-21 0 -35.5 14.5t-14.5 34.5t14.5 35t35.5 15q20 0 34.5 -15t14.5 -35t-14.5 -34.5t-34.5 -14.5zM934 507q-21 0 -35.5 14.5t-14.5 34.5t14.5 35t35.5 15q20 0 34.5 -15t14.5 -35t-14.5 -34.5t-34.5 -14.5zM30 -1q0 24 4.5 51.5t14 59t23.5 66.5
l72 -28q-10 -28 -17.5 -53t-11 -47t-3.5 -42q0 -42 18.5 -71.5t51.5 -48.5t75.5 -28t90.5 -9q58 0 108.5 10t89 28.5t60.5 42t22 50.5q0 13 -10 24t-30 21t-48 19.5t-64 19.5l19 83q52 -20 92 -33.5t70 -21.5t52 -11.5t37 -3.5q21 0 30.5 -11.5t9.5 -27.5t-14 -29.5
t-36 -13.5h-12h-12.5h-12.5q2 -9 3 -14.5t1 -14.5q0 -37 -25.5 -72t-74.5 -63.5t-118.5 -45.5t-158.5 -17q-79 0 -146.5 25.5t-108.5 76.5t-41 129z" />
    <glyph glyph-name="uniFC14" unicode="&#xfc14;" horiz-adv-x="1005" arabic-form="isolated" 
d="M736 -5l10 82q49 0 78 6t42 24.5t13 55.5q0 25 -8 59.5t-21 73.5t-28 77l81 30q13 -32 24.5 -73t19.5 -81t8 -70q0 -40 -8.5 -70.5t-25.5 -52t-43.5 -35t-61.5 -20t-80 -6.5zM866 617q-21 0 -35.5 14.5t-14.5 34.5t14.5 35t35.5 15q20 0 34.5 -15t14.5 -35t-14.5 -34.5
t-34.5 -14.5zM798 507q-21 0 -35.5 14.5t-14.5 34.5t14.5 35t35.5 15q20 0 34.5 -15t14.5 -35t-14.5 -34.5t-34.5 -14.5zM934 507q-21 0 -35.5 14.5t-14.5 34.5t14.5 35t35.5 15q20 0 34.5 -15t14.5 -35t-14.5 -34.5t-34.5 -14.5zM30 -1q0 24 4.5 51.5t14 59t23.5 66.5
l72 -28q-10 -28 -17.5 -53t-11 -47t-3.5 -42q0 -42 18.5 -71.5t51.5 -48.5t75.5 -28t90.5 -9q58 0 108.5 10t89 28.5t60.5 42t22 50.5q0 13 -10 24t-30 21t-48 19.5t-64 19.5l19 83q52 -20 92 -33.5t70 -21.5t52 -11.5t37 -3.5q21 0 30.5 -11.5t9.5 -27.5t-14 -29.5
t-36 -13.5h-12h-12.5h-12.5q2 -9 3 -14.5t1 -14.5q0 -37 -25.5 -72t-74.5 -63.5t-118.5 -45.5t-158.5 -17q-79 0 -146.5 25.5t-108.5 76.5t-41 129zM398 -421q-21 0 -35.5 14.5t-14.5 34.5t14.5 35t35.5 15q20 0 34.5 -15t14.5 -35t-14.5 -34.5t-34.5 -14.5zM261 -421
q-21 0 -35.5 14.5t-14.5 34.5t14.5 35t35.5 15q20 0 34.5 -15t14.5 -35t-14.5 -34.5t-34.5 -14.5z" />
    <glyph glyph-name="uniFC15" unicode="&#xfc15;" horiz-adv-x="1238" arabic-form="isolated" 
d="M649 -5l9 82q52 0 102 8t98 23t92.5 36.5t84.5 49.5q-26 23 -60 40t-74.5 26.5t-85.5 9.5q-16 0 -30 -1t-28 -3.5t-32 -6.5l-16 76q27 8 54 12.5t52 4.5q52 0 94 -12.5t76.5 -30.5t65 -36t59.5 -30.5t60 -12.5h21l7 -72q-43 0 -79 -12t-70.5 -30.5t-72.5 -39t-84 -39
t-105.5 -30.5t-137.5 -12zM928 -186q-21 0 -35.5 14.5t-14.5 34.5t14.5 35t35.5 15q20 0 34.5 -15t14.5 -35t-14.5 -34.5t-34.5 -14.5zM650 -5q-43 0 -86.5 6t-80.5 29t-60.5 71.5t-26.5 133.5l64 34q5 -67 22.5 -105.5t44.5 -57t61 -24t71 -5.5q21 0 30.5 -11.5t9.5 -27.5
t-13.5 -29.5t-35.5 -13.5zM360 -394q-70 0 -133.5 16t-112 49.5t-76.5 84.5t-28 120q0 58 17 110.5t49.5 99t79.5 85.5t107 69.5t131 51.5l-11 -13q-26 8 -53 17.5t-56 18t-62 13.5t-71 5q-30 0 -52.5 -5t-42.5 -10l-14 74q26 11 58.5 17.5t65.5 6.5q46 0 82 -8.5t68.5 -21
t68.5 -25t80.5 -21t105.5 -8.5h9l2 -82q-48 0 -102 -11t-107.5 -32t-102.5 -52t-86.5 -71.5t-59.5 -90t-22 -107.5q0 -52 22 -89.5t60.5 -61.5t89 -35t106.5 -11q49 0 100.5 10.5t100.5 29.5l28 -68q-58 -28 -119 -41.5t-120 -13.5z" />
    <glyph glyph-name="uniFC16" unicode="&#xfc16;" horiz-adv-x="1151" arabic-form="isolated" 
d="M562 -5l9 82q52 0 102 8t98 23t92.5 36.5t84.5 49.5q-26 23 -60 40t-74.5 26.5t-85.5 9.5q-16 0 -30 -1t-28 -3.5t-32 -6.5l-16 76q27 8 54 12.5t52 4.5q52 0 94 -12.5t76.5 -30.5t65 -36t59.5 -30.5t60 -12.5h21l7 -72q-43 0 -79 -12t-70.5 -30.5t-72.5 -39t-84 -39
t-105.5 -30.5t-137.5 -12zM841 -186q-21 0 -35.5 14.5t-14.5 34.5t14.5 35t35.5 15q20 0 34.5 -15t14.5 -35t-14.5 -34.5t-34.5 -14.5zM77 -393q-21 77 -36 150.5t-23 131.5t-8 86q0 74 24 135t62 107.5t82 79t85.5 49t70.5 16.5q25 0 44 -11t37 -43t38 -94q19 -57 36 -86.5
t37 -40t46 -10.5q21 0 30.5 -11.5t9.5 -27.5t-14 -29.5t-36 -13.5q-39 0 -66.5 14t-47.5 38l23 19q-12 -29 -30.5 -47.5t-41 -27.5t-47.5 -9q-29 0 -60 10.5t-61 31t-56.5 50.5t-46.5 68l10 -2q-28 -39 -37 -84.5t-9 -80.5q0 -28 6 -71.5t15.5 -92.5t21 -97.5t21.5 -87.5z
M360 64q18 0 29.5 7t15.5 21t-3 35q-12 36 -22 63.5t-19.5 46t-19.5 27.5t-21 9t-27.5 -5t-35 -15t-37.5 -25t-36 -35l1 8q22 -46 53.5 -77t64 -45.5t57.5 -14.5z" />
    <glyph glyph-name="uniFC17" unicode="&#xfc17;" horiz-adv-x="1238" arabic-form="isolated" 
d="M649 -5l9 82q52 0 102 8t98 23t92.5 36.5t84.5 49.5q-26 23 -60 40t-74.5 26.5t-85.5 9.5q-16 0 -30 -1t-28 -3.5t-32 -6.5l-16 76q27 8 54 12.5t52 4.5q52 0 94 -12.5t76.5 -30.5t65 -36t59.5 -30.5t60 -12.5h21l7 -72q-43 0 -79 -12t-70.5 -30.5t-72.5 -39t-84 -39
t-105.5 -30.5t-137.5 -12zM650 -5q-43 0 -86.5 6t-80.5 29t-60.5 71.5t-26.5 133.5l64 34q5 -67 22.5 -105.5t44.5 -57t61 -24t71 -5.5q21 0 30.5 -11.5t9.5 -27.5t-13.5 -29.5t-35.5 -13.5zM360 -394q-70 0 -133.5 16t-112 49.5t-76.5 84.5t-28 120q0 58 17 110.5t49.5 99
t79.5 85.5t107 69.5t131 51.5l-11 -13q-26 8 -53 17.5t-56 18t-62 13.5t-71 5q-30 0 -52.5 -5t-42.5 -10l-14 74q26 11 58.5 17.5t65.5 6.5q46 0 82 -8.5t68.5 -21t68.5 -25t80.5 -21t105.5 -8.5h9l2 -82q-48 0 -102 -11t-107.5 -32t-102.5 -52t-86.5 -71.5t-59.5 -90
t-22 -107.5q0 -52 22 -89.5t60.5 -61.5t89 -35t106.5 -11q49 0 100.5 10.5t100.5 29.5l28 -68q-58 -28 -119 -41.5t-120 -13.5zM351 -115q-21 0 -35.5 14.5t-14.5 34.5t14.5 35t35.5 15q20 0 34.5 -15t14.5 -35t-14.5 -34.5t-34.5 -14.5z" />
    <glyph glyph-name="uniFC18" unicode="&#xfc18;" horiz-adv-x="1151" arabic-form="isolated" 
d="M562 -5l9 82q52 0 102 8t98 23t92.5 36.5t84.5 49.5q-26 23 -60 40t-74.5 26.5t-85.5 9.5q-16 0 -30 -1t-28 -3.5t-32 -6.5l-16 76q27 8 54 12.5t52 4.5q52 0 94 -12.5t76.5 -30.5t65 -36t59.5 -30.5t60 -12.5h21l7 -72q-43 0 -79 -12t-70.5 -30.5t-72.5 -39t-84 -39
t-105.5 -30.5t-137.5 -12zM77 -393q-21 77 -36 150.5t-23 131.5t-8 86q0 74 24 135t62 107.5t82 79t85.5 49t70.5 16.5q25 0 44 -11t37 -43t38 -94q19 -57 36 -86.5t37 -40t46 -10.5q21 0 30.5 -11.5t9.5 -27.5t-14 -29.5t-36 -13.5q-39 0 -66.5 14t-47.5 38l23 19
q-12 -29 -30.5 -47.5t-41 -27.5t-47.5 -9q-29 0 -60 10.5t-61 31t-56.5 50.5t-46.5 68l10 -2q-28 -39 -37 -84.5t-9 -80.5q0 -28 6 -71.5t15.5 -92.5t21 -97.5t21.5 -87.5zM360 64q18 0 29.5 7t15.5 21t-3 35q-12 36 -22 63.5t-19.5 46t-19.5 27.5t-21 9t-27.5 -5t-35 -15
t-37.5 -25t-36 -35l1 8q22 -46 53.5 -77t64 -45.5t57.5 -14.5z" />
    <glyph glyph-name="uniFC19" unicode="&#xfc19;" horiz-adv-x="1238" arabic-form="isolated" 
d="M649 -5l9 82q52 0 102 8t98 23t92.5 36.5t84.5 49.5q-26 23 -60 40t-74.5 26.5t-85.5 9.5q-16 0 -30 -1t-28 -3.5t-32 -6.5l-16 76q27 8 54 12.5t52 4.5q52 0 94 -12.5t76.5 -30.5t65 -36t59.5 -30.5t60 -12.5h21l7 -72q-43 0 -79 -12t-70.5 -30.5t-72.5 -39t-84 -39
t-105.5 -30.5t-137.5 -12zM816 455q-21 0 -35.5 14.5t-14.5 34.5t14.5 35t35.5 15q20 0 34.5 -15t14.5 -35t-14.5 -34.5t-34.5 -14.5zM650 -5q-43 0 -86.5 6t-80.5 29t-60.5 71.5t-26.5 133.5l64 34q5 -67 22.5 -105.5t44.5 -57t61 -24t71 -5.5q21 0 30.5 -11.5t9.5 -27.5
t-13.5 -29.5t-35.5 -13.5zM360 -394q-70 0 -133.5 16t-112 49.5t-76.5 84.5t-28 120q0 58 17 110.5t49.5 99t79.5 85.5t107 69.5t131 51.5l-11 -13q-26 8 -53 17.5t-56 18t-62 13.5t-71 5q-30 0 -52.5 -5t-42.5 -10l-14 74q26 11 58.5 17.5t65.5 6.5q46 0 82 -8.5t68.5 -21
t68.5 -25t80.5 -21t105.5 -8.5h9l2 -82q-48 0 -102 -11t-107.5 -32t-102.5 -52t-86.5 -71.5t-59.5 -90t-22 -107.5q0 -52 22 -89.5t60.5 -61.5t89 -35t106.5 -11q49 0 100.5 10.5t100.5 29.5l28 -68q-58 -28 -119 -41.5t-120 -13.5zM351 -115q-21 0 -35.5 14.5t-14.5 34.5
t14.5 35t35.5 15q20 0 34.5 -15t14.5 -35t-14.5 -34.5t-34.5 -14.5z" />
    <glyph glyph-name="uniFC1A" unicode="&#xfc1a;" horiz-adv-x="1238" arabic-form="isolated" 
d="M649 -5l9 82q52 0 102 8t98 23t92.5 36.5t84.5 49.5q-26 23 -60 40t-74.5 26.5t-85.5 9.5q-16 0 -30 -1t-28 -3.5t-32 -6.5l-16 76q27 8 54 12.5t52 4.5q52 0 94 -12.5t76.5 -30.5t65 -36t59.5 -30.5t60 -12.5h21l7 -72q-43 0 -79 -12t-70.5 -30.5t-72.5 -39t-84 -39
t-105.5 -30.5t-137.5 -12zM816 455q-21 0 -35.5 14.5t-14.5 34.5t14.5 35t35.5 15q20 0 34.5 -15t14.5 -35t-14.5 -34.5t-34.5 -14.5zM650 -5q-43 0 -86.5 6t-80.5 29t-60.5 71.5t-26.5 133.5l64 34q5 -67 22.5 -105.5t44.5 -57t61 -24t71 -5.5q21 0 30.5 -11.5t9.5 -27.5
t-13.5 -29.5t-35.5 -13.5zM360 -394q-70 0 -133.5 16t-112 49.5t-76.5 84.5t-28 120q0 58 17 110.5t49.5 99t79.5 85.5t107 69.5t131 51.5l-11 -13q-26 8 -53 17.5t-56 18t-62 13.5t-71 5q-30 0 -52.5 -5t-42.5 -10l-14 74q26 11 58.5 17.5t65.5 6.5q46 0 82 -8.5t68.5 -21
t68.5 -25t80.5 -21t105.5 -8.5h9l2 -82q-48 0 -102 -11t-107.5 -32t-102.5 -52t-86.5 -71.5t-59.5 -90t-22 -107.5q0 -52 22 -89.5t60.5 -61.5t89 -35t106.5 -11q49 0 100.5 10.5t100.5 29.5l28 -68q-58 -28 -119 -41.5t-120 -13.5z" />
    <glyph glyph-name="uniFC1B" unicode="&#xfc1b;" horiz-adv-x="1151" arabic-form="isolated" 
d="M562 -5l9 82q52 0 102 8t98 23t92.5 36.5t84.5 49.5q-26 23 -60 40t-74.5 26.5t-85.5 9.5q-16 0 -30 -1t-28 -3.5t-32 -6.5l-16 76q27 8 54 12.5t52 4.5q52 0 94 -12.5t76.5 -30.5t65 -36t59.5 -30.5t60 -12.5h21l7 -72q-43 0 -79 -12t-70.5 -30.5t-72.5 -39t-84 -39
t-105.5 -30.5t-137.5 -12zM729 455q-21 0 -35.5 14.5t-14.5 34.5t14.5 35t35.5 15q20 0 34.5 -15t14.5 -35t-14.5 -34.5t-34.5 -14.5zM77 -393q-21 77 -36 150.5t-23 131.5t-8 86q0 74 24 135t62 107.5t82 79t85.5 49t70.5 16.5q25 0 44 -11t37 -43t38 -94q19 -57 36 -86.5
t37 -40t46 -10.5q21 0 30.5 -11.5t9.5 -27.5t-14 -29.5t-36 -13.5q-39 0 -66.5 14t-47.5 38l23 19q-12 -29 -30.5 -47.5t-41 -27.5t-47.5 -9q-29 0 -60 10.5t-61 31t-56.5 50.5t-46.5 68l10 -2q-28 -39 -37 -84.5t-9 -80.5q0 -28 6 -71.5t15.5 -92.5t21 -97.5t21.5 -87.5z
M360 64q18 0 29.5 7t15.5 21t-3 35q-12 36 -22 63.5t-19.5 46t-19.5 27.5t-21 9t-27.5 -5t-35 -15t-37.5 -25t-36 -35l1 8q22 -46 53.5 -77t64 -45.5t57.5 -14.5z" />
    <glyph glyph-name="uniFC1C" unicode="&#xfc1c;" horiz-adv-x="1433" arabic-form="isolated" 
d="M649 -5l10 82q32 0 52 4.5t33.5 23t25.5 58.5t28 112l75 -21q-4 -17 -9 -38.5t-9 -44t-4 -41.5q0 -25 19 -39t69 -14q30 0 49 5t31.5 24t22.5 61t21 115l76 -14q-3 -18 -7 -44t-7.5 -51.5t-3.5 -42.5q0 -14 6.5 -26.5t26 -19.5t58.5 -7q29 0 50.5 7t33 26t11.5 53
q0 38 -17.5 95.5t-39.5 114.5l81 30q13 -32 24.5 -73t19.5 -81t8 -70q0 -46 -12 -81t-34 -57.5t-54 -34t-72 -11.5q-47 0 -77 11t-46 33.5t-21 57.5h34q-19 -43 -40 -65t-52 -29.5t-82 -7.5q-25 0 -53.5 8t-49.5 31.5t-25 70.5l30 6q-17 -51 -41.5 -75.5t-58.5 -32.5t-80 -8
zM650 -5q-43 0 -86.5 6t-80.5 29t-60.5 71.5t-26.5 133.5l64 34q5 -67 22.5 -105.5t44.5 -57t61 -24t71 -5.5q21 0 30.5 -11.5t9.5 -27.5t-13.5 -29.5t-35.5 -13.5zM360 -394q-70 0 -133.5 16t-112 49.5t-76.5 84.5t-28 120q0 58 17 110.5t49.5 99t79.5 85.5t107 69.5
t131 51.5l-11 -13q-26 8 -53 17.5t-56 18t-62 13.5t-71 5q-30 0 -52.5 -5t-42.5 -10l-14 74q26 11 58.5 17.5t65.5 6.5q46 0 82 -8.5t68.5 -21t68.5 -25t80.5 -21t105.5 -8.5h9l2 -82q-48 0 -102 -11t-107.5 -32t-102.5 -52t-86.5 -71.5t-59.5 -90t-22 -107.5
q0 -52 22 -89.5t60.5 -61.5t89 -35t106.5 -11q49 0 100.5 10.5t100.5 29.5l28 -68q-58 -28 -119 -41.5t-120 -13.5zM351 -115q-21 0 -35.5 14.5t-14.5 34.5t14.5 35t35.5 15q20 0 34.5 -15t14.5 -35t-14.5 -34.5t-34.5 -14.5z" />
    <glyph glyph-name="uniFC1D" unicode="&#xfc1d;" horiz-adv-x="1433" arabic-form="isolated" 
d="M649 -5l10 82q32 0 52 4.5t33.5 23t25.5 58.5t28 112l75 -21q-4 -17 -9 -38.5t-9 -44t-4 -41.5q0 -25 19 -39t69 -14q30 0 49 5t31.5 24t22.5 61t21 115l76 -14q-3 -18 -7 -44t-7.5 -51.5t-3.5 -42.5q0 -14 6.5 -26.5t26 -19.5t58.5 -7q29 0 50.5 7t33 26t11.5 53
q0 38 -17.5 95.5t-39.5 114.5l81 30q13 -32 24.5 -73t19.5 -81t8 -70q0 -46 -12 -81t-34 -57.5t-54 -34t-72 -11.5q-47 0 -77 11t-46 33.5t-21 57.5h34q-19 -43 -40 -65t-52 -29.5t-82 -7.5q-25 0 -53.5 8t-49.5 31.5t-25 70.5l30 6q-17 -51 -41.5 -75.5t-58.5 -32.5t-80 -8
zM650 -5q-43 0 -86.5 6t-80.5 29t-60.5 71.5t-26.5 133.5l64 34q5 -67 22.5 -105.5t44.5 -57t61 -24t71 -5.5q21 0 30.5 -11.5t9.5 -27.5t-13.5 -29.5t-35.5 -13.5zM360 -394q-70 0 -133.5 16t-112 49.5t-76.5 84.5t-28 120q0 58 17 110.5t49.5 99t79.5 85.5t107 69.5
t131 51.5l-11 -13q-26 8 -53 17.5t-56 18t-62 13.5t-71 5q-30 0 -52.5 -5t-42.5 -10l-14 74q26 11 58.5 17.5t65.5 6.5q46 0 82 -8.5t68.5 -21t68.5 -25t80.5 -21t105.5 -8.5h9l2 -82q-48 0 -102 -11t-107.5 -32t-102.5 -52t-86.5 -71.5t-59.5 -90t-22 -107.5
q0 -52 22 -89.5t60.5 -61.5t89 -35t106.5 -11q49 0 100.5 10.5t100.5 29.5l28 -68q-58 -28 -119 -41.5t-120 -13.5z" />
    <glyph glyph-name="uniFC1E" unicode="&#xfc1e;" horiz-adv-x="1433" arabic-form="isolated" 
d="M649 -5l10 82q32 0 52 4.5t33.5 23t25.5 58.5t28 112l75 -21q-4 -17 -9 -38.5t-9 -44t-4 -41.5q0 -25 19 -39t69 -14q30 0 49 5t31.5 24t22.5 61t21 115l76 -14q-3 -18 -7 -44t-7.5 -51.5t-3.5 -42.5q0 -14 6.5 -26.5t26 -19.5t58.5 -7q29 0 50.5 7t33 26t11.5 53
q0 38 -17.5 95.5t-39.5 114.5l81 30q13 -32 24.5 -73t19.5 -81t8 -70q0 -46 -12 -81t-34 -57.5t-54 -34t-72 -11.5q-47 0 -77 11t-46 33.5t-21 57.5h34q-19 -43 -40 -65t-52 -29.5t-82 -7.5q-25 0 -53.5 8t-49.5 31.5t-25 70.5l30 6q-17 -51 -41.5 -75.5t-58.5 -32.5t-80 -8
zM650 -5q-43 0 -86.5 6t-80.5 29t-60.5 71.5t-26.5 133.5l64 34q5 -67 22.5 -105.5t44.5 -57t61 -24t71 -5.5q21 0 30.5 -11.5t9.5 -27.5t-13.5 -29.5t-35.5 -13.5zM360 -394q-70 0 -133.5 16t-112 49.5t-76.5 84.5t-28 120q0 58 17 110.5t49.5 99t79.5 85.5t107 69.5
t131 51.5l-11 -13q-26 8 -53 17.5t-56 18t-62 13.5t-71 5q-30 0 -52.5 -5t-42.5 -10l-14 74q26 11 58.5 17.5t65.5 6.5q46 0 82 -8.5t68.5 -21t68.5 -25t80.5 -21t105.5 -8.5h9l2 -82q-48 0 -102 -11t-107.5 -32t-102.5 -52t-86.5 -71.5t-59.5 -90t-22 -107.5
q0 -52 22 -89.5t60.5 -61.5t89 -35t106.5 -11q49 0 100.5 10.5t100.5 29.5l28 -68q-58 -28 -119 -41.5t-120 -13.5zM312 519q-21 0 -35.5 14.5t-14.5 34.5t14.5 35t35.5 15q20 0 34.5 -15t14.5 -35t-14.5 -34.5t-34.5 -14.5z" />
    <glyph glyph-name="uniFC1F" unicode="&#xfc1f;" horiz-adv-x="1346" arabic-form="isolated" 
d="M562 -5l10 82q32 0 52 4.5t33.5 23t25.5 58.5t28 112l75 -21q-4 -17 -9 -38.5t-9 -44t-4 -41.5q0 -25 19 -39t69 -14q30 0 49 5t31.5 24t22.5 61t21 115l76 -14q-3 -18 -7 -44t-7.5 -51.5t-3.5 -42.5q0 -14 6.5 -26.5t26 -19.5t58.5 -7q29 0 50.5 7t33 26t11.5 53
q0 38 -17.5 95.5t-39.5 114.5l81 30q13 -32 24.5 -73t19.5 -81t8 -70q0 -46 -12 -81t-34 -57.5t-54 -34t-72 -11.5q-47 0 -77 11t-46 33.5t-21 57.5h34q-19 -43 -40 -65t-52 -29.5t-82 -7.5q-25 0 -53.5 8t-49.5 31.5t-25 70.5l30 6q-17 -51 -41.5 -75.5t-58.5 -32.5t-80 -8
zM77 -393q-21 77 -36 150.5t-23 131.5t-8 86q0 74 24 135t62 107.5t82 79t85.5 49t70.5 16.5q25 0 44 -11t37 -43t38 -94q19 -57 36 -86.5t37 -40t46 -10.5q21 0 30.5 -11.5t9.5 -27.5t-14 -29.5t-36 -13.5q-39 0 -66.5 14t-47.5 38l23 19q-12 -29 -30.5 -47.5t-41 -27.5
t-47.5 -9q-29 0 -60 10.5t-61 31t-56.5 50.5t-46.5 68l10 -2q-28 -39 -37 -84.5t-9 -80.5q0 -28 6 -71.5t15.5 -92.5t21 -97.5t21.5 -87.5zM360 64q18 0 29.5 7t15.5 21t-3 35q-12 36 -22 63.5t-19.5 46t-19.5 27.5t-21 9t-27.5 -5t-35 -15t-37.5 -25t-36 -35l1 8
q22 -46 53.5 -77t64 -45.5t57.5 -14.5z" />
    <glyph glyph-name="uniFC20" unicode="&#xfc20;" horiz-adv-x="1552" arabic-form="isolated" 
d="M1133 -18q-88 0 -147.5 6.5t-96.5 19.5t-56 33t-26 48l23 8q-25 -48 -54 -69.5t-60.5 -27t-66.5 -5.5l10 82q35 0 57.5 10t37 33t25.5 61t24 94l73 -19q-6 -23 -11 -44t-7.5 -36.5t-2.5 -24.5q0 -24 11 -40.5t42 -27t89.5 -15t153.5 -4.5q66 0 118 8t87.5 24.5t54.5 40.5
t19 55q0 22 -11 43.5t-34 36.5t-61 15q-48 0 -95.5 -25t-90 -62.5t-75.5 -76.5t-53 -68l-87 3q32 52 76.5 106.5t98 101t112.5 75t120 28.5q55 0 94.5 -22.5t61 -60.5t21.5 -86q0 -59 -34.5 -108.5t-116.5 -79.5t-223 -30zM650 -5q-43 0 -86.5 6t-80.5 29t-60.5 71.5
t-26.5 133.5l64 34q5 -67 22.5 -105.5t44.5 -57t61 -24t71 -5.5q21 0 30.5 -11.5t9.5 -27.5t-13.5 -29.5t-35.5 -13.5zM360 -394q-70 0 -133.5 16t-112 49.5t-76.5 84.5t-28 120q0 58 17 110.5t49.5 99t79.5 85.5t107 69.5t131 51.5l-11 -13q-26 8 -53 17.5t-56 18t-62 13.5
t-71 5q-30 0 -52.5 -5t-42.5 -10l-14 74q26 11 58.5 17.5t65.5 6.5q46 0 82 -8.5t68.5 -21t68.5 -25t80.5 -21t105.5 -8.5h9l2 -82q-48 0 -102 -11t-107.5 -32t-102.5 -52t-86.5 -71.5t-59.5 -90t-22 -107.5q0 -52 22 -89.5t60.5 -61.5t89 -35t106.5 -11q49 0 100.5 10.5
t100.5 29.5l28 -68q-58 -28 -119 -41.5t-120 -13.5z" />
    <glyph glyph-name="uniFC21" unicode="&#xfc21;" horiz-adv-x="1465" arabic-form="isolated" 
d="M1046 -18q-88 0 -147.5 6.5t-96.5 19.5t-56 33t-26 48l23 8q-25 -48 -54 -69.5t-60.5 -27t-66.5 -5.5l10 82q35 0 57.5 10t37 33t25.5 61t24 94l73 -19q-6 -23 -11 -44t-7.5 -36.5t-2.5 -24.5q0 -24 11 -40.5t42 -27t89.5 -15t153.5 -4.5q66 0 118 8t87.5 24.5t54.5 40.5
t19 55q0 22 -11 43.5t-34 36.5t-61 15q-48 0 -95.5 -25t-90 -62.5t-75.5 -76.5t-53 -68l-87 3q32 52 76.5 106.5t98 101t112.5 75t120 28.5q55 0 94.5 -22.5t61 -60.5t21.5 -86q0 -59 -34.5 -108.5t-116.5 -79.5t-223 -30zM77 -393q-21 77 -36 150.5t-23 131.5t-8 86
q0 74 24 135t62 107.5t82 79t85.5 49t70.5 16.5q25 0 44 -11t37 -43t38 -94q19 -57 36 -86.5t37 -40t46 -10.5q21 0 30.5 -11.5t9.5 -27.5t-14 -29.5t-36 -13.5q-39 0 -66.5 14t-47.5 38l23 19q-12 -29 -30.5 -47.5t-41 -27.5t-47.5 -9q-29 0 -60 10.5t-61 31t-56.5 50.5
t-46.5 68l10 -2q-28 -39 -37 -84.5t-9 -80.5q0 -28 6 -71.5t15.5 -92.5t21 -97.5t21.5 -87.5zM360 64q18 0 29.5 7t15.5 21t-3 35q-12 36 -22 63.5t-19.5 46t-19.5 27.5t-21 9t-27.5 -5t-35 -15t-37.5 -25t-36 -35l1 8q22 -46 53.5 -77t64 -45.5t57.5 -14.5z" />
    <glyph glyph-name="uniFC22" unicode="&#xfc22;" horiz-adv-x="1552" arabic-form="isolated" 
d="M1133 -18q-88 0 -147.5 6.5t-96.5 19.5t-56 33t-26 48l23 8q-25 -48 -54 -69.5t-60.5 -27t-66.5 -5.5l10 82q35 0 57.5 10t37 33t25.5 61t24 94l73 -19q-6 -23 -11 -44t-7.5 -36.5t-2.5 -24.5q0 -24 11 -40.5t42 -27t89.5 -15t153.5 -4.5q66 0 118 8t87.5 24.5t54.5 40.5
t19 55q0 22 -11 43.5t-34 36.5t-61 15q-48 0 -95.5 -25t-90 -62.5t-75.5 -76.5t-53 -68l-87 3q32 52 76.5 106.5t98 101t112.5 75t120 28.5q55 0 94.5 -22.5t61 -60.5t21.5 -86q0 -59 -34.5 -108.5t-116.5 -79.5t-223 -30zM1301 472q-21 0 -35.5 14.5t-14.5 34.5t14.5 35
t35.5 15q20 0 34.5 -15t14.5 -35t-14.5 -34.5t-34.5 -14.5zM650 -5q-43 0 -86.5 6t-80.5 29t-60.5 71.5t-26.5 133.5l64 34q5 -67 22.5 -105.5t44.5 -57t61 -24t71 -5.5q21 0 30.5 -11.5t9.5 -27.5t-13.5 -29.5t-35.5 -13.5zM360 -394q-70 0 -133.5 16t-112 49.5t-76.5 84.5
t-28 120q0 58 17 110.5t49.5 99t79.5 85.5t107 69.5t131 51.5l-11 -13q-26 8 -53 17.5t-56 18t-62 13.5t-71 5q-30 0 -52.5 -5t-42.5 -10l-14 74q26 11 58.5 17.5t65.5 6.5q46 0 82 -8.5t68.5 -21t68.5 -25t80.5 -21t105.5 -8.5h9l2 -82q-48 0 -102 -11t-107.5 -32
t-102.5 -52t-86.5 -71.5t-59.5 -90t-22 -107.5q0 -52 22 -89.5t60.5 -61.5t89 -35t106.5 -11q49 0 100.5 10.5t100.5 29.5l28 -68q-58 -28 -119 -41.5t-120 -13.5zM351 -115q-21 0 -35.5 14.5t-14.5 34.5t14.5 35t35.5 15q20 0 34.5 -15t14.5 -35t-14.5 -34.5t-34.5 -14.5z
" />
    <glyph glyph-name="uniFC23" unicode="&#xfc23;" horiz-adv-x="1552" arabic-form="isolated" 
d="M1133 -18q-88 0 -147.5 6.5t-96.5 19.5t-56 33t-26 48l23 8q-25 -48 -54 -69.5t-60.5 -27t-66.5 -5.5l10 82q35 0 57.5 10t37 33t25.5 61t24 94l73 -19q-6 -23 -11 -44t-7.5 -36.5t-2.5 -24.5q0 -24 11 -40.5t42 -27t89.5 -15t153.5 -4.5q66 0 118 8t87.5 24.5t54.5 40.5
t19 55q0 22 -11 43.5t-34 36.5t-61 15q-48 0 -95.5 -25t-90 -62.5t-75.5 -76.5t-53 -68l-87 3q32 52 76.5 106.5t98 101t112.5 75t120 28.5q55 0 94.5 -22.5t61 -60.5t21.5 -86q0 -59 -34.5 -108.5t-116.5 -79.5t-223 -30zM1301 472q-21 0 -35.5 14.5t-14.5 34.5t14.5 35
t35.5 15q20 0 34.5 -15t14.5 -35t-14.5 -34.5t-34.5 -14.5zM650 -5q-43 0 -86.5 6t-80.5 29t-60.5 71.5t-26.5 133.5l64 34q5 -67 22.5 -105.5t44.5 -57t61 -24t71 -5.5q21 0 30.5 -11.5t9.5 -27.5t-13.5 -29.5t-35.5 -13.5zM360 -394q-70 0 -133.5 16t-112 49.5t-76.5 84.5
t-28 120q0 58 17 110.5t49.5 99t79.5 85.5t107 69.5t131 51.5l-11 -13q-26 8 -53 17.5t-56 18t-62 13.5t-71 5q-30 0 -52.5 -5t-42.5 -10l-14 74q26 11 58.5 17.5t65.5 6.5q46 0 82 -8.5t68.5 -21t68.5 -25t80.5 -21t105.5 -8.5h9l2 -82q-48 0 -102 -11t-107.5 -32
t-102.5 -52t-86.5 -71.5t-59.5 -90t-22 -107.5q0 -52 22 -89.5t60.5 -61.5t89 -35t106.5 -11q49 0 100.5 10.5t100.5 29.5l28 -68q-58 -28 -119 -41.5t-120 -13.5z" />
    <glyph glyph-name="uniFC24" unicode="&#xfc24;" horiz-adv-x="1552" arabic-form="isolated" 
d="M1133 -18q-88 0 -147.5 6.5t-96.5 19.5t-56 33t-26 48l23 8q-25 -48 -54 -69.5t-60.5 -27t-66.5 -5.5l10 82q35 0 57.5 10t37 33t25.5 61t24 94l73 -19q-6 -23 -11 -44t-7.5 -36.5t-2.5 -24.5q0 -24 11 -40.5t42 -27t89.5 -15t153.5 -4.5q66 0 118 8t87.5 24.5t54.5 40.5
t19 55q0 22 -11 43.5t-34 36.5t-61 15q-48 0 -95.5 -25t-90 -62.5t-75.5 -76.5t-53 -68l-87 3q32 52 76.5 106.5t98 101t112.5 75t120 28.5q55 0 94.5 -22.5t61 -60.5t21.5 -86q0 -59 -34.5 -108.5t-116.5 -79.5t-223 -30zM1301 472q-21 0 -35.5 14.5t-14.5 34.5t14.5 35
t35.5 15q20 0 34.5 -15t14.5 -35t-14.5 -34.5t-34.5 -14.5zM650 -5q-43 0 -86.5 6t-80.5 29t-60.5 71.5t-26.5 133.5l64 34q5 -67 22.5 -105.5t44.5 -57t61 -24t71 -5.5q21 0 30.5 -11.5t9.5 -27.5t-13.5 -29.5t-35.5 -13.5zM360 -394q-70 0 -133.5 16t-112 49.5t-76.5 84.5
t-28 120q0 58 17 110.5t49.5 99t79.5 85.5t107 69.5t131 51.5l-11 -13q-26 8 -53 17.5t-56 18t-62 13.5t-71 5q-30 0 -52.5 -5t-42.5 -10l-14 74q26 11 58.5 17.5t65.5 6.5q46 0 82 -8.5t68.5 -21t68.5 -25t80.5 -21t105.5 -8.5h9l2 -82q-48 0 -102 -11t-107.5 -32
t-102.5 -52t-86.5 -71.5t-59.5 -90t-22 -107.5q0 -52 22 -89.5t60.5 -61.5t89 -35t106.5 -11q49 0 100.5 10.5t100.5 29.5l28 -68q-58 -28 -119 -41.5t-120 -13.5zM312 519q-21 0 -35.5 14.5t-14.5 34.5t14.5 35t35.5 15q20 0 34.5 -15t14.5 -35t-14.5 -34.5t-34.5 -14.5z
" />
    <glyph glyph-name="uniFC25" unicode="&#xfc25;" horiz-adv-x="1465" arabic-form="isolated" 
d="M1046 -18q-88 0 -147.5 6.5t-96.5 19.5t-56 33t-26 48l23 8q-25 -48 -54 -69.5t-60.5 -27t-66.5 -5.5l10 82q35 0 57.5 10t37 33t25.5 61t24 94l73 -19q-6 -23 -11 -44t-7.5 -36.5t-2.5 -24.5q0 -24 11 -40.5t42 -27t89.5 -15t153.5 -4.5q66 0 118 8t87.5 24.5t54.5 40.5
t19 55q0 22 -11 43.5t-34 36.5t-61 15q-48 0 -95.5 -25t-90 -62.5t-75.5 -76.5t-53 -68l-87 3q32 52 76.5 106.5t98 101t112.5 75t120 28.5q55 0 94.5 -22.5t61 -60.5t21.5 -86q0 -59 -34.5 -108.5t-116.5 -79.5t-223 -30zM1214 472q-21 0 -35.5 14.5t-14.5 34.5t14.5 35
t35.5 15q20 0 34.5 -15t14.5 -35t-14.5 -34.5t-34.5 -14.5zM77 -393q-21 77 -36 150.5t-23 131.5t-8 86q0 74 24 135t62 107.5t82 79t85.5 49t70.5 16.5q25 0 44 -11t37 -43t38 -94q19 -57 36 -86.5t37 -40t46 -10.5q21 0 30.5 -11.5t9.5 -27.5t-14 -29.5t-36 -13.5
q-39 0 -66.5 14t-47.5 38l23 19q-12 -29 -30.5 -47.5t-41 -27.5t-47.5 -9q-29 0 -60 10.5t-61 31t-56.5 50.5t-46.5 68l10 -2q-28 -39 -37 -84.5t-9 -80.5q0 -28 6 -71.5t15.5 -92.5t21 -97.5t21.5 -87.5zM360 64q18 0 29.5 7t15.5 21t-3 35q-12 36 -22 63.5t-19.5 46
t-19.5 27.5t-21 9t-27.5 -5t-35 -15t-37.5 -25t-36 -35l1 8q22 -46 53.5 -77t64 -45.5t57.5 -14.5z" />
    <glyph glyph-name="uniFC26" unicode="&#xfc26;" horiz-adv-x="1326" arabic-form="isolated" 
d="M649 -5l10 82h209q87 0 150.5 7.5t104.5 22.5t61 38.5t20 55.5q0 17 -11 37t-34 34.5t-61 14.5q-48 0 -95.5 -25t-90 -62.5t-75.5 -76.5t-53 -68l-87 3q32 52 76.5 106.5t98 101t112.5 75t120 28.5q55 0 94.5 -22.5t61 -60.5t21.5 -86q0 -47 -34 -94.5t-117 -74.5
q-42 -14 -96 -22t-123 -11t-157 -3h-105zM744 94l-20 620h81l20 -550zM650 -5q-43 0 -86.5 6t-80.5 29t-60.5 71.5t-26.5 133.5l64 34q5 -67 22.5 -105.5t44.5 -57t61 -24t71 -5.5q21 0 30.5 -11.5t9.5 -27.5t-13.5 -29.5t-35.5 -13.5zM360 -394q-70 0 -133.5 16t-112 49.5
t-76.5 84.5t-28 120q0 58 17 110.5t49.5 99t79.5 85.5t107 69.5t131 51.5l-11 -13q-26 8 -53 17.5t-56 18t-62 13.5t-71 5q-30 0 -52.5 -5t-42.5 -10l-14 74q26 11 58.5 17.5t65.5 6.5q46 0 82 -8.5t68.5 -21t68.5 -25t80.5 -21t105.5 -8.5h9l2 -82q-48 0 -102 -11
t-107.5 -32t-102.5 -52t-86.5 -71.5t-59.5 -90t-22 -107.5q0 -52 22 -89.5t60.5 -61.5t89 -35t106.5 -11q49 0 100.5 10.5t100.5 29.5l28 -68q-58 -28 -119 -41.5t-120 -13.5z" />
    <glyph glyph-name="uniFC27" unicode="&#xfc27;" horiz-adv-x="1239" arabic-form="isolated" 
d="M562 -5l10 82h209q87 0 150.5 7.5t104.5 22.5t61 38.5t20 55.5q0 17 -11 37t-34 34.5t-61 14.5q-48 0 -95.5 -25t-90 -62.5t-75.5 -76.5t-53 -68l-87 3q32 52 76.5 106.5t98 101t112.5 75t120 28.5q55 0 94.5 -22.5t61 -60.5t21.5 -86q0 -47 -34 -94.5t-117 -74.5
q-42 -14 -96 -22t-123 -11t-157 -3h-105zM657 94l-20 620h81l20 -550zM77 -393q-21 77 -36 150.5t-23 131.5t-8 86q0 74 24 135t62 107.5t82 79t85.5 49t70.5 16.5q25 0 44 -11t37 -43t38 -94q19 -57 36 -86.5t37 -40t46 -10.5q21 0 30.5 -11.5t9.5 -27.5t-14 -29.5
t-36 -13.5q-39 0 -66.5 14t-47.5 38l23 19q-12 -29 -30.5 -47.5t-41 -27.5t-47.5 -9q-29 0 -60 10.5t-61 31t-56.5 50.5t-46.5 68l10 -2q-28 -39 -37 -84.5t-9 -80.5q0 -28 6 -71.5t15.5 -92.5t21 -97.5t21.5 -87.5zM360 64q18 0 29.5 7t15.5 21t-3 35q-12 36 -22 63.5
t-19.5 46t-19.5 27.5t-21 9t-27.5 -5t-35 -15t-37.5 -25t-36 -35l1 8q22 -46 53.5 -77t64 -45.5t57.5 -14.5z" />
    <glyph glyph-name="uniFC28" unicode="&#xfc28;" horiz-adv-x="1239" arabic-form="isolated" 
d="M562 -5l10 82h209q87 0 150.5 7.5t104.5 22.5t61 38.5t20 55.5q0 17 -11 37t-34 34.5t-61 14.5q-48 0 -95.5 -25t-90 -62.5t-75.5 -76.5t-53 -68l-87 3q32 52 76.5 106.5t98 101t112.5 75t120 28.5q55 0 94.5 -22.5t61 -60.5t21.5 -86q0 -47 -34 -94.5t-117 -74.5
q-42 -14 -96 -22t-123 -11t-157 -3h-105zM657 94l-20 620h81l20 -550zM968 472q-21 0 -35.5 14.5t-14.5 34.5t14.5 35t35.5 15q20 0 34.5 -15t14.5 -35t-14.5 -34.5t-34.5 -14.5zM77 -393q-21 77 -36 150.5t-23 131.5t-8 86q0 74 24 135t62 107.5t82 79t85.5 49t70.5 16.5
q25 0 44 -11t37 -43t38 -94q19 -57 36 -86.5t37 -40t46 -10.5q21 0 30.5 -11.5t9.5 -27.5t-14 -29.5t-36 -13.5q-39 0 -66.5 14t-47.5 38l23 19q-12 -29 -30.5 -47.5t-41 -27.5t-47.5 -9q-29 0 -60 10.5t-61 31t-56.5 50.5t-46.5 68l10 -2q-28 -39 -37 -84.5t-9 -80.5
q0 -28 6 -71.5t15.5 -92.5t21 -97.5t21.5 -87.5zM360 64q18 0 29.5 7t15.5 21t-3 35q-12 36 -22 63.5t-19.5 46t-19.5 27.5t-21 9t-27.5 -5t-35 -15t-37.5 -25t-36 -35l1 8q22 -46 53.5 -77t64 -45.5t57.5 -14.5z" />
    <glyph glyph-name="uniFC29" unicode="&#xfc29;" horiz-adv-x="1152" arabic-form="isolated" 
d="M649 -5l10 82q63 0 97.5 1t50.5 2.5t22 1.5q-18 10 -42 31.5t-42 55t-18 79.5q0 57 26.5 100t73 67t106.5 24q23 0 49 -4t50 -12l-17 -77q-20 5 -42 8t-40 3q-36 0 -64 -13.5t-44 -37.5t-16 -58q0 -26 11 -47.5t29 -38.5t40 -28t43.5 -17t38.5 -5q12 4 22 7t22.5 7.5
t31 12.5t47.5 21l28 -73q-67 -27 -136.5 -48t-151 -32.5t-185.5 -11.5zM650 -5q-43 0 -86.5 6t-80.5 29t-60.5 71.5t-26.5 133.5l64 34q5 -67 22.5 -105.5t44.5 -57t61 -24t71 -5.5q21 0 30.5 -11.5t9.5 -27.5t-13.5 -29.5t-35.5 -13.5zM360 -394q-70 0 -133.5 16t-112 49.5
t-76.5 84.5t-28 120q0 58 17 110.5t49.5 99t79.5 85.5t107 69.5t131 51.5l-11 -13q-26 8 -53 17.5t-56 18t-62 13.5t-71 5q-30 0 -52.5 -5t-42.5 -10l-14 74q26 11 58.5 17.5t65.5 6.5q46 0 82 -8.5t68.5 -21t68.5 -25t80.5 -21t105.5 -8.5h9l2 -82q-48 0 -102 -11
t-107.5 -32t-102.5 -52t-86.5 -71.5t-59.5 -90t-22 -107.5q0 -52 22 -89.5t60.5 -61.5t89 -35t106.5 -11q49 0 100.5 10.5t100.5 29.5l28 -68q-58 -28 -119 -41.5t-120 -13.5zM351 -115q-21 0 -35.5 14.5t-14.5 34.5t14.5 35t35.5 15q20 0 34.5 -15t14.5 -35t-14.5 -34.5
t-34.5 -14.5z" />
    <glyph glyph-name="uniFC2A" unicode="&#xfc2a;" horiz-adv-x="1065" arabic-form="isolated" 
d="M562 -5l10 82q63 0 97.5 1t50.5 2.5t22 1.5q-18 10 -42 31.5t-42 55t-18 79.5q0 57 26.5 100t73 67t106.5 24q23 0 49 -4t50 -12l-17 -77q-20 5 -42 8t-40 3q-36 0 -64 -13.5t-44 -37.5t-16 -58q0 -26 11 -47.5t29 -38.5t40 -28t43.5 -17t38.5 -5q12 4 22 7t22.5 7.5
t31 12.5t47.5 21l28 -73q-67 -27 -136.5 -48t-151 -32.5t-185.5 -11.5zM77 -393q-21 77 -36 150.5t-23 131.5t-8 86q0 74 24 135t62 107.5t82 79t85.5 49t70.5 16.5q25 0 44 -11t37 -43t38 -94q19 -57 36 -86.5t37 -40t46 -10.5q21 0 30.5 -11.5t9.5 -27.5t-14 -29.5
t-36 -13.5q-39 0 -66.5 14t-47.5 38l23 19q-12 -29 -30.5 -47.5t-41 -27.5t-47.5 -9q-29 0 -60 10.5t-61 31t-56.5 50.5t-46.5 68l10 -2q-28 -39 -37 -84.5t-9 -80.5q0 -28 6 -71.5t15.5 -92.5t21 -97.5t21.5 -87.5zM360 64q18 0 29.5 7t15.5 21t-3 35q-12 36 -22 63.5
t-19.5 46t-19.5 27.5t-21 9t-27.5 -5t-35 -15t-37.5 -25t-36 -35l1 8q22 -46 53.5 -77t64 -45.5t57.5 -14.5z" />
    <glyph glyph-name="uniFC2B" unicode="&#xfc2b;" horiz-adv-x="1152" arabic-form="isolated" 
d="M649 -5l10 82q63 0 97.5 1t50.5 2.5t22 1.5q-18 10 -42 31.5t-42 55t-18 79.5q0 57 26.5 100t73 67t106.5 24q23 0 49 -4t50 -12l-17 -77q-20 5 -42 8t-40 3q-36 0 -64 -13.5t-44 -37.5t-16 -58q0 -26 11 -47.5t29 -38.5t40 -28t43.5 -17t38.5 -5q12 4 22 7t22.5 7.5
t31 12.5t47.5 21l28 -73q-67 -27 -136.5 -48t-151 -32.5t-185.5 -11.5zM914 542q-21 0 -35.5 14.5t-14.5 34.5t14.5 35t35.5 15q20 0 34.5 -15t14.5 -35t-14.5 -34.5t-34.5 -14.5zM650 -5q-43 0 -86.5 6t-80.5 29t-60.5 71.5t-26.5 133.5l64 34q5 -67 22.5 -105.5t44.5 -57
t61 -24t71 -5.5q21 0 30.5 -11.5t9.5 -27.5t-13.5 -29.5t-35.5 -13.5zM360 -394q-70 0 -133.5 16t-112 49.5t-76.5 84.5t-28 120q0 58 17 110.5t49.5 99t79.5 85.5t107 69.5t131 51.5l-11 -13q-26 8 -53 17.5t-56 18t-62 13.5t-71 5q-30 0 -52.5 -5t-42.5 -10l-14 74
q26 11 58.5 17.5t65.5 6.5q46 0 82 -8.5t68.5 -21t68.5 -25t80.5 -21t105.5 -8.5h9l2 -82q-48 0 -102 -11t-107.5 -32t-102.5 -52t-86.5 -71.5t-59.5 -90t-22 -107.5q0 -52 22 -89.5t60.5 -61.5t89 -35t106.5 -11q49 0 100.5 10.5t100.5 29.5l28 -68q-58 -28 -119 -41.5
t-120 -13.5zM351 -115q-21 0 -35.5 14.5t-14.5 34.5t14.5 35t35.5 15q20 0 34.5 -15t14.5 -35t-14.5 -34.5t-34.5 -14.5z" />
    <glyph glyph-name="uniFC2C" unicode="&#xfc2c;" horiz-adv-x="1065" arabic-form="isolated" 
d="M562 -5l10 82q63 0 97.5 1t50.5 2.5t22 1.5q-18 10 -42 31.5t-42 55t-18 79.5q0 57 26.5 100t73 67t106.5 24q23 0 49 -4t50 -12l-17 -77q-20 5 -42 8t-40 3q-36 0 -64 -13.5t-44 -37.5t-16 -58q0 -26 11 -47.5t29 -38.5t40 -28t43.5 -17t38.5 -5q12 4 22 7t22.5 7.5
t31 12.5t47.5 21l28 -73q-67 -27 -136.5 -48t-151 -32.5t-185.5 -11.5zM827 542q-21 0 -35.5 14.5t-14.5 34.5t14.5 35t35.5 15q20 0 34.5 -15t14.5 -35t-14.5 -34.5t-34.5 -14.5zM77 -393q-21 77 -36 150.5t-23 131.5t-8 86q0 74 24 135t62 107.5t82 79t85.5 49t70.5 16.5
q25 0 44 -11t37 -43t38 -94q19 -57 36 -86.5t37 -40t46 -10.5q21 0 30.5 -11.5t9.5 -27.5t-14 -29.5t-36 -13.5q-39 0 -66.5 14t-47.5 38l23 19q-12 -29 -30.5 -47.5t-41 -27.5t-47.5 -9q-29 0 -60 10.5t-61 31t-56.5 50.5t-46.5 68l10 -2q-28 -39 -37 -84.5t-9 -80.5
q0 -28 6 -71.5t15.5 -92.5t21 -97.5t21.5 -87.5zM360 64q18 0 29.5 7t15.5 21t-3 35q-12 36 -22 63.5t-19.5 46t-19.5 27.5t-21 9t-27.5 -5t-35 -15t-37.5 -25t-36 -35l1 8q22 -46 53.5 -77t64 -45.5t57.5 -14.5z" />
    <glyph glyph-name="uniFC2D" unicode="&#xfc2d;" horiz-adv-x="1096" arabic-form="isolated" 
d="M649 -5l10 82q25 0 55.5 0.5t62 1.5t58.5 4.5t45 9.5q36 13 56 32.5t28.5 52t8.5 83.5q0 42 -11 78t-31 58t-48 22q-23 0 -41.5 -17.5t-29 -44.5t-10.5 -54q0 -21 8.5 -36t28.5 -23.5t52 -8.5q29 0 58.5 6t50.5 16l4 -70q-16 -11 -36 -18t-42 -10t-44 -3
q-51 0 -86.5 16.5t-54 45t-18.5 65.5q0 38 12 76.5t34 70.5t53 51.5t69 19.5q54 0 89.5 -35t53 -91.5t17.5 -119.5q0 -75 -25.5 -128.5t-84.5 -88.5q-23 -13 -55.5 -21.5t-71 -13.5t-80.5 -6.5t-85 -1.5zM872 604q-21 0 -35.5 14.5t-14.5 34.5t14.5 35t35.5 15
q20 0 34.5 -15t14.5 -35t-14.5 -34.5t-34.5 -14.5zM650 -5q-43 0 -86.5 6t-80.5 29t-60.5 71.5t-26.5 133.5l64 34q5 -67 22.5 -105.5t44.5 -57t61 -24t71 -5.5q21 0 30.5 -11.5t9.5 -27.5t-13.5 -29.5t-35.5 -13.5zM360 -394q-70 0 -133.5 16t-112 49.5t-76.5 84.5t-28 120
q0 58 17 110.5t49.5 99t79.5 85.5t107 69.5t131 51.5l-11 -13q-26 8 -53 17.5t-56 18t-62 13.5t-71 5q-30 0 -52.5 -5t-42.5 -10l-14 74q26 11 58.5 17.5t65.5 6.5q46 0 82 -8.5t68.5 -21t68.5 -25t80.5 -21t105.5 -8.5h9l2 -82q-48 0 -102 -11t-107.5 -32t-102.5 -52
t-86.5 -71.5t-59.5 -90t-22 -107.5q0 -52 22 -89.5t60.5 -61.5t89 -35t106.5 -11q49 0 100.5 10.5t100.5 29.5l28 -68q-58 -28 -119 -41.5t-120 -13.5zM351 -115q-21 0 -35.5 14.5t-14.5 34.5t14.5 35t35.5 15q20 0 34.5 -15t14.5 -35t-14.5 -34.5t-34.5 -14.5z" />
    <glyph glyph-name="uniFC2E" unicode="&#xfc2e;" horiz-adv-x="1096" arabic-form="isolated" 
d="M649 -5l10 82q25 0 55.5 0.5t62 1.5t58.5 4.5t45 9.5q36 13 56 32.5t28.5 52t8.5 83.5q0 42 -11 78t-31 58t-48 22q-23 0 -41.5 -17.5t-29 -44.5t-10.5 -54q0 -21 8.5 -36t28.5 -23.5t52 -8.5q29 0 58.5 6t50.5 16l4 -70q-16 -11 -36 -18t-42 -10t-44 -3
q-51 0 -86.5 16.5t-54 45t-18.5 65.5q0 38 12 76.5t34 70.5t53 51.5t69 19.5q54 0 89.5 -35t53 -91.5t17.5 -119.5q0 -75 -25.5 -128.5t-84.5 -88.5q-23 -13 -55.5 -21.5t-71 -13.5t-80.5 -6.5t-85 -1.5zM872 604q-21 0 -35.5 14.5t-14.5 34.5t14.5 35t35.5 15
q20 0 34.5 -15t14.5 -35t-14.5 -34.5t-34.5 -14.5zM650 -5q-43 0 -86.5 6t-80.5 29t-60.5 71.5t-26.5 133.5l64 34q5 -67 22.5 -105.5t44.5 -57t61 -24t71 -5.5q21 0 30.5 -11.5t9.5 -27.5t-13.5 -29.5t-35.5 -13.5zM360 -394q-70 0 -133.5 16t-112 49.5t-76.5 84.5t-28 120
q0 58 17 110.5t49.5 99t79.5 85.5t107 69.5t131 51.5l-11 -13q-26 8 -53 17.5t-56 18t-62 13.5t-71 5q-30 0 -52.5 -5t-42.5 -10l-14 74q26 11 58.5 17.5t65.5 6.5q46 0 82 -8.5t68.5 -21t68.5 -25t80.5 -21t105.5 -8.5h9l2 -82q-48 0 -102 -11t-107.5 -32t-102.5 -52
t-86.5 -71.5t-59.5 -90t-22 -107.5q0 -52 22 -89.5t60.5 -61.5t89 -35t106.5 -11q49 0 100.5 10.5t100.5 29.5l28 -68q-58 -28 -119 -41.5t-120 -13.5z" />
    <glyph glyph-name="uniFC2F" unicode="&#xfc2f;" horiz-adv-x="1096" arabic-form="isolated" 
d="M649 -5l10 82q25 0 55.5 0.5t62 1.5t58.5 4.5t45 9.5q36 13 56 32.5t28.5 52t8.5 83.5q0 42 -11 78t-31 58t-48 22q-23 0 -41.5 -17.5t-29 -44.5t-10.5 -54q0 -21 8.5 -36t28.5 -23.5t52 -8.5q29 0 58.5 6t50.5 16l4 -70q-16 -11 -36 -18t-42 -10t-44 -3
q-51 0 -86.5 16.5t-54 45t-18.5 65.5q0 38 12 76.5t34 70.5t53 51.5t69 19.5q54 0 89.5 -35t53 -91.5t17.5 -119.5q0 -75 -25.5 -128.5t-84.5 -88.5q-23 -13 -55.5 -21.5t-71 -13.5t-80.5 -6.5t-85 -1.5zM872 604q-21 0 -35.5 14.5t-14.5 34.5t14.5 35t35.5 15
q20 0 34.5 -15t14.5 -35t-14.5 -34.5t-34.5 -14.5zM650 -5q-43 0 -86.5 6t-80.5 29t-60.5 71.5t-26.5 133.5l64 34q5 -67 22.5 -105.5t44.5 -57t61 -24t71 -5.5q21 0 30.5 -11.5t9.5 -27.5t-13.5 -29.5t-35.5 -13.5zM360 -394q-70 0 -133.5 16t-112 49.5t-76.5 84.5t-28 120
q0 58 17 110.5t49.5 99t79.5 85.5t107 69.5t131 51.5l-11 -13q-26 8 -53 17.5t-56 18t-62 13.5t-71 5q-30 0 -52.5 -5t-42.5 -10l-14 74q26 11 58.5 17.5t65.5 6.5q46 0 82 -8.5t68.5 -21t68.5 -25t80.5 -21t105.5 -8.5h9l2 -82q-48 0 -102 -11t-107.5 -32t-102.5 -52
t-86.5 -71.5t-59.5 -90t-22 -107.5q0 -52 22 -89.5t60.5 -61.5t89 -35t106.5 -11q49 0 100.5 10.5t100.5 29.5l28 -68q-58 -28 -119 -41.5t-120 -13.5zM312 519q-21 0 -35.5 14.5t-14.5 34.5t14.5 35t35.5 15q20 0 34.5 -15t14.5 -35t-14.5 -34.5t-34.5 -14.5z" />
    <glyph glyph-name="uniFC30" unicode="&#xfc30;" horiz-adv-x="1009" arabic-form="isolated" 
d="M562 -5l10 82q25 0 55.5 0.5t62 1.5t58.5 4.5t45 9.5q36 13 56 32.5t28.5 52t8.5 83.5q0 42 -11 78t-31 58t-48 22q-23 0 -41.5 -17.5t-29 -44.5t-10.5 -54q0 -21 8.5 -36t28.5 -23.5t52 -8.5q29 0 58.5 6t50.5 16l4 -70q-16 -11 -36 -18t-42 -10t-44 -3
q-51 0 -86.5 16.5t-54 45t-18.5 65.5q0 38 12 76.5t34 70.5t53 51.5t69 19.5q54 0 89.5 -35t53 -91.5t17.5 -119.5q0 -75 -25.5 -128.5t-84.5 -88.5q-23 -13 -55.5 -21.5t-71 -13.5t-80.5 -6.5t-85 -1.5zM785 604q-21 0 -35.5 14.5t-14.5 34.5t14.5 35t35.5 15
q20 0 34.5 -15t14.5 -35t-14.5 -34.5t-34.5 -14.5zM77 -393q-21 77 -36 150.5t-23 131.5t-8 86q0 74 24 135t62 107.5t82 79t85.5 49t70.5 16.5q25 0 44 -11t37 -43t38 -94q19 -57 36 -86.5t37 -40t46 -10.5q21 0 30.5 -11.5t9.5 -27.5t-14 -29.5t-36 -13.5q-39 0 -66.5 14
t-47.5 38l23 19q-12 -29 -30.5 -47.5t-41 -27.5t-47.5 -9q-29 0 -60 10.5t-61 31t-56.5 50.5t-46.5 68l10 -2q-28 -39 -37 -84.5t-9 -80.5q0 -28 6 -71.5t15.5 -92.5t21 -97.5t21.5 -87.5zM360 64q18 0 29.5 7t15.5 21t-3 35q-12 36 -22 63.5t-19.5 46t-19.5 27.5t-21 9
t-27.5 -5t-35 -15t-37.5 -25t-36 -35l1 8q22 -46 53.5 -77t64 -45.5t57.5 -14.5z" />
    <glyph glyph-name="uniFC31" unicode="&#xfc31;" horiz-adv-x="1183" arabic-form="isolated" 
d="M736 -5l10 82q25 0 55.5 0.5t62 1.5t58.5 4.5t45 9.5q36 13 56 32.5t28.5 52t8.5 83.5q0 42 -11 78t-31 58t-48 22q-23 0 -41.5 -17.5t-29 -44.5t-10.5 -54q0 -21 8.5 -36t28.5 -23.5t52 -8.5q29 0 58.5 6t50.5 16l4 -70q-16 -11 -36 -18t-42 -10t-44 -3
q-51 0 -86.5 16.5t-54 45t-18.5 65.5q0 38 12 76.5t34 70.5t53 51.5t69 19.5q54 0 89.5 -35t53 -91.5t17.5 -119.5q0 -75 -25.5 -128.5t-84.5 -88.5q-23 -13 -55.5 -21.5t-71 -13.5t-80.5 -6.5t-85 -1.5zM959 604q-21 0 -35.5 14.5t-14.5 34.5t14.5 35t35.5 15
q20 0 34.5 -15t14.5 -35t-14.5 -34.5t-34.5 -14.5zM30 -1q0 24 4.5 51.5t14 59t23.5 66.5l72 -28q-10 -28 -17.5 -53t-11 -47t-3.5 -42q0 -42 18.5 -71.5t51.5 -48.5t75.5 -28t90.5 -9q58 0 108.5 10t89 28.5t60.5 42t22 50.5q0 13 -10 24t-30 21t-48 19.5t-64 19.5l19 83
q52 -20 92 -33.5t70 -21.5t52 -11.5t37 -3.5q21 0 30.5 -11.5t9.5 -27.5t-14 -29.5t-36 -13.5h-12h-12.5h-12.5q2 -9 3 -14.5t1 -14.5q0 -37 -25.5 -72t-74.5 -63.5t-118.5 -45.5t-158.5 -17q-79 0 -146.5 25.5t-108.5 76.5t-41 129z" />
    <glyph glyph-name="uniFC32" unicode="&#xfc32;" horiz-adv-x="1183" arabic-form="isolated" 
d="M736 -5l10 82q25 0 55.5 0.5t62 1.5t58.5 4.5t45 9.5q36 13 56 32.5t28.5 52t8.5 83.5q0 42 -11 78t-31 58t-48 22q-23 0 -41.5 -17.5t-29 -44.5t-10.5 -54q0 -21 8.5 -36t28.5 -23.5t52 -8.5q29 0 58.5 6t50.5 16l4 -70q-16 -11 -36 -18t-42 -10t-44 -3
q-51 0 -86.5 16.5t-54 45t-18.5 65.5q0 38 12 76.5t34 70.5t53 51.5t69 19.5q54 0 89.5 -35t53 -91.5t17.5 -119.5q0 -75 -25.5 -128.5t-84.5 -88.5q-23 -13 -55.5 -21.5t-71 -13.5t-80.5 -6.5t-85 -1.5zM959 604q-21 0 -35.5 14.5t-14.5 34.5t14.5 35t35.5 15
q20 0 34.5 -15t14.5 -35t-14.5 -34.5t-34.5 -14.5zM30 -1q0 24 4.5 51.5t14 59t23.5 66.5l72 -28q-10 -28 -17.5 -53t-11 -47t-3.5 -42q0 -42 18.5 -71.5t51.5 -48.5t75.5 -28t90.5 -9q58 0 108.5 10t89 28.5t60.5 42t22 50.5q0 13 -10 24t-30 21t-48 19.5t-64 19.5l19 83
q52 -20 92 -33.5t70 -21.5t52 -11.5t37 -3.5q21 0 30.5 -11.5t9.5 -27.5t-14 -29.5t-36 -13.5h-12h-12.5h-12.5q2 -9 3 -14.5t1 -14.5q0 -37 -25.5 -72t-74.5 -63.5t-118.5 -45.5t-158.5 -17q-79 0 -146.5 25.5t-108.5 76.5t-41 129zM398 -421q-21 0 -35.5 14.5t-14.5 34.5
t14.5 35t35.5 15q20 0 34.5 -15t14.5 -35t-14.5 -34.5t-34.5 -14.5zM261 -421q-21 0 -35.5 14.5t-14.5 34.5t14.5 35t35.5 15q20 0 34.5 -15t14.5 -35t-14.5 -34.5t-34.5 -14.5z" />
    <glyph glyph-name="uniFC33" unicode="&#xfc33;" horiz-adv-x="1096" arabic-form="isolated" 
d="M649 -5l10 82q25 0 55.5 0.5t62 1.5t58.5 4.5t45 9.5q36 13 56 32.5t28.5 52t8.5 83.5q0 42 -11 78t-31 58t-48 22q-23 0 -41.5 -17.5t-29 -44.5t-10.5 -54q0 -21 8.5 -36t28.5 -23.5t52 -8.5q29 0 58.5 6t50.5 16l4 -70q-16 -11 -36 -18t-42 -10t-44 -3
q-51 0 -86.5 16.5t-54 45t-18.5 65.5q0 38 12 76.5t34 70.5t53 51.5t69 19.5q54 0 89.5 -35t53 -91.5t17.5 -119.5q0 -75 -25.5 -128.5t-84.5 -88.5q-23 -13 -55.5 -21.5t-71 -13.5t-80.5 -6.5t-85 -1.5zM942 604q-21 0 -35.5 14.5t-14.5 34.5t14.5 35t35.5 15
q20 0 34.5 -15t14.5 -35t-14.5 -34.5t-34.5 -14.5zM805 604q-21 0 -35.5 14.5t-14.5 34.5t14.5 35t35.5 15q20 0 34.5 -15t14.5 -35t-14.5 -34.5t-34.5 -14.5zM650 -5q-43 0 -86.5 6t-80.5 29t-60.5 71.5t-26.5 133.5l64 34q5 -67 22.5 -105.5t44.5 -57t61 -24t71 -5.5
q21 0 30.5 -11.5t9.5 -27.5t-13.5 -29.5t-35.5 -13.5zM360 -394q-70 0 -133.5 16t-112 49.5t-76.5 84.5t-28 120q0 58 17 110.5t49.5 99t79.5 85.5t107 69.5t131 51.5l-11 -13q-26 8 -53 17.5t-56 18t-62 13.5t-71 5q-30 0 -52.5 -5t-42.5 -10l-14 74q26 11 58.5 17.5
t65.5 6.5q46 0 82 -8.5t68.5 -21t68.5 -25t80.5 -21t105.5 -8.5h9l2 -82q-48 0 -102 -11t-107.5 -32t-102.5 -52t-86.5 -71.5t-59.5 -90t-22 -107.5q0 -52 22 -89.5t60.5 -61.5t89 -35t106.5 -11q49 0 100.5 10.5t100.5 29.5l28 -68q-58 -28 -119 -41.5t-120 -13.5z" />
    <glyph glyph-name="uniFC34" unicode="&#xfc34;" horiz-adv-x="1009" arabic-form="isolated" 
d="M562 -5l10 82q25 0 55.5 0.5t62 1.5t58.5 4.5t45 9.5q36 13 56 32.5t28.5 52t8.5 83.5q0 42 -11 78t-31 58t-48 22q-23 0 -41.5 -17.5t-29 -44.5t-10.5 -54q0 -21 8.5 -36t28.5 -23.5t52 -8.5q29 0 58.5 6t50.5 16l4 -70q-16 -11 -36 -18t-42 -10t-44 -3
q-51 0 -86.5 16.5t-54 45t-18.5 65.5q0 38 12 76.5t34 70.5t53 51.5t69 19.5q54 0 89.5 -35t53 -91.5t17.5 -119.5q0 -75 -25.5 -128.5t-84.5 -88.5q-23 -13 -55.5 -21.5t-71 -13.5t-80.5 -6.5t-85 -1.5zM855 604q-21 0 -35.5 14.5t-14.5 34.5t14.5 35t35.5 15
q20 0 34.5 -15t14.5 -35t-14.5 -34.5t-34.5 -14.5zM718 604q-21 0 -35.5 14.5t-14.5 34.5t14.5 35t35.5 15q20 0 34.5 -15t14.5 -35t-14.5 -34.5t-34.5 -14.5zM77 -393q-21 77 -36 150.5t-23 131.5t-8 86q0 74 24 135t62 107.5t82 79t85.5 49t70.5 16.5q25 0 44 -11t37 -43
t38 -94q19 -57 36 -86.5t37 -40t46 -10.5q21 0 30.5 -11.5t9.5 -27.5t-14 -29.5t-36 -13.5q-39 0 -66.5 14t-47.5 38l23 19q-12 -29 -30.5 -47.5t-41 -27.5t-47.5 -9q-29 0 -60 10.5t-61 31t-56.5 50.5t-46.5 68l10 -2q-28 -39 -37 -84.5t-9 -80.5q0 -28 6 -71.5t15.5 -92.5
t21 -97.5t21.5 -87.5zM360 64q18 0 29.5 7t15.5 21t-3 35q-12 36 -22 63.5t-19.5 46t-19.5 27.5t-21 9t-27.5 -5t-35 -15t-37.5 -25t-36 -35l1 8q22 -46 53.5 -77t64 -45.5t57.5 -14.5z" />
    <glyph glyph-name="uniFC35" unicode="&#xfc35;" horiz-adv-x="1183" arabic-form="isolated" 
d="M736 -5l10 82q25 0 55.5 0.5t62 1.5t58.5 4.5t45 9.5q36 13 56 32.5t28.5 52t8.5 83.5q0 42 -11 78t-31 58t-48 22q-23 0 -41.5 -17.5t-29 -44.5t-10.5 -54q0 -21 8.5 -36t28.5 -23.5t52 -8.5q29 0 58.5 6t50.5 16l4 -70q-16 -11 -36 -18t-42 -10t-44 -3
q-51 0 -86.5 16.5t-54 45t-18.5 65.5q0 38 12 76.5t34 70.5t53 51.5t69 19.5q54 0 89.5 -35t53 -91.5t17.5 -119.5q0 -75 -25.5 -128.5t-84.5 -88.5q-23 -13 -55.5 -21.5t-71 -13.5t-80.5 -6.5t-85 -1.5zM1029 604q-21 0 -35.5 14.5t-14.5 34.5t14.5 35t35.5 15
q20 0 34.5 -15t14.5 -35t-14.5 -34.5t-34.5 -14.5zM892 604q-21 0 -35.5 14.5t-14.5 34.5t14.5 35t35.5 15q20 0 34.5 -15t14.5 -35t-14.5 -34.5t-34.5 -14.5zM30 -1q0 24 4.5 51.5t14 59t23.5 66.5l72 -28q-10 -28 -17.5 -53t-11 -47t-3.5 -42q0 -42 18.5 -71.5t51.5 -48.5
t75.5 -28t90.5 -9q58 0 108.5 10t89 28.5t60.5 42t22 50.5q0 13 -10 24t-30 21t-48 19.5t-64 19.5l19 83q52 -20 92 -33.5t70 -21.5t52 -11.5t37 -3.5q21 0 30.5 -11.5t9.5 -27.5t-14 -29.5t-36 -13.5h-12h-12.5h-12.5q2 -9 3 -14.5t1 -14.5q0 -37 -25.5 -72t-74.5 -63.5
t-118.5 -45.5t-158.5 -17q-79 0 -146.5 25.5t-108.5 76.5t-41 129z" />
    <glyph glyph-name="uniFC36" unicode="&#xfc36;" horiz-adv-x="1183" arabic-form="isolated" 
d="M736 -5l10 82q25 0 55.5 0.5t62 1.5t58.5 4.5t45 9.5q36 13 56 32.5t28.5 52t8.5 83.5q0 42 -11 78t-31 58t-48 22q-23 0 -41.5 -17.5t-29 -44.5t-10.5 -54q0 -21 8.5 -36t28.5 -23.5t52 -8.5q29 0 58.5 6t50.5 16l4 -70q-16 -11 -36 -18t-42 -10t-44 -3
q-51 0 -86.5 16.5t-54 45t-18.5 65.5q0 38 12 76.5t34 70.5t53 51.5t69 19.5q54 0 89.5 -35t53 -91.5t17.5 -119.5q0 -75 -25.5 -128.5t-84.5 -88.5q-23 -13 -55.5 -21.5t-71 -13.5t-80.5 -6.5t-85 -1.5zM1029 604q-21 0 -35.5 14.5t-14.5 34.5t14.5 35t35.5 15
q20 0 34.5 -15t14.5 -35t-14.5 -34.5t-34.5 -14.5zM892 604q-21 0 -35.5 14.5t-14.5 34.5t14.5 35t35.5 15q20 0 34.5 -15t14.5 -35t-14.5 -34.5t-34.5 -14.5zM30 -1q0 24 4.5 51.5t14 59t23.5 66.5l72 -28q-10 -28 -17.5 -53t-11 -47t-3.5 -42q0 -42 18.5 -71.5t51.5 -48.5
t75.5 -28t90.5 -9q58 0 108.5 10t89 28.5t60.5 42t22 50.5q0 13 -10 24t-30 21t-48 19.5t-64 19.5l19 83q52 -20 92 -33.5t70 -21.5t52 -11.5t37 -3.5q21 0 30.5 -11.5t9.5 -27.5t-14 -29.5t-36 -13.5h-12h-12.5h-12.5q2 -9 3 -14.5t1 -14.5q0 -37 -25.5 -72t-74.5 -63.5
t-118.5 -45.5t-158.5 -17q-79 0 -146.5 25.5t-108.5 76.5t-41 129zM398 -421q-21 0 -35.5 14.5t-14.5 34.5t14.5 35t35.5 15q20 0 34.5 -15t14.5 -35t-14.5 -34.5t-34.5 -14.5zM261 -421q-21 0 -35.5 14.5t-14.5 34.5t14.5 35t35.5 15q20 0 34.5 -15t14.5 -35t-14.5 -34.5
t-34.5 -14.5z" />
    <glyph glyph-name="uniFC37" unicode="&#xfc37;" horiz-adv-x="703" arabic-form="isolated" 
d="M291 -5l10 82h94q59 0 93.5 6.5t51 17t22 23t5.5 25.5q0 23 -17.5 57t-71.5 88q-28 28 -56 51.5t-51.5 42t-37.5 31.5t-14 20q0 15 2.5 29t7 26t11.5 19q20 21 51.5 42t74 44t96 49.5t117.5 58.5l34 -74q-80 -38 -133.5 -64.5t-90.5 -47t-65 -38.5t-57 -40l15 38
q63 -50 111.5 -94t81.5 -84.5t50 -79.5t17 -79q0 -22 -8 -48t-34 -49t-78 -37.5t-140 -14.5h-91zM291 -5q-80 0 -122.5 18t-58.5 56t-18 98l-20 547h82l20 -515q2 -49 9.5 -75.5t34 -36.5t83.5 -10q21 0 30.5 -11.5t9.5 -27.5t-14 -29.5t-36 -13.5z" />
    <glyph glyph-name="uniFC38" unicode="&#xfc38;" horiz-adv-x="1061" arabic-form="isolated" 
d="M649 -5l10 82h94q59 0 93.5 6.5t51 17t22 23t5.5 25.5q0 23 -17.5 57t-71.5 88q-28 28 -56 51.5t-51.5 42t-37.5 31.5t-14 20q0 15 2.5 29t7 26t11.5 19q20 21 51.5 42t74 44t96 49.5t117.5 58.5l34 -74q-80 -38 -133.5 -64.5t-90.5 -47t-65 -38.5t-57 -40l15 38
q63 -50 111.5 -94t81.5 -84.5t50 -79.5t17 -79q0 -22 -8 -48t-34 -49t-78 -37.5t-140 -14.5h-91zM650 -5q-43 0 -86.5 6t-80.5 29t-60.5 71.5t-26.5 133.5l64 34q5 -67 22.5 -105.5t44.5 -57t61 -24t71 -5.5q21 0 30.5 -11.5t9.5 -27.5t-13.5 -29.5t-35.5 -13.5zM360 -394
q-70 0 -133.5 16t-112 49.5t-76.5 84.5t-28 120q0 58 17 110.5t49.5 99t79.5 85.5t107 69.5t131 51.5l-11 -13q-26 8 -53 17.5t-56 18t-62 13.5t-71 5q-30 0 -52.5 -5t-42.5 -10l-14 74q26 11 58.5 17.5t65.5 6.5q46 0 82 -8.5t68.5 -21t68.5 -25t80.5 -21t105.5 -8.5h9
l2 -82q-48 0 -102 -11t-107.5 -32t-102.5 -52t-86.5 -71.5t-59.5 -90t-22 -107.5q0 -52 22 -89.5t60.5 -61.5t89 -35t106.5 -11q49 0 100.5 10.5t100.5 29.5l28 -68q-58 -28 -119 -41.5t-120 -13.5zM351 -115q-21 0 -35.5 14.5t-14.5 34.5t14.5 35t35.5 15q20 0 34.5 -15
t14.5 -35t-14.5 -34.5t-34.5 -14.5z" />
    <glyph glyph-name="uniFC39" unicode="&#xfc39;" horiz-adv-x="1061" arabic-form="isolated" 
d="M649 -5l10 82h94q59 0 93.5 6.5t51 17t22 23t5.5 25.5q0 23 -17.5 57t-71.5 88q-28 28 -56 51.5t-51.5 42t-37.5 31.5t-14 20q0 15 2.5 29t7 26t11.5 19q20 21 51.5 42t74 44t96 49.5t117.5 58.5l34 -74q-80 -38 -133.5 -64.5t-90.5 -47t-65 -38.5t-57 -40l15 38
q63 -50 111.5 -94t81.5 -84.5t50 -79.5t17 -79q0 -22 -8 -48t-34 -49t-78 -37.5t-140 -14.5h-91zM650 -5q-43 0 -86.5 6t-80.5 29t-60.5 71.5t-26.5 133.5l64 34q5 -67 22.5 -105.5t44.5 -57t61 -24t71 -5.5q21 0 30.5 -11.5t9.5 -27.5t-13.5 -29.5t-35.5 -13.5zM360 -394
q-70 0 -133.5 16t-112 49.5t-76.5 84.5t-28 120q0 58 17 110.5t49.5 99t79.5 85.5t107 69.5t131 51.5l-11 -13q-26 8 -53 17.5t-56 18t-62 13.5t-71 5q-30 0 -52.5 -5t-42.5 -10l-14 74q26 11 58.5 17.5t65.5 6.5q46 0 82 -8.5t68.5 -21t68.5 -25t80.5 -21t105.5 -8.5h9
l2 -82q-48 0 -102 -11t-107.5 -32t-102.5 -52t-86.5 -71.5t-59.5 -90t-22 -107.5q0 -52 22 -89.5t60.5 -61.5t89 -35t106.5 -11q49 0 100.5 10.5t100.5 29.5l28 -68q-58 -28 -119 -41.5t-120 -13.5z" />
    <glyph glyph-name="uniFC3A" unicode="&#xfc3a;" horiz-adv-x="1061" arabic-form="isolated" 
d="M649 -5l10 82h94q59 0 93.5 6.5t51 17t22 23t5.5 25.5q0 23 -17.5 57t-71.5 88q-28 28 -56 51.5t-51.5 42t-37.5 31.5t-14 20q0 15 2.5 29t7 26t11.5 19q20 21 51.5 42t74 44t96 49.5t117.5 58.5l34 -74q-80 -38 -133.5 -64.5t-90.5 -47t-65 -38.5t-57 -40l15 38
q63 -50 111.5 -94t81.5 -84.5t50 -79.5t17 -79q0 -22 -8 -48t-34 -49t-78 -37.5t-140 -14.5h-91zM650 -5q-43 0 -86.5 6t-80.5 29t-60.5 71.5t-26.5 133.5l64 34q5 -67 22.5 -105.5t44.5 -57t61 -24t71 -5.5q21 0 30.5 -11.5t9.5 -27.5t-13.5 -29.5t-35.5 -13.5zM360 -394
q-70 0 -133.5 16t-112 49.5t-76.5 84.5t-28 120q0 58 17 110.5t49.5 99t79.5 85.5t107 69.5t131 51.5l-11 -13q-26 8 -53 17.5t-56 18t-62 13.5t-71 5q-30 0 -52.5 -5t-42.5 -10l-14 74q26 11 58.5 17.5t65.5 6.5q46 0 82 -8.5t68.5 -21t68.5 -25t80.5 -21t105.5 -8.5h9
l2 -82q-48 0 -102 -11t-107.5 -32t-102.5 -52t-86.5 -71.5t-59.5 -90t-22 -107.5q0 -52 22 -89.5t60.5 -61.5t89 -35t106.5 -11q49 0 100.5 10.5t100.5 29.5l28 -68q-58 -28 -119 -41.5t-120 -13.5zM312 519q-21 0 -35.5 14.5t-14.5 34.5t14.5 35t35.5 15q20 0 34.5 -15
t14.5 -35t-14.5 -34.5t-34.5 -14.5z" />
    <glyph glyph-name="uniFC3B" unicode="&#xfc3b;" horiz-adv-x="1142" arabic-form="isolated" 
d="M730 -5l10 82h94q59 0 93.5 6.5t51 17t22 23t5.5 25.5q0 23 -17.5 57t-71.5 88q-28 28 -56 51.5t-51.5 42t-37.5 31.5t-14 20q0 15 2.5 29t7 26t11.5 19q20 21 51.5 42t74 44t96 49.5t117.5 58.5l34 -74q-80 -38 -133.5 -64.5t-90.5 -47t-65 -38.5t-57 -40l15 38
q63 -50 111.5 -94t81.5 -84.5t50 -79.5t17 -79q0 -22 -8 -48t-34 -49t-78 -37.5t-140 -14.5h-91zM30 -1q0 24 4.5 51.5t14 59t23.5 66.5l72 -28q-10 -28 -17.5 -53t-11 -47t-3.5 -42q0 -51 27 -86t70.5 -52.5t93.5 -17.5q98 0 153 34.5t77 91t19 123.5l-22 615h83l16 -507
q2 -51 16.5 -79.5t39.5 -39.5t55 -11q21 0 30.5 -11.5t9.5 -27.5t-14 -29.5t-36 -13.5q-31 0 -53 8.5t-36 22t-22 31t-12 35.5l28 -28q-4 -53 -22.5 -105.5t-56.5 -95.5t-101.5 -69t-156.5 -26q-52 0 -100.5 15.5t-86 45.5t-59.5 72.5t-22 97.5z" />
    <glyph glyph-name="uniFC3C" unicode="&#xfc3c;" horiz-adv-x="974" arabic-form="isolated" 
d="M562 -5l10 82h94q59 0 93.5 6.5t51 17t22 23t5.5 25.5q0 23 -17.5 57t-71.5 88q-28 28 -56 51.5t-51.5 42t-37.5 31.5t-14 20q0 15 2.5 29t7 26t11.5 19q20 21 51.5 42t74 44t96 49.5t117.5 58.5l34 -74q-80 -38 -133.5 -64.5t-90.5 -47t-65 -38.5t-57 -40l15 38
q63 -50 111.5 -94t81.5 -84.5t50 -79.5t17 -79q0 -22 -8 -48t-34 -49t-78 -37.5t-140 -14.5h-91zM77 -393q-21 77 -36 150.5t-23 131.5t-8 86q0 74 24 135t62 107.5t82 79t85.5 49t70.5 16.5q25 0 44 -11t37 -43t38 -94q19 -57 36 -86.5t37 -40t46 -10.5q21 0 30.5 -11.5
t9.5 -27.5t-14 -29.5t-36 -13.5q-39 0 -66.5 14t-47.5 38l23 19q-12 -29 -30.5 -47.5t-41 -27.5t-47.5 -9q-29 0 -60 10.5t-61 31t-56.5 50.5t-46.5 68l10 -2q-28 -39 -37 -84.5t-9 -80.5q0 -28 6 -71.5t15.5 -92.5t21 -97.5t21.5 -87.5zM360 64q18 0 29.5 7t15.5 21t-3 35
q-12 36 -22 63.5t-19.5 46t-19.5 27.5t-21 9t-27.5 -5t-35 -15t-37.5 -25t-36 -35l1 8q22 -46 53.5 -77t64 -45.5t57.5 -14.5z" />
    <glyph glyph-name="uniFC3D" unicode="&#xfc3d;" horiz-adv-x="1148" arabic-form="isolated" 
d="M736 -5l10 82h94q59 0 93.5 6.5t51 17t22 23t5.5 25.5q0 23 -17.5 57t-71.5 88q-28 28 -56 51.5t-51.5 42t-37.5 31.5t-14 20q0 15 2.5 29t7 26t11.5 19q20 21 51.5 42t74 44t96 49.5t117.5 58.5l34 -74q-80 -38 -133.5 -64.5t-90.5 -47t-65 -38.5t-57 -40l15 38
q63 -50 111.5 -94t81.5 -84.5t50 -79.5t17 -79q0 -22 -8 -48t-34 -49t-78 -37.5t-140 -14.5h-91zM30 -1q0 24 4.5 51.5t14 59t23.5 66.5l72 -28q-10 -28 -17.5 -53t-11 -47t-3.5 -42q0 -42 18.5 -71.5t51.5 -48.5t75.5 -28t90.5 -9q58 0 108.5 10t89 28.5t60.5 42t22 50.5
q0 13 -10 24t-30 21t-48 19.5t-64 19.5l19 83q52 -20 92 -33.5t70 -21.5t52 -11.5t37 -3.5q21 0 30.5 -11.5t9.5 -27.5t-14 -29.5t-36 -13.5h-12h-12.5h-12.5q2 -9 3 -14.5t1 -14.5q0 -37 -25.5 -72t-74.5 -63.5t-118.5 -45.5t-158.5 -17q-79 0 -146.5 25.5t-108.5 76.5
t-41 129z" />
    <glyph glyph-name="uniFC3E" unicode="&#xfc3e;" horiz-adv-x="1148" arabic-form="isolated" 
d="M736 -5l10 82h94q59 0 93.5 6.5t51 17t22 23t5.5 25.5q0 23 -17.5 57t-71.5 88q-28 28 -56 51.5t-51.5 42t-37.5 31.5t-14 20q0 15 2.5 29t7 26t11.5 19q20 21 51.5 42t74 44t96 49.5t117.5 58.5l34 -74q-80 -38 -133.5 -64.5t-90.5 -47t-65 -38.5t-57 -40l15 38
q63 -50 111.5 -94t81.5 -84.5t50 -79.5t17 -79q0 -22 -8 -48t-34 -49t-78 -37.5t-140 -14.5h-91zM30 -1q0 24 4.5 51.5t14 59t23.5 66.5l72 -28q-10 -28 -17.5 -53t-11 -47t-3.5 -42q0 -42 18.5 -71.5t51.5 -48.5t75.5 -28t90.5 -9q58 0 108.5 10t89 28.5t60.5 42t22 50.5
q0 13 -10 24t-30 21t-48 19.5t-64 19.5l19 83q52 -20 92 -33.5t70 -21.5t52 -11.5t37 -3.5q21 0 30.5 -11.5t9.5 -27.5t-14 -29.5t-36 -13.5h-12h-12.5h-12.5q2 -9 3 -14.5t1 -14.5q0 -37 -25.5 -72t-74.5 -63.5t-118.5 -45.5t-158.5 -17q-79 0 -146.5 25.5t-108.5 76.5
t-41 129zM398 -421q-21 0 -35.5 14.5t-14.5 34.5t14.5 35t35.5 15q20 0 34.5 -15t14.5 -35t-14.5 -34.5t-34.5 -14.5zM261 -421q-21 0 -35.5 14.5t-14.5 34.5t14.5 35t35.5 15q20 0 34.5 -15t14.5 -35t-14.5 -34.5t-34.5 -14.5z" />
    <glyph glyph-name="uniFC3F" unicode="&#xfc3f;" horiz-adv-x="909" arabic-form="isolated" 
d="M649 -5l9 82q57 0 80 11t26.5 39t1.5 78l-19 509h81l20 -500q2 -53 -3.5 -94t-26 -69t-61 -42t-108.5 -14zM650 -5q-43 0 -86.5 6t-80.5 29t-60.5 71.5t-26.5 133.5l64 34q5 -67 22.5 -105.5t44.5 -57t61 -24t71 -5.5q21 0 30.5 -11.5t9.5 -27.5t-13.5 -29.5t-35.5 -13.5
zM360 -394q-70 0 -133.5 16t-112 49.5t-76.5 84.5t-28 120q0 58 17 110.5t49.5 99t79.5 85.5t107 69.5t131 51.5l-11 -13q-26 8 -53 17.5t-56 18t-62 13.5t-71 5q-30 0 -52.5 -5t-42.5 -10l-14 74q26 11 58.5 17.5t65.5 6.5q46 0 82 -8.5t68.5 -21t68.5 -25t80.5 -21
t105.5 -8.5h9l2 -82q-48 0 -102 -11t-107.5 -32t-102.5 -52t-86.5 -71.5t-59.5 -90t-22 -107.5q0 -52 22 -89.5t60.5 -61.5t89 -35t106.5 -11q49 0 100.5 10.5t100.5 29.5l28 -68q-58 -28 -119 -41.5t-120 -13.5zM351 -115q-21 0 -35.5 14.5t-14.5 34.5t14.5 35t35.5 15
q20 0 34.5 -15t14.5 -35t-14.5 -34.5t-34.5 -14.5z" />
    <glyph glyph-name="uniFC40" unicode="&#xfc40;" horiz-adv-x="909" arabic-form="isolated" 
d="M649 -5l9 82q57 0 80 11t26.5 39t1.5 78l-19 509h81l20 -500q2 -53 -3.5 -94t-26 -69t-61 -42t-108.5 -14zM650 -5q-43 0 -86.5 6t-80.5 29t-60.5 71.5t-26.5 133.5l64 34q5 -67 22.5 -105.5t44.5 -57t61 -24t71 -5.5q21 0 30.5 -11.5t9.5 -27.5t-13.5 -29.5t-35.5 -13.5
zM360 -394q-70 0 -133.5 16t-112 49.5t-76.5 84.5t-28 120q0 58 17 110.5t49.5 99t79.5 85.5t107 69.5t131 51.5l-11 -13q-26 8 -53 17.5t-56 18t-62 13.5t-71 5q-30 0 -52.5 -5t-42.5 -10l-14 74q26 11 58.5 17.5t65.5 6.5q46 0 82 -8.5t68.5 -21t68.5 -25t80.5 -21
t105.5 -8.5h9l2 -82q-48 0 -102 -11t-107.5 -32t-102.5 -52t-86.5 -71.5t-59.5 -90t-22 -107.5q0 -52 22 -89.5t60.5 -61.5t89 -35t106.5 -11q49 0 100.5 10.5t100.5 29.5l28 -68q-58 -28 -119 -41.5t-120 -13.5z" />
    <glyph glyph-name="uniFC41" unicode="&#xfc41;" horiz-adv-x="909" arabic-form="isolated" 
d="M649 -5l9 82q57 0 80 11t26.5 39t1.5 78l-19 509h81l20 -500q2 -53 -3.5 -94t-26 -69t-61 -42t-108.5 -14zM650 -5q-43 0 -86.5 6t-80.5 29t-60.5 71.5t-26.5 133.5l64 34q5 -67 22.5 -105.5t44.5 -57t61 -24t71 -5.5q21 0 30.5 -11.5t9.5 -27.5t-13.5 -29.5t-35.5 -13.5
zM360 -394q-70 0 -133.5 16t-112 49.5t-76.5 84.5t-28 120q0 58 17 110.5t49.5 99t79.5 85.5t107 69.5t131 51.5l-11 -13q-26 8 -53 17.5t-56 18t-62 13.5t-71 5q-30 0 -52.5 -5t-42.5 -10l-14 74q26 11 58.5 17.5t65.5 6.5q46 0 82 -8.5t68.5 -21t68.5 -25t80.5 -21
t105.5 -8.5h9l2 -82q-48 0 -102 -11t-107.5 -32t-102.5 -52t-86.5 -71.5t-59.5 -90t-22 -107.5q0 -52 22 -89.5t60.5 -61.5t89 -35t106.5 -11q49 0 100.5 10.5t100.5 29.5l28 -68q-58 -28 -119 -41.5t-120 -13.5zM312 519q-21 0 -35.5 14.5t-14.5 34.5t14.5 35t35.5 15
q20 0 34.5 -15t14.5 -35t-14.5 -34.5t-34.5 -14.5z" />
    <glyph glyph-name="uniFC42" unicode="&#xfc42;" horiz-adv-x="822" arabic-form="isolated" 
d="M562 -5l9 82q57 0 80 11t26.5 39t1.5 78l-19 509h81l20 -500q2 -53 -3.5 -94t-26 -69t-61 -42t-108.5 -14zM77 -393q-21 77 -36 150.5t-23 131.5t-8 86q0 74 24 135t62 107.5t82 79t85.5 49t70.5 16.5q25 0 44 -11t37 -43t38 -94q19 -57 36 -86.5t37 -40t46 -10.5
q21 0 30.5 -11.5t9.5 -27.5t-14 -29.5t-36 -13.5q-39 0 -66.5 14t-47.5 38l23 19q-12 -29 -30.5 -47.5t-41 -27.5t-47.5 -9q-29 0 -60 10.5t-61 31t-56.5 50.5t-46.5 68l10 -2q-28 -39 -37 -84.5t-9 -80.5q0 -28 6 -71.5t15.5 -92.5t21 -97.5t21.5 -87.5zM360 64
q18 0 29.5 7t15.5 21t-3 35q-12 36 -22 63.5t-19.5 46t-19.5 27.5t-21 9t-27.5 -5t-35 -15t-37.5 -25t-36 -35l1 8q22 -46 53.5 -77t64 -45.5t57.5 -14.5z" />
    <glyph glyph-name="uniFC43" unicode="&#xfc43;" horiz-adv-x="996" arabic-form="isolated" 
d="M736 -5l9 82q57 0 80 11t26.5 39t1.5 78l-19 509h81l20 -500q2 -53 -3.5 -94t-26 -69t-61 -42t-108.5 -14zM30 -1q0 24 4.5 51.5t14 59t23.5 66.5l72 -28q-10 -28 -17.5 -53t-11 -47t-3.5 -42q0 -42 18.5 -71.5t51.5 -48.5t75.5 -28t90.5 -9q58 0 108.5 10t89 28.5
t60.5 42t22 50.5q0 13 -10 24t-30 21t-48 19.5t-64 19.5l19 83q52 -20 92 -33.5t70 -21.5t52 -11.5t37 -3.5q21 0 30.5 -11.5t9.5 -27.5t-14 -29.5t-36 -13.5h-12h-12.5h-12.5q2 -9 3 -14.5t1 -14.5q0 -37 -25.5 -72t-74.5 -63.5t-118.5 -45.5t-158.5 -17q-79 0 -146.5 25.5
t-108.5 76.5t-41 129z" />
    </font>
</defs>
</svg>
